<svg width="191" height="43" viewBox="0 0 191 43" fill="none" xmlns="http://www.w3.org/2000/svg">
<path d="M56.0625 29.6719H52.3359V38.5781H53.8125V35.1797H56.0625C58.0078 35.1797 59.2266 34.125 59.2266 32.4141C59.2266 30.7266 58.0078 29.6719 56.0625 29.6719ZM55.875 33.9141H53.8125V30.9609H55.875C57.0938 30.9609 57.7266 31.4531 57.7266 32.4375C57.7266 33.3984 57.0938 33.9141 55.875 33.9141Z" fill="#153E65"/>
<path d="M63.5859 38.6953C65.6953 38.6953 67.1484 37.2188 67.1484 35.0625C67.1484 32.8594 65.7422 31.4297 63.5859 31.4297C61.4766 31.4297 60.0234 32.9062 60.0234 35.0625C60.0234 37.2656 61.4297 38.6953 63.5859 38.6953ZM63.5859 37.5C62.2969 37.5 61.4531 36.5391 61.4531 35.0625C61.4531 33.5859 62.2969 32.625 63.5859 32.625C64.875 32.625 65.7188 33.5859 65.7188 35.0625C65.7188 36.5391 64.875 37.5 63.5859 37.5Z" fill="#153E65"/>
<path d="M72.5625 31.4297C71.5547 31.4297 70.7109 31.875 70.1484 32.6484L70.0547 31.5469H68.8359V40.9219H70.2422V37.6406C70.7812 38.3203 71.6016 38.6953 72.5625 38.6953C74.3672 38.6953 75.6328 37.2188 75.6328 35.0625C75.6328 32.8594 74.4141 31.4297 72.5625 31.4297ZM72.1875 37.5C70.9453 37.5 70.1484 36.5391 70.1484 35.0625C70.1484 33.5859 70.9453 32.625 72.1875 32.625C73.4297 32.625 74.2031 33.5859 74.2031 35.0625C74.2031 36.5391 73.4297 37.5 72.1875 37.5Z" fill="#153E65"/>
<path d="M80.3203 38.6953C81.8203 38.6953 83.0625 37.9219 83.4609 36.5859L82.125 36.1641C81.8203 36.9844 81.1641 37.5 80.3203 37.5C79.0312 37.5 78.2344 36.5391 78.2344 35.0625C78.2344 33.5859 79.0312 32.625 80.3203 32.625C81.1875 32.625 81.8203 33.1406 82.125 33.9609L83.4609 33.5391C83.0625 32.2031 81.8438 31.4297 80.3203 31.4297C78.2344 31.4297 76.8047 32.9062 76.8047 35.0625C76.8047 37.2188 78.2344 38.6953 80.3203 38.6953Z" fill="#153E65"/>
<path d="M87.8906 38.6953C90 38.6953 91.4531 37.2188 91.4531 35.0625C91.4531 32.8594 90.0469 31.4297 87.8906 31.4297C85.7812 31.4297 84.3281 32.9062 84.3281 35.0625C84.3281 37.2656 85.7344 38.6953 87.8906 38.6953ZM87.8906 37.5C86.6016 37.5 85.7578 36.5391 85.7578 35.0625C85.7578 33.5859 86.6016 32.625 87.8906 32.625C89.1797 32.625 90.0234 33.5859 90.0234 35.0625C90.0234 36.5391 89.1797 37.5 87.8906 37.5Z" fill="#153E65"/>
<path d="M96.9141 31.4297C95.8594 31.4297 94.9688 31.9219 94.4531 32.6719L94.3594 31.5469H93.1406V38.5781H94.5469V34.6406C94.5469 33.5156 95.3906 32.7891 96.5156 32.7891C96.8203 32.7891 97.1484 32.8125 97.4531 32.8359V31.5C97.2656 31.4531 97.1016 31.4297 96.9141 31.4297Z" fill="#153E65"/>
<path d="M102.586 31.4297C101.531 31.4297 100.641 31.8984 100.102 32.6484L100.008 31.5469H98.7891V38.5781H100.195V34.5469C100.195 33.4219 101.086 32.625 102.188 32.625C103.148 32.625 103.734 33.3047 103.734 34.5V38.5781H105.141V34.125C105.141 32.5078 104.086 31.4297 102.586 31.4297Z" fill="#153E65"/>
<path d="M113.883 30.2344C114.398 30.2344 114.82 30.3984 115.195 30.6797L115.852 29.625C115.289 29.25 114.656 29.0391 113.93 29.0391C112.523 29.0391 111.656 29.8125 111.656 31.0547V31.5469H110.203V32.7422H111.656V38.5781H113.062V32.7422H115.078V31.5469H113.062V31.0781C113.062 30.5625 113.367 30.2344 113.883 30.2344Z" fill="#153E65"/>
<path d="M119.156 38.6953C121.266 38.6953 122.719 37.2188 122.719 35.0625C122.719 32.8594 121.312 31.4297 119.156 31.4297C117.047 31.4297 115.594 32.9062 115.594 35.0625C115.594 37.2656 117 38.6953 119.156 38.6953ZM119.156 37.5C117.867 37.5 117.023 36.5391 117.023 35.0625C117.023 33.5859 117.867 32.625 119.156 32.625C120.445 32.625 121.289 33.5859 121.289 35.0625C121.289 36.5391 120.445 37.5 119.156 37.5Z" fill="#153E65"/>
<path d="M128.18 31.4297C127.125 31.4297 126.234 31.9219 125.719 32.6719L125.625 31.5469H124.406V38.5781H125.812V34.6406C125.812 33.5156 126.656 32.7891 127.781 32.7891C128.086 32.7891 128.414 32.8125 128.719 32.8359V31.5C128.531 31.4531 128.367 31.4297 128.18 31.4297Z" fill="#153E65"/>
<path d="M137.672 38.6953C139.969 38.6953 141.422 37.2656 141.422 35.0625V29.6719H139.945V35.0391C139.945 36.4922 139.078 37.3828 137.672 37.3828C136.266 37.3828 135.398 36.4922 135.398 35.0391V29.6719H133.922V35.0625C133.922 37.2656 135.375 38.6953 137.672 38.6953Z" fill="#153E65"/>
<path d="M148.523 38.5781H150.234L147.164 34.3594L150.094 31.5469H148.312L145.148 34.6875V29.2031H143.742V38.5781H145.148V36.2812L146.156 35.3203L148.523 38.5781Z" fill="#153E65"/>
<path d="M155.133 31.4297C154.078 31.4297 153.188 31.9219 152.672 32.6719L152.578 31.5469H151.359V38.5781H152.766V34.6406C152.766 33.5156 153.609 32.7891 154.734 32.7891C155.039 32.7891 155.367 32.8125 155.672 32.8359V31.5C155.484 31.4531 155.32 31.4297 155.133 31.4297Z" fill="#153E65"/>
<path d="M162.469 37.3594C162.164 37.3594 162.023 37.2188 162.023 36.9141V33.75C162.023 32.2969 160.992 31.4297 159.305 31.4297C158.086 31.4297 157.078 31.8516 156.258 32.625L157.125 33.5391C157.688 32.9531 158.438 32.6016 159.234 32.6016C160.125 32.6016 160.711 32.9766 160.711 33.5391C160.711 34.0781 160.195 34.1719 159.141 34.3125C157.781 34.5234 156.117 34.8984 156.117 36.6328C156.117 37.8516 157.031 38.6953 158.414 38.6953C159.445 38.6953 160.383 38.2266 160.875 37.5C160.969 38.3203 161.367 38.625 162.234 38.625C162.469 38.625 162.656 38.6016 162.727 38.5781V37.3594H162.469ZM158.648 37.5469C157.922 37.5469 157.5 37.1953 157.5 36.5391C157.5 35.625 158.414 35.4844 159.305 35.3438C159.984 35.2266 160.406 35.1562 160.664 34.9922V35.9062C160.664 36.7969 159.727 37.5469 158.648 37.5469Z" fill="#153E65"/>
<path d="M164.344 30.5625H165.891V29.1562H164.344V30.5625ZM164.414 38.5781H165.82V31.5469H164.414V38.5781Z" fill="#153E65"/>
<path d="M171.938 31.4297C170.883 31.4297 169.992 31.8984 169.453 32.6484L169.359 31.5469H168.141V38.5781H169.547V34.5469C169.547 33.4219 170.438 32.625 171.539 32.625C172.5 32.625 173.086 33.3047 173.086 34.5V38.5781H174.492V34.125C174.492 32.5078 173.438 31.4297 171.938 31.4297Z" fill="#153E65"/>
<path d="M177.469 35.5078H182.883C182.93 35.3438 182.93 35.2266 182.93 35.0625C182.93 32.8594 181.594 31.4297 179.531 31.4297C177.469 31.4297 176.062 32.9062 176.062 35.0625C176.062 37.1484 177.328 38.6953 179.648 38.6953C181.125 38.6953 182.109 38.1328 182.695 37.4297L181.734 36.5859C181.336 37.1016 180.68 37.5 179.648 37.5C178.406 37.5 177.633 36.7266 177.469 35.5078ZM179.531 32.6016C180.586 32.6016 181.312 33.2812 181.5 34.4297H177.492C177.703 33.3047 178.43 32.6016 179.531 32.6016Z" fill="#153E65"/>
<g clip-path="url(#clip0_73_1416)">
<path d="M62.0344 22.8653C60.017 22.8653 58.1627 22.4203 56.4713 21.5304C54.8004 20.6404 53.4657 19.4023 52.4672 17.8158C51.4891 16.2101 51 14.4108 51 12.4182C51 10.4254 51.4891 8.63586 52.4672 7.04946C53.4657 5.46304 54.8004 4.22486 56.4713 3.33491C58.1627 2.44497 60.017 2 62.0344 2C64.0518 2 65.8959 2.44497 67.5669 3.33491C69.2582 4.22486 70.5828 5.46304 71.5405 7.04946C72.5186 8.63586 73.0077 10.4254 73.0077 12.4182C73.0077 14.4108 72.5186 16.2101 71.5405 17.8158C70.5624 19.4023 69.2378 20.6404 67.5669 21.5304C65.8959 22.4203 64.0518 22.8653 62.0344 22.8653ZM62.0344 18.3382C63.7461 18.3382 65.1114 17.7965 66.1303 16.7131C67.1695 15.6297 67.6891 14.198 67.6891 12.4182C67.6891 10.6189 67.1695 9.18727 66.1303 8.1232C65.1114 7.03979 63.7461 6.49809 62.0344 6.49809C60.3023 6.49809 58.9167 7.03013 57.8774 8.09416C56.8585 9.15823 56.3491 10.5995 56.3491 12.4182C56.3491 14.2174 56.8585 15.6587 57.8774 16.7421C58.9167 17.8062 60.3023 18.3382 62.0344 18.3382Z" fill="#04111D"/>
<path d="M81.1424 8.76203C81.6518 8.00753 82.3548 7.39809 83.2514 6.93379C84.148 6.46945 85.1975 6.2373 86.3998 6.2373C87.8058 6.2373 89.0794 6.57585 90.2205 7.25299C91.3617 7.93013 92.2583 8.89747 92.9104 10.155C93.5828 11.4125 93.9191 12.8732 93.9191 14.537C93.9191 16.2008 93.5828 17.6711 92.9104 18.948C92.2583 20.2056 91.3617 21.1825 90.2205 21.879C89.0794 22.5562 87.8058 22.8947 86.3998 22.8947C85.2179 22.8947 84.1684 22.6626 83.2514 22.1982C82.3548 21.7339 81.6518 21.1342 81.1424 20.399V27.4799H75.9156V6.46945H81.1424V8.76203ZM88.6005 14.537C88.6005 13.2988 88.2337 12.3315 87.5002 11.635C86.7869 10.9192 85.9005 10.5613 84.8409 10.5613C83.8017 10.5613 82.9152 10.9192 82.1816 11.635C81.4684 12.3508 81.1118 13.3278 81.1118 14.566C81.1118 15.8042 81.4684 16.7812 82.1816 17.497C82.9152 18.2128 83.8017 18.5707 84.8409 18.5707C85.8802 18.5707 86.7665 18.2128 87.5002 17.497C88.2337 16.7618 88.6005 15.7752 88.6005 14.537Z" fill="#04111D"/>
<path d="M112.739 14.3048C112.739 14.7692 112.708 15.2528 112.647 15.7558H100.818C100.9 16.7618 101.236 17.5357 101.827 18.0774C102.438 18.5998 103.182 18.861 104.058 18.861C105.363 18.861 106.269 18.3386 106.779 17.2939H112.342C112.056 18.358 111.537 19.3156 110.783 20.1669C110.049 21.0181 109.122 21.6856 108.001 22.1692C106.88 22.6529 105.627 22.8947 104.242 22.8947C102.571 22.8947 101.083 22.5562 99.7791 21.879C98.4749 21.2019 97.456 20.2346 96.7222 18.977C95.9889 17.7195 95.6219 16.2492 95.6219 14.566C95.6219 12.8829 95.9787 11.4125 96.6919 10.155C97.4252 8.89747 98.4441 7.93013 99.7483 7.25299C101.052 6.57585 102.55 6.2373 104.242 6.2373C105.892 6.2373 107.359 6.56619 108.643 7.224C109.927 7.88176 110.925 8.82007 111.639 10.0389C112.372 11.2577 112.739 12.6797 112.739 14.3048ZM107.39 12.9989C107.39 12.1477 107.084 11.4705 106.473 10.9675C105.861 10.4645 105.097 10.213 104.181 10.213C103.304 10.213 102.561 10.4549 101.949 10.9385C101.358 11.4222 100.991 12.109 100.849 12.9989H107.39Z" fill="#04111D"/>
<path d="M125.889 6.29492C127.886 6.29492 129.475 6.914 130.657 8.15222C131.86 9.37101 132.461 11.0542 132.461 13.2017V22.6622H127.264V13.8691C127.264 12.7857 126.969 11.9441 126.378 11.3444C125.787 10.7446 124.992 10.4448 123.994 10.4448C122.995 10.4448 122.201 10.7446 121.61 11.3444C121.019 11.9441 120.723 12.7857 120.723 13.8691V22.6622H115.497V6.46903H120.723V8.61651C121.253 7.90067 121.966 7.33964 122.863 6.93338C123.759 6.50774 124.768 6.29492 125.889 6.29492Z" fill="#04111D"/>
<path d="M143.857 22.8653C142.288 22.8653 140.881 22.6235 139.638 22.1398C138.395 21.6561 137.397 20.9403 136.643 19.9923C135.909 19.0444 135.522 17.9029 135.481 16.568H141.044C141.126 17.3225 141.401 17.9029 141.87 18.3092C142.339 18.6961 142.95 18.8896 143.704 18.8896C144.478 18.8896 145.089 18.7251 145.538 18.3963C145.986 18.048 146.21 17.574 146.21 16.9743C146.21 16.4712 146.027 16.0553 145.66 15.7264C145.314 15.3975 144.876 15.1267 144.346 14.9139C143.836 14.701 143.103 14.4592 142.145 14.1884C140.759 13.7821 139.628 13.3758 138.752 12.9695C137.876 12.5633 137.122 11.9635 136.49 11.1703C135.859 10.3771 135.543 9.34204 135.543 8.06517C135.543 6.16919 136.266 4.68918 137.713 3.62511C139.16 2.54171 141.044 2 143.367 2C145.732 2 147.636 2.54171 149.083 3.62511C150.53 4.68918 151.305 6.17886 151.406 8.09416H145.752C145.711 7.43639 145.456 6.92369 144.988 6.55612C144.519 6.16919 143.918 5.97572 143.184 5.97572C142.552 5.97572 142.043 6.14017 141.656 6.46905C141.269 6.77858 141.075 7.23326 141.075 7.83299C141.075 8.49076 141.401 9.00347 142.053 9.37103C142.706 9.73864 143.724 10.1352 145.11 10.5609C146.496 11.0058 147.616 11.4314 148.472 11.8378C149.349 12.244 150.102 12.8341 150.734 13.608C151.366 14.3818 151.681 15.3782 151.681 16.597C151.681 17.7578 151.366 18.8122 150.734 19.7601C150.123 20.7082 149.226 21.4627 148.044 22.0237C146.863 22.5848 145.466 22.8653 143.857 22.8653Z" fill="#04111D"/>
<path d="M170.976 14.3048C170.976 14.7692 170.945 15.2528 170.884 15.7558H159.055C159.137 16.7618 159.473 17.5357 160.064 18.0774C160.675 18.5998 161.419 18.861 162.295 18.861C163.599 18.861 164.506 18.3386 165.016 17.2939H170.579C170.293 18.358 169.774 19.3156 169.02 20.1669C168.286 21.0181 167.359 21.6856 166.238 22.1692C165.117 22.6529 163.864 22.8947 162.479 22.8947C160.808 22.8947 159.32 22.5562 158.016 21.879C156.712 21.2019 155.693 20.2346 154.959 18.977C154.226 17.7195 153.859 16.2492 153.859 14.566C153.859 12.8829 154.216 11.4125 154.929 10.155C155.662 8.89747 156.681 7.93013 157.985 7.25299C159.289 6.57585 160.787 6.2373 162.479 6.2373C164.129 6.2373 165.596 6.56619 166.88 7.224C168.164 7.88176 169.162 8.82007 169.876 10.0389C170.609 11.2577 170.976 12.6797 170.976 14.3048ZM165.627 12.9989C165.627 12.1477 165.321 11.4705 164.71 10.9675C164.098 10.4645 163.334 10.213 162.418 10.213C161.541 10.213 160.797 10.4549 160.186 10.9385C159.595 11.4222 159.228 12.109 159.086 12.9989H165.627Z" fill="#04111D"/>
<path d="M172.694 14.537C172.694 12.8732 173.02 11.4125 173.672 10.155C174.345 8.89747 175.252 7.93013 176.393 7.25299C177.534 6.57585 178.807 6.2373 180.214 6.2373C181.416 6.2373 182.465 6.46945 183.362 6.93379C184.279 7.39809 184.982 8.00753 185.471 8.76203V6.46945H190.698V22.6626H185.471V20.37C184.962 21.1245 184.248 21.7339 183.331 22.1982C182.435 22.6626 181.385 22.8947 180.183 22.8947C178.797 22.8947 177.534 22.5562 176.393 21.879C175.252 21.1825 174.345 20.2056 173.672 18.948C173.02 17.6711 172.694 16.2008 172.694 14.537ZM185.471 14.566C185.471 13.3278 185.104 12.3508 184.371 11.635C183.657 10.9192 182.781 10.5613 181.742 10.5613C180.702 10.5613 179.816 10.9192 179.083 11.635C178.369 12.3315 178.013 13.2988 178.013 14.537C178.013 15.7752 178.369 16.7618 179.083 17.497C179.816 18.2128 180.702 18.5707 181.742 18.5707C182.781 18.5707 183.657 18.2128 184.371 17.497C185.104 16.7812 185.471 15.8042 185.471 14.566Z" fill="#04111D"/>
</g>
<g clip-path="url(#clip1_73_1416)">
<path d="M42.1729 21.0864C42.1729 32.7315 32.7315 42.1729 21.0864 42.1729C9.44137 42.1729 0 32.7315 0 21.0864C0 9.44137 9.44137 0 21.0864 0C32.734 0 42.1729 9.44137 42.1729 21.0864Z" fill="#2081E2"/>
<path d="M10.4032 21.7945L10.4941 21.6515L15.9796 13.0703C16.0597 12.9446 16.2482 12.9576 16.3089 13.0941C17.2253 15.1479 18.016 17.7021 17.6456 19.2923C17.4874 19.9465 17.0541 20.8326 16.5667 21.6515C16.5039 21.7707 16.4345 21.8877 16.3609 22.0003C16.3262 22.0523 16.2677 22.0826 16.2049 22.0826H10.5635C10.4118 22.0826 10.323 21.918 10.4032 21.7945Z" fill="white"/>
<path d="M34.8536 23.3895V24.7478C34.8536 24.8258 34.8059 24.8952 34.7366 24.9255C34.312 25.1075 32.8583 25.7747 32.2538 26.6153C30.7113 28.7622 29.5328 31.8321 26.8984 31.8321H15.9081C12.0128 31.8321 8.85632 28.6648 8.85632 24.7565V24.6309C8.85632 24.5269 8.9408 24.4424 9.04479 24.4424H15.1715C15.2928 24.4424 15.3816 24.555 15.3708 24.6742C15.3275 25.0728 15.4011 25.4801 15.5896 25.8505C15.9536 26.5893 16.7075 27.0508 17.5221 27.0508H20.5551V24.6829H17.5567C17.4029 24.6829 17.3119 24.5052 17.4008 24.3796C17.4332 24.3297 17.4701 24.2777 17.5091 24.2193C17.7929 23.8163 18.198 23.1902 18.601 22.4774C18.8761 21.9965 19.1425 21.483 19.357 20.9674C19.4004 20.8743 19.435 20.7789 19.4697 20.6858C19.5282 20.5211 19.5889 20.3673 19.6322 20.2135C19.6755 20.0835 19.7102 19.947 19.7448 19.8192C19.8467 19.3816 19.89 18.918 19.89 18.437C19.89 18.2485 19.8813 18.0514 19.864 17.8629C19.8553 17.6571 19.8293 17.4513 19.8033 17.2455C19.786 17.0635 19.7535 16.8837 19.7188 16.6952C19.6755 16.4201 19.6148 16.1471 19.5455 15.8719L19.5217 15.768C19.4697 15.5795 19.4264 15.3997 19.3657 15.2112C19.1945 14.6197 18.9974 14.0435 18.7894 13.504C18.7136 13.2896 18.6269 13.0838 18.5403 12.8779C18.4125 12.5681 18.2825 12.2865 18.1633 12.02C18.1027 11.8987 18.0507 11.7882 17.9987 11.6756C17.9402 11.5477 17.8796 11.4199 17.8189 11.2986C17.7756 11.2055 17.7257 11.1188 17.691 11.0321L17.3206 10.3475C17.2686 10.2544 17.3553 10.1439 17.4571 10.1721L19.7752 10.8003H19.7817C19.786 10.8003 19.7882 10.8025 19.7903 10.8025L20.0958 10.887L20.4316 10.9823L20.5551 11.0169V9.63911C20.5551 8.974 21.088 8.43457 21.7466 8.43457C22.0759 8.43457 22.3749 8.56889 22.5894 8.78768C22.8038 9.00652 22.9381 9.30548 22.9381 9.63911V11.6842L23.1852 11.7535C23.2046 11.7601 23.2241 11.7687 23.2415 11.7817C23.3021 11.8272 23.3888 11.8944 23.4993 11.9767C23.5859 12.046 23.6791 12.1305 23.7917 12.2172C24.0149 12.397 24.2814 12.6288 24.5738 12.8953C24.6518 12.9624 24.7276 13.0318 24.797 13.1011C25.1739 13.452 25.5964 13.8637 25.9994 14.3186C26.112 14.4464 26.2225 14.5764 26.3351 14.7129C26.4478 14.8516 26.567 14.988 26.6709 15.1245C26.8074 15.3065 26.9547 15.495 27.0826 15.6921C27.1432 15.7853 27.2125 15.8806 27.271 15.9738C27.4357 16.2229 27.5808 16.4807 27.7195 16.7385C27.778 16.8577 27.8386 16.9877 27.8906 17.1155C28.0444 17.4599 28.1658 17.8109 28.2438 18.1619C28.2676 18.2377 28.2849 18.32 28.2936 18.3937V18.411C28.3196 18.515 28.3283 18.6255 28.3369 18.7381C28.3716 19.0978 28.3542 19.4574 28.2763 19.8192C28.2438 19.973 28.2004 20.1182 28.1484 20.272C28.0964 20.4193 28.0444 20.5731 27.9773 20.7183C27.8473 21.0194 27.6935 21.3205 27.5115 21.6022C27.453 21.7062 27.3837 21.8167 27.3143 21.9207C27.2385 22.0311 27.1605 22.1351 27.0912 22.237C26.9959 22.3669 26.8941 22.5034 26.7901 22.6247C26.6969 22.7526 26.6016 22.8804 26.4976 22.993C26.3525 23.1642 26.2138 23.3267 26.0686 23.4827C25.982 23.5845 25.8889 23.6885 25.7935 23.7816C25.7004 23.8856 25.605 23.9787 25.5184 24.0654C25.3733 24.2106 25.2519 24.3232 25.1501 24.4164L24.9118 24.6352C24.8771 24.6655 24.8316 24.6829 24.784 24.6829H22.9381V27.0508H25.2606C25.7805 27.0508 26.2745 26.8666 26.6731 26.5286C26.8096 26.4095 27.4054 25.8939 28.1094 25.1161C28.1333 25.0901 28.1636 25.0706 28.1983 25.062L34.6131 23.2075C34.7323 23.1729 34.8536 23.2638 34.8536 23.3895Z" fill="white"/>
</g>
<defs>
<clipPath id="clip0_73_1416">
<rect width="139.698" height="25.4795" fill="white" transform="translate(51 2)"/>
</clipPath>
<clipPath id="clip1_73_1416">
<rect width="42.1729" height="42.1729" fill="white"/>
</clipPath>
</defs>
</svg>
