<svg width="124" height="51" viewBox="0 0 124 51" fill="none" xmlns="http://www.w3.org/2000/svg">
<g clip-path="url(#clip0_27_1258)">
<path d="M38.2084 39.9708V40.4906H37.1559V44.6526H36.5413V40.4906H35.4883V39.9708H38.2084Z" fill="#444444"/>
<path d="M39.2752 43.0504C39.2795 43.2219 39.2959 43.3782 39.3229 43.5204C39.3501 43.6625 39.3946 43.7863 39.4556 43.8922C39.5178 43.9977 39.5995 44.0784 39.7019 44.1388C39.8044 44.1969 39.9355 44.2258 40.0952 44.2258C40.2274 44.2258 40.3489 44.2075 40.4604 44.1692C40.5724 44.1314 40.653 44.0978 40.7035 44.0711L40.8128 44.5363C40.7533 44.5772 40.6547 44.6213 40.5155 44.669C40.3765 44.7163 40.2114 44.7398 40.0199 44.7398C39.7688 44.7398 39.5581 44.6947 39.3877 44.6045C39.2168 44.5138 39.0778 44.3874 38.9705 44.2258C38.8634 44.0632 38.7874 43.8697 38.7413 43.6468C38.6962 43.4202 38.6733 43.1736 38.6733 42.903C38.6733 42.2505 38.7827 41.7732 39.0013 41.4716C39.22 41.1695 39.5092 41.019 39.8697 41.019C40.2746 41.019 40.5623 41.1695 40.731 41.4716C40.8993 41.7732 40.9837 42.1955 40.9837 42.7415C40.9837 42.7908 40.9837 42.8406 40.9837 42.8936C40.9837 42.9466 40.9816 42.9969 40.9768 43.0515L39.2752 43.0504ZM39.8702 41.5115C39.6738 41.5115 39.5316 41.608 39.4429 41.801C39.3543 41.9951 39.3007 42.2536 39.2821 42.5778H40.3691C40.3691 42.249 40.3346 41.9888 40.2666 41.7979C40.1982 41.6069 40.0655 41.5115 39.8702 41.5115Z" fill="#444444"/>
<path d="M42.9799 44.7392C42.7342 44.7392 42.5293 44.6909 42.3653 44.597C42.2013 44.5026 42.0675 44.372 41.9651 44.2079C41.8627 44.0447 41.7895 43.8496 41.7464 43.6241C41.703 43.399 41.6812 43.1541 41.6812 42.8898C41.6812 42.3034 41.7895 41.8455 42.006 41.515C42.2226 41.183 42.5495 41.0183 42.9868 41.0183C43.119 41.0183 43.2378 41.0335 43.3419 41.0655C43.447 41.098 43.5447 41.1374 43.6359 41.1872L43.4852 41.6666C43.344 41.5764 43.1869 41.5313 43.0139 41.5313C42.7681 41.5313 42.5866 41.6409 42.4704 41.8628C42.3542 42.0826 42.2958 42.4256 42.2958 42.8898C42.2958 43.0823 42.307 43.2611 42.3303 43.4253C42.3526 43.5889 42.3924 43.7295 42.4502 43.8475C42.5071 43.9655 42.5824 44.0563 42.6753 44.124C42.7687 44.1916 42.8881 44.2252 43.0346 44.2252C43.1344 44.2252 43.2241 44.2131 43.3042 44.1885C43.3844 44.1638 43.4603 44.1318 43.5335 44.0909L43.6636 44.5435C43.5908 44.5928 43.4937 44.6369 43.3732 44.6778C43.2517 44.7187 43.1211 44.7392 42.9799 44.7392Z" fill="#444444"/>
<path d="M44.333 44.6511V39.5104L44.9205 39.4092V41.1248C45.007 41.0981 45.1015 41.0755 45.2045 41.0582C45.3069 41.0398 45.4104 41.0315 45.5155 41.0315C45.6657 41.0315 45.8069 41.054 45.9396 41.1012C46.0712 41.1484 46.1859 41.2281 46.2846 41.3414C46.3822 41.4532 46.4597 41.6063 46.517 41.7973C46.5744 41.9882 46.603 42.2247 46.603 42.5095V44.6505H46.0144V42.5557C46.0144 42.2053 45.9693 41.9494 45.878 41.7862C45.7867 41.6236 45.6158 41.5434 45.3653 41.5434C45.2332 41.5434 45.0851 41.5659 44.921 41.6111V44.6505H44.333V44.6511Z" fill="#444444"/>
<path d="M47.6616 41.2061C47.8299 41.1568 48.0125 41.1149 48.2083 41.0824C48.4036 41.0477 48.5841 41.032 48.7492 41.032C48.9264 41.032 49.0883 41.0545 49.2337 41.1018C49.3797 41.149 49.5039 41.2286 49.6063 41.342C49.7093 41.4537 49.7889 41.6068 49.8457 41.7978C49.9025 41.9887 49.9316 42.2253 49.9316 42.51V44.6511H49.3436V42.5562C49.3436 42.2058 49.2985 41.9499 49.2072 41.7868C49.1164 41.6241 48.945 41.5439 48.6945 41.5439C48.5623 41.5439 48.4142 41.5664 48.2502 41.6116V44.6511H47.6622V41.2061H47.6616Z" fill="#444444"/>
<path d="M53.2936 42.8818C53.2936 43.1603 53.2675 43.4147 53.2177 43.6408C53.1678 43.8684 53.0914 44.063 52.9889 44.2246C52.8864 44.3861 52.7564 44.5125 52.5998 44.6027C52.4423 44.6929 52.257 44.7391 52.0431 44.7391C51.8287 44.7391 51.6413 44.6929 51.4821 44.6027C51.3223 44.5125 51.1912 44.3866 51.0888 44.2246C50.9869 44.0625 50.9099 43.8669 50.86 43.6408C50.8091 43.4137 50.7842 43.1603 50.7842 42.8818C50.7842 42.6065 50.8091 42.3542 50.86 42.125C50.9099 41.8952 50.9864 41.6991 51.0888 41.5349C51.1912 41.3702 51.3213 41.2417 51.4821 41.152C51.6413 41.0628 51.8281 41.0177 52.0431 41.0177C52.2565 41.0177 52.4423 41.0628 52.5998 41.152C52.7564 41.2422 52.887 41.3702 52.9889 41.5349C53.0908 41.6986 53.1678 41.8957 53.2177 42.125C53.2675 42.3557 53.2936 42.6065 53.2936 42.8818ZM52.6784 42.8818C52.6784 42.683 52.6672 42.5011 52.645 42.3368C52.6222 42.1732 52.5855 42.0316 52.5351 41.9115C52.4841 41.7914 52.4189 41.6996 52.3361 41.6351C52.2549 41.5695 52.1567 41.537 52.0426 41.537C51.9237 41.537 51.825 41.5695 51.7453 41.6351C51.6652 41.6996 51.5994 41.7919 51.5468 41.9115C51.4938 42.0316 51.4566 42.1727 51.4338 42.3368C51.411 42.5011 51.3999 42.683 51.3999 42.8818C51.3999 43.0796 51.411 43.2605 51.4338 43.4247C51.4566 43.5883 51.4938 43.7289 51.5468 43.8469C51.5989 43.9649 51.6652 44.0557 51.7453 44.1202C51.8244 44.1858 51.9237 44.2177 52.0426 44.2177C52.1567 44.2177 52.2544 44.1858 52.3361 44.1202C52.4183 44.0557 52.4841 43.9639 52.5351 43.8469C52.585 43.7289 52.6211 43.5894 52.645 43.4247C52.6672 43.2605 52.6784 43.0796 52.6784 42.8818Z" fill="#444444"/>
<path d="M55.1174 44.7187C54.7804 44.7093 54.5389 44.6265 54.393 44.4717C54.2481 44.3165 54.1743 44.0699 54.1743 43.7321V39.5104L54.7618 39.4092V43.7463C54.7618 43.9047 54.7942 44.0175 54.8574 44.0867C54.9216 44.158 55.0336 44.2052 55.1923 44.231L55.1174 44.7187Z" fill="#444444"/>
<path d="M58.1866 42.8818C58.1866 43.1603 58.1617 43.4147 58.1113 43.6408C58.0614 43.8684 57.9849 44.063 57.882 44.2246C57.779 44.3861 57.6495 44.5125 57.4924 44.6027C57.3348 44.6929 57.1496 44.7391 56.9346 44.7391C56.7213 44.7391 56.5344 44.6929 56.3741 44.6027C56.2144 44.5125 56.0838 44.3866 55.9809 44.2246C55.8795 44.0625 55.8025 43.8669 55.7521 43.6408C55.7022 43.4137 55.6768 43.1603 55.6768 42.8818C55.6768 42.6065 55.7017 42.3542 55.7521 42.125C55.8025 41.8957 55.879 41.6991 55.9809 41.5349C56.0838 41.3702 56.2144 41.2417 56.3741 41.152C56.5334 41.0628 56.7202 41.0177 56.9346 41.0177C57.149 41.0177 57.3348 41.0628 57.4924 41.152C57.6495 41.2422 57.7796 41.3702 57.882 41.5349C57.9844 41.6986 58.0604 41.8957 58.1113 42.125C58.1617 42.3557 58.1866 42.6065 58.1866 42.8818ZM57.571 42.8818C57.571 42.683 57.5598 42.5011 57.5376 42.3368C57.5142 42.1732 57.4781 42.0316 57.4282 41.9115C57.3773 41.7914 57.312 41.6996 57.2297 41.6351C57.148 41.5695 57.0498 41.537 56.9357 41.537C56.8168 41.537 56.7181 41.5695 56.6379 41.6351C56.5583 41.6996 56.4919 41.7919 56.4394 41.9115C56.3858 42.0316 56.3492 42.1727 56.3269 42.3368C56.3041 42.5011 56.2929 42.683 56.2929 42.8818C56.2929 43.0796 56.3041 43.2605 56.3269 43.4247C56.3492 43.5883 56.3869 43.7289 56.4394 43.8469C56.4919 43.9649 56.5583 44.0557 56.6379 44.1202C56.7165 44.1858 56.8163 44.2177 56.9357 44.2177C57.0498 44.2177 57.1474 44.1858 57.2297 44.1202C57.312 44.0557 57.3773 43.9639 57.4282 43.8469C57.4781 43.7289 57.5142 43.5894 57.5376 43.4247C57.5598 43.2605 57.571 43.0796 57.571 42.8818Z" fill="#444444"/>
<path d="M61.215 44.5505C61.215 44.8018 61.1821 45.0157 61.1158 45.1883C61.0494 45.3614 60.9592 45.503 60.8451 45.6105C60.7315 45.7191 60.5983 45.7967 60.446 45.847C60.2936 45.8974 60.1302 45.9231 59.9571 45.9231C59.8117 45.9231 59.6657 45.9069 59.5203 45.8738C59.3744 45.8419 59.2396 45.7957 59.1164 45.7322L59.2391 45.2465C59.3208 45.2906 59.4211 45.3315 59.5394 45.3666C59.6578 45.4013 59.7804 45.4212 59.9078 45.4212C60.1307 45.4212 60.3063 45.3577 60.4348 45.2318C60.5622 45.106 60.6253 44.8899 60.6253 44.5846V44.4146C60.5521 44.4472 60.4751 44.4718 60.3929 44.4923C60.3106 44.5122 60.2167 44.5232 60.1121 44.5232C59.6843 44.5232 59.3712 44.3785 59.1722 44.0879C58.9747 43.7968 58.8755 43.3861 58.8755 42.8542C58.8755 42.5705 58.9015 42.3166 58.953 42.0879C59.0055 41.8598 59.0873 41.6668 59.1987 41.5073C59.3107 41.3484 59.4556 41.2262 59.6328 41.1433C59.8101 41.0604 60.0267 41.019 60.2825 41.019C60.4508 41.019 60.6158 41.0347 60.7787 41.0693C60.9406 41.1024 61.0845 41.1464 61.2118 41.2015V44.551H61.215V44.5505ZM60.6275 41.5781C60.5633 41.5597 60.5017 41.5482 60.4422 41.5414C60.3828 41.5351 60.3287 41.5309 60.2777 41.5309C60.0049 41.5309 59.8059 41.6343 59.6796 41.8419C59.5543 42.0486 59.4917 42.3859 59.4917 42.8548C59.4917 43.2791 59.5532 43.577 59.6764 43.7496C59.7995 43.9232 59.9747 44.0092 60.2029 44.0092C60.2804 44.0092 60.3541 44.0008 60.4247 43.9825C60.4953 43.9652 60.5627 43.9405 60.6269 43.9085V41.5781H60.6275Z" fill="#444444"/>
<path d="M63.135 43.9156C63.2677 43.4651 63.3882 43.0119 63.498 42.5561C63.6069 42.1024 63.7114 41.6178 63.8133 41.1038H64.3929C64.3255 41.4331 64.2517 41.7567 64.1731 42.0767C64.0946 42.3967 64.0113 42.7041 63.9275 43.0019C63.8436 43.2983 63.7597 43.5794 63.6764 43.8433C63.5915 44.1065 63.5134 44.3473 63.4413 44.5624C63.3553 44.8147 63.2714 45.0281 63.1913 45.2017C63.1106 45.3738 63.0246 45.5138 62.9301 45.6203C62.8378 45.7252 62.7354 45.8023 62.6255 45.8495C62.5167 45.8988 62.3861 45.9224 62.2359 45.9224C62.1542 45.9224 62.0709 45.9114 61.9886 45.8899C61.9074 45.87 61.8384 45.8484 61.7837 45.8259L61.8936 45.3538C62.0109 45.4026 62.1229 45.4289 62.2285 45.4289C62.3611 45.4289 62.4679 45.3811 62.5496 45.2867C62.6324 45.1923 62.7125 45.0512 62.789 44.8608L62.8585 44.6924C62.7715 44.4591 62.6844 44.1983 62.5952 43.913C62.505 43.6272 62.4191 43.3292 62.3341 43.0187C62.2503 42.7061 62.1685 42.3882 62.0915 42.0631C62.0141 41.7358 61.9434 41.4179 61.8793 41.1064H62.5013C62.5374 41.3188 62.5809 41.5511 62.6308 41.8024C62.6817 42.0547 62.7343 42.3064 62.7927 42.5577C62.8484 42.8105 62.9079 43.0544 62.9657 43.2909C63.0241 43.5264 63.0798 43.7341 63.135 43.9156Z" fill="#444444"/>
<path d="M70.5295 39.9708C70.4294 40.1234 70.3172 40.2923 70.1915 40.477C70.0671 40.6622 69.9382 40.852 69.8054 41.0466C69.6726 41.2423 69.5399 41.4347 69.4052 41.624C69.2712 41.8129 69.1429 41.9881 69.0185 42.1496C69.1564 42.2854 69.3032 42.4559 69.4629 42.6615C69.6226 42.8666 69.7804 43.0827 69.9349 43.3098C70.0895 43.5385 70.2351 43.7688 70.3698 44.0027C70.5089 44.2377 70.618 44.4527 70.6994 44.6526H70.0093C69.9138 44.4449 69.8028 44.2324 69.6771 44.0153C69.5534 43.8002 69.4206 43.5905 69.2802 43.3911C69.1423 43.1897 69.0018 43.004 68.8575 42.8325C68.7139 42.6615 68.5747 42.5163 68.4368 42.4004V44.6531H67.8218V39.9713H68.4368V42.0358C68.5548 41.8879 68.6812 41.719 68.812 41.5307C68.9447 41.3419 69.0762 41.1515 69.2058 40.9621C69.3353 40.7749 69.4578 40.5945 69.5707 40.4209C69.6848 40.2472 69.781 40.0988 69.8586 39.9729H70.5288V39.9708H70.5295Z" fill="#444444"/>
<path d="M71.3369 41.2061C71.5056 41.1568 71.6871 41.1149 71.884 41.0824C72.0789 41.0477 72.2591 41.032 72.4246 41.032C72.601 41.032 72.7645 41.0545 72.9088 41.1018C73.0544 41.149 73.1782 41.2286 73.2814 41.342C73.384 41.4537 73.4642 41.6068 73.5213 41.7978C73.5771 41.9887 73.6059 42.2253 73.6059 42.51V44.6511H73.0185V42.5562C73.0185 42.2058 72.9729 41.9499 72.8825 41.7868C72.7914 41.6241 72.6196 41.5439 72.3694 41.5439C72.2367 41.5439 72.0885 41.5664 71.9257 41.6116V44.6511H71.3369V41.2061Z" fill="#444444"/>
<path d="M76.9675 42.8818C76.9675 43.1603 76.9425 43.4147 76.8938 43.6408C76.8431 43.8684 76.7674 44.063 76.6635 44.2246C76.5609 44.3866 76.4307 44.5125 76.2742 44.6027C76.1171 44.6929 75.9318 44.7391 75.7163 44.7391C75.5027 44.7391 75.3148 44.6929 75.1564 44.6027C74.9954 44.5125 74.8646 44.3866 74.7626 44.2246C74.6607 44.0625 74.585 43.8669 74.5343 43.6408C74.483 43.4137 74.458 43.1603 74.458 42.8818C74.458 42.6065 74.483 42.3542 74.5343 42.125C74.585 41.8957 74.6594 41.6991 74.7626 41.5349C74.8646 41.3702 74.9954 41.2417 75.1564 41.152C75.3148 41.0628 75.5014 41.0177 75.7163 41.0177C75.9318 41.0177 76.1165 41.0628 76.2742 41.152C76.4314 41.2422 76.5609 41.3702 76.6635 41.5349C76.7661 41.6986 76.8431 41.8957 76.8938 42.125C76.9425 42.3557 76.9675 42.6065 76.9675 42.8818ZM76.3531 42.8818C76.3531 42.683 76.3416 42.5011 76.3191 42.3368C76.296 42.1732 76.2601 42.0316 76.2101 41.9115C76.1601 41.7914 76.094 41.6996 76.0113 41.6351C75.9318 41.5695 75.8317 41.537 75.7176 41.537C75.5983 41.537 75.5002 41.5695 75.42 41.6351C75.3405 41.6996 75.2751 41.7919 75.2218 41.9115C75.1686 42.031 75.132 42.1727 75.109 42.3368C75.0852 42.5011 75.075 42.683 75.075 42.8818C75.075 43.0796 75.0859 43.2605 75.109 43.4247C75.132 43.5883 75.1686 43.7289 75.2218 43.8469C75.2751 43.9649 75.3405 44.0557 75.42 44.1202C75.4995 44.1858 75.5983 44.2177 75.7176 44.2177C75.8317 44.2177 75.9298 44.1858 76.0113 44.1202C76.094 44.0557 76.1601 43.9639 76.2101 43.8469C76.2601 43.7289 76.296 43.5894 76.3191 43.4247C76.3416 43.26 76.3531 43.0796 76.3531 42.8818Z" fill="#444444"/>
<path d="M78.8088 44.651H78.2162C78.0745 44.1868 77.9398 43.655 77.8134 43.0492C77.6884 42.4476 77.573 41.7977 77.4678 41.1038H78.0495C78.0668 41.2978 78.095 41.5255 78.1309 41.7835C78.1668 42.0421 78.2085 42.308 78.2528 42.5808C78.2964 42.854 78.3406 43.1163 78.3874 43.3717C78.4317 43.6256 78.4753 43.8427 78.517 44.0231C78.558 43.8427 78.6048 43.6225 78.6581 43.3612C78.7113 43.1 78.7639 42.8304 78.8158 42.5561C78.8678 42.2828 78.9172 42.0164 78.9627 41.7578C79.0082 41.4982 79.0435 41.2805 79.0717 41.1048H79.6265C79.6444 41.2805 79.6726 41.4972 79.7124 41.7536C79.7496 42.0101 79.7894 42.2771 79.8336 42.554C79.8772 42.8294 79.9215 43.1 79.9677 43.3612C80.0119 43.6225 80.0536 43.8427 80.0889 44.0231C80.1306 43.8427 80.1729 43.6235 80.2171 43.3675C80.2633 43.1121 80.3088 42.8477 80.3499 42.5776C80.3929 42.3059 80.432 42.0421 80.4698 41.7835C80.5057 41.5255 80.5327 41.2978 80.5513 41.1038H81.1111C81.0079 41.7977 80.8937 42.4476 80.768 43.0492C80.6449 43.6539 80.5115 44.1868 80.3723 44.651H79.7958C79.7612 44.5115 79.7188 44.3326 79.6765 44.115C79.6329 43.8963 79.5906 43.6623 79.547 43.4158C79.5033 43.1667 79.4642 42.9191 79.4277 42.6694C79.3917 42.4187 79.3584 42.1911 79.3302 41.9833C79.3032 42.1911 79.2667 42.4187 79.2212 42.6694C79.1756 42.9191 79.1269 43.1667 79.0775 43.4158C79.0275 43.6623 78.9775 43.8963 78.9306 44.115C78.8806 44.3326 78.8415 44.5126 78.8088 44.651Z" fill="#444444"/>
<path d="M82.7439 44.7187C82.4065 44.7093 82.1641 44.6265 82.0205 44.4717C81.8742 44.3165 81.8018 44.0699 81.8018 43.7321V39.5104L82.3886 39.4092V43.7463C82.3886 43.9047 82.4206 44.0175 82.4848 44.0867C82.5483 44.158 82.6611 44.2052 82.8195 44.231L82.7439 44.7187Z" fill="#444444"/>
<path d="M83.9118 43.0504C83.9163 43.2219 83.9329 43.3782 83.9611 43.5204C83.9881 43.6625 84.0317 43.7863 84.0945 43.8922C84.1548 43.9977 84.2382 44.0784 84.3395 44.1388C84.4415 44.1969 84.5736 44.2258 84.7333 44.2258C84.8648 44.2258 84.9873 44.2075 85.0982 44.1692C85.2092 44.1314 85.2906 44.0978 85.3406 44.0711L85.4497 44.5363C85.3919 44.5772 85.2919 44.6213 85.1527 44.669C85.0136 44.7163 84.8494 44.7398 84.657 44.7398C84.4049 44.7398 84.1952 44.6947 84.0253 44.6045C83.8541 44.5138 83.7149 44.3874 83.6084 44.2258C83.502 44.0632 83.425 43.8697 83.3788 43.6468C83.3327 43.4202 83.3096 43.1736 83.3096 42.903C83.3096 42.2505 83.4186 41.7732 83.6379 41.4716C83.8566 41.1695 84.1458 41.019 84.5069 41.019C84.9116 41.019 85.1983 41.1695 85.3676 41.4716C85.535 41.7732 85.6203 42.1955 85.6203 42.7415C85.6203 42.7908 85.6203 42.8406 85.6203 42.8936C85.6203 42.9466 85.6183 42.9969 85.6132 43.0515L83.9118 43.0504ZM84.5069 41.5115C84.3113 41.5115 84.1677 41.608 84.0798 41.801C83.9906 41.9951 83.9374 42.2536 83.9188 42.5778H85.0052C85.0052 42.249 84.9712 41.9888 84.9026 41.7979C84.8346 41.6069 84.7032 41.5115 84.5069 41.5115Z" fill="#444444"/>
<path d="M88.0687 39.5119L88.6555 39.4107V44.5572C88.5279 44.6117 88.3817 44.6552 88.2181 44.6883C88.0539 44.7224 87.8872 44.7402 87.7198 44.7402C87.2273 44.7402 86.8707 44.5855 86.6494 44.2739C86.4275 43.9635 86.3179 43.4945 86.3179 42.8693C86.3179 42.5856 86.3416 42.3291 86.3903 42.102C86.4384 41.8743 86.5128 41.6808 86.6167 41.5213C86.7181 41.3608 86.8489 41.2376 87.0092 41.1495C87.1683 41.0624 87.3568 41.0184 87.5755 41.0184C87.68 41.0184 87.7698 41.0293 87.8449 41.0482C87.9218 41.0687 87.9943 41.0981 88.0687 41.1332V39.5119ZM88.0687 41.6393C87.9359 41.5664 87.7942 41.5308 87.6435 41.5308C87.5293 41.5308 87.4306 41.5533 87.3433 41.5985C87.2574 41.6435 87.1837 41.7186 87.1215 41.8214C87.0605 41.9247 87.0137 42.0616 86.9804 42.2341C86.9489 42.4046 86.9323 42.616 86.9323 42.8688C86.9323 43.3545 86.9977 43.7022 87.1285 43.9115C87.2581 44.1203 87.4537 44.2257 87.7192 44.2257C87.7679 44.2257 87.8237 44.2226 87.8833 44.2157C87.9417 44.2073 88.0046 44.1968 88.0687 44.1785V41.6393Z" fill="#444444"/>
<path d="M91.8823 44.5505C91.8823 44.8018 91.8496 45.0157 91.7836 45.1883C91.7169 45.3614 91.6265 45.503 91.5129 45.6105C91.3988 45.7191 91.2647 45.7967 91.1128 45.847C90.9601 45.8974 90.7972 45.9231 90.6241 45.9231C90.4785 45.9231 90.331 45.9069 90.1867 45.8738C90.0411 45.8419 89.9058 45.7957 89.7826 45.7322L89.9045 45.2465C89.9859 45.2906 90.0879 45.3315 90.2059 45.3666C90.3246 45.4013 90.4477 45.4212 90.5747 45.4212C90.7979 45.4212 90.9742 45.3577 91.1006 45.2318C91.2275 45.106 91.291 44.8899 91.291 44.5846V44.4146C91.2179 44.4472 91.1416 44.4718 91.0595 44.4923C90.9774 44.5122 90.8844 44.5232 90.7786 44.5232C90.3502 44.5232 90.0379 44.3785 89.8391 44.0879C89.6409 43.7968 89.5415 43.3861 89.5415 42.8542C89.5415 42.5705 89.5672 42.3166 89.6197 42.0879C89.6717 41.8598 89.7538 41.6668 89.866 41.5073C89.9776 41.3484 90.1206 41.2262 90.3002 41.1433C90.4785 41.0604 90.694 41.019 90.9492 41.019C91.1179 41.019 91.2821 41.0347 91.4456 41.0693C91.6079 41.1024 91.7502 41.1464 91.8791 41.2015V44.551H91.8823V44.5505ZM91.2936 41.5781C91.2314 41.5597 91.1705 41.5482 91.1095 41.5414C91.0512 41.5351 90.9954 41.5309 90.946 41.5309C90.6709 41.5309 90.4721 41.6343 90.3477 41.8419C90.2213 42.0486 90.1591 42.3859 90.1591 42.8548C90.1591 43.2791 90.2213 43.577 90.3438 43.7496C90.4669 43.9232 90.642 44.0092 90.8703 44.0092C90.9479 44.0092 91.023 44.0008 91.0922 43.9825C91.1628 43.9652 91.2314 43.9405 91.2936 43.9085V41.5781Z" fill="#444444"/>
<path d="M93.3784 43.0504C93.3829 43.2219 93.3996 43.3782 93.4265 43.5204C93.4534 43.6625 93.499 43.7863 93.5599 43.8922C93.6215 43.9977 93.7035 44.0784 93.8062 44.1388C93.9081 44.1969 94.0402 44.2258 94.1987 44.2258C94.3301 44.2258 94.4526 44.2075 94.5636 44.1692C94.6771 44.1314 94.7566 44.0978 94.8066 44.0711L94.9163 44.5363C94.8573 44.5772 94.7585 44.6213 94.6187 44.669C94.4796 44.7163 94.3147 44.7398 94.123 44.7398C93.8716 44.7398 93.6612 44.6947 93.4906 44.6045C93.3207 44.5138 93.1809 44.3874 93.0738 44.2258C92.9673 44.0632 92.8903 43.8697 92.8448 43.6468C92.798 43.4202 92.7749 43.1736 92.7749 42.903C92.7749 42.2505 92.8852 41.7732 93.1039 41.4716C93.3226 41.1695 93.6118 41.019 93.9723 41.019C94.3789 41.019 94.6649 41.1695 94.8329 41.4716C95.0029 41.7732 95.0863 42.1955 95.0863 42.7415C95.0863 42.7908 95.0863 42.8406 95.0863 42.8936C95.0863 42.9466 95.0837 42.9969 95.0798 43.0515L93.3784 43.0504ZM93.9736 41.5115C93.7779 41.5115 93.6343 41.608 93.5451 41.801C93.456 41.9951 93.4021 42.2536 93.3842 42.5778H94.4712C94.4712 42.249 94.4385 41.9888 94.3693 41.7979C94.3013 41.6069 94.1692 41.5115 93.9736 41.5115Z" fill="#444444"/>
<path d="M100.938 39.9708H101.553V44.6526H100.938V42.4764H99.3793V44.651H98.7637V39.9693H99.3793V41.9488H100.938V39.9708Z" fill="#444444"/>
<path d="M104.915 44.5503C104.857 44.5718 104.784 44.5944 104.7 44.6138C104.616 44.6342 104.528 44.6521 104.435 44.6683C104.34 44.684 104.247 44.6972 104.154 44.7077C104.06 44.7187 103.975 44.7255 103.898 44.7255C103.711 44.7255 103.54 44.7035 103.385 44.6605C103.229 44.6174 103.097 44.543 102.988 44.4344C102.88 44.3269 102.795 44.179 102.735 43.9917C102.677 43.8055 102.646 43.5695 102.646 43.2857V41.1032H103.234V43.2653C103.234 43.6125 103.288 43.8559 103.396 43.9975C103.5 44.1396 103.664 44.2104 103.884 44.2104C103.957 44.2104 104.028 44.2057 104.102 44.1995C104.176 44.1915 104.25 44.179 104.328 44.1553V41.1022H104.915V44.5503Z" fill="#444444"/>
<path d="M106.009 41.2061C106.17 41.1568 106.343 41.1149 106.529 41.0824C106.716 41.0477 106.887 41.032 107.041 41.032C107.201 41.032 107.346 41.0514 107.476 41.0912C107.604 41.1322 107.719 41.1998 107.819 41.2947C107.938 41.2177 108.065 41.1547 108.203 41.1049C108.34 41.0556 108.489 41.032 108.653 41.032C108.818 41.032 108.967 41.0545 109.102 41.1018C109.237 41.149 109.351 41.2286 109.447 41.342C109.542 41.4537 109.617 41.6068 109.672 41.7978C109.727 41.9887 109.755 42.2253 109.755 42.51V44.6511H109.167V42.5562C109.167 42.2058 109.126 41.9499 109.044 41.7868C108.961 41.6241 108.807 41.5439 108.58 41.5439C108.493 41.5439 108.405 41.5586 108.316 41.5911C108.227 41.6231 108.144 41.6661 108.067 41.7191C108.104 41.8234 108.131 41.9404 108.148 42.0705C108.166 42.2016 108.176 42.3469 108.176 42.51V44.6511H107.589V42.5562C107.589 42.2058 107.547 41.9499 107.467 41.7868C107.385 41.6241 107.229 41.5439 107.002 41.5439C106.882 41.5439 106.748 41.5664 106.597 41.6116V44.6511H106.011V41.2061H106.009Z" fill="#444444"/>
<path d="M110.869 41.1783C110.988 41.129 111.112 41.0902 111.244 41.0608C111.375 41.0309 111.52 41.0168 111.675 41.0168C111.992 41.0168 112.253 41.1148 112.453 41.3116C112.654 41.5066 112.754 41.8108 112.754 42.2247V44.5756C112.589 44.6206 112.422 44.6563 112.252 44.6831C112.081 44.7098 111.913 44.7245 111.749 44.7245C111.586 44.7245 111.431 44.7035 111.288 44.6637C111.145 44.6227 111.019 44.5582 110.914 44.4675C110.805 44.3784 110.721 44.2634 110.657 44.126C110.593 43.9891 110.562 43.8218 110.562 43.6231C110.562 43.4379 110.59 43.2784 110.646 43.1415C110.703 43.0025 110.781 42.8887 110.882 42.7954C110.982 42.7041 111.1 42.6338 111.237 42.5877C111.373 42.5405 111.522 42.5169 111.681 42.5169C111.831 42.5169 111.999 42.5342 112.18 42.5704V42.2468C112.18 41.9855 112.128 41.8036 112.027 41.6986C111.924 41.5969 111.776 41.5439 111.586 41.5439C111.481 41.5439 111.381 41.5549 111.288 41.5754C111.194 41.5943 111.096 41.6278 110.991 41.6729L110.869 41.1783ZM111.149 43.6183C111.149 43.826 111.204 43.9792 111.314 44.0773C111.423 44.1764 111.579 44.2257 111.778 44.2257C111.901 44.2257 112.035 44.21 112.183 44.1785V43.0503C112.046 43.0146 111.911 42.9958 111.778 42.9958C111.692 42.9958 111.611 43.0067 111.532 43.0267C111.455 43.0472 111.388 43.0813 111.331 43.1284C111.275 43.1756 111.23 43.2391 111.198 43.3162C111.165 43.3964 111.149 43.4966 111.149 43.6183Z" fill="#444444"/>
<path d="M113.815 41.2061C113.982 41.1568 114.165 41.1149 114.362 41.0824C114.556 41.0477 114.736 41.032 114.901 41.032C115.078 41.032 115.24 41.0545 115.386 41.1018C115.531 41.149 115.657 41.2286 115.758 41.342C115.861 41.4537 115.94 41.6068 115.997 41.7978C116.054 41.9887 116.083 42.2253 116.083 42.51V44.6511H115.495V42.5562C115.495 42.2058 115.449 41.9499 115.358 41.7868C115.267 41.6241 115.097 41.5439 114.846 41.5439C114.713 41.5439 114.565 41.5664 114.402 41.6116V44.6511H113.815V41.2061Z" fill="#444444"/>
<path d="M117.439 40.4769C117.332 40.4769 117.243 40.4433 117.166 40.3725C117.091 40.3027 117.054 40.2094 117.054 40.0924C117.054 39.9759 117.091 39.8831 117.166 39.8129C117.243 39.7431 117.331 39.709 117.439 39.709C117.541 39.709 117.63 39.7431 117.707 39.8129C117.782 39.8831 117.82 39.9765 117.82 40.0924C117.82 40.2109 117.782 40.3027 117.707 40.3725C117.631 40.4423 117.542 40.4769 117.439 40.4769ZM117.731 44.6509H117.143V41.1037H117.731V44.6509Z" fill="#444444"/>
<path d="M119.377 41.1051H120.279V41.6049H119.377V43.5566C119.377 43.8015 119.421 43.9704 119.511 44.0691C119.6 44.1655 119.719 44.2132 119.871 44.2132C119.948 44.2132 120.022 44.2023 120.093 44.1797C120.163 44.1572 120.222 44.1304 120.274 44.0989L120.39 44.5652C120.202 44.6727 120.005 44.7283 119.796 44.7283C119.457 44.7283 119.207 44.6339 119.04 44.4477C118.874 44.2615 118.79 43.9521 118.79 43.5188V40.1531L119.377 40.0513V41.1051Z" fill="#444444"/>
<path d="M121.887 43.9156C122.018 43.4651 122.14 43.0119 122.249 42.5561C122.359 42.1024 122.463 41.6178 122.562 41.1038H123.145C123.076 41.4331 123.001 41.7567 122.924 42.0767C122.845 42.3967 122.762 42.7041 122.678 43.0019C122.595 43.2983 122.511 43.5794 122.427 43.8433C122.342 44.1065 122.264 44.3473 122.193 44.5624C122.106 44.8147 122.023 45.0281 121.942 45.2017C121.862 45.3738 121.775 45.5138 121.682 45.6203C121.587 45.7252 121.487 45.8023 121.376 45.8495C121.267 45.8988 121.138 45.9224 120.987 45.9224C120.904 45.9224 120.821 45.9114 120.739 45.8899C120.658 45.87 120.59 45.8484 120.535 45.8259L120.644 45.3538C120.762 45.4026 120.873 45.4289 120.979 45.4289C121.112 45.4289 121.218 45.3811 121.3 45.2867C121.382 45.1923 121.463 45.0512 121.54 44.8608L121.608 44.6924C121.521 44.4591 121.433 44.1983 121.345 43.913C121.256 43.6272 121.168 43.3292 121.084 43.0187C121.001 42.7061 120.919 42.3882 120.841 42.0631C120.764 41.7358 120.693 41.4179 120.63 41.1064H121.252C121.288 41.3188 121.331 41.5511 121.381 41.8024C121.433 42.0547 121.485 42.3064 121.542 42.5577C121.599 42.8105 121.658 43.0544 121.717 43.2909C121.775 43.5264 121.831 43.7341 121.887 43.9156Z" fill="#444444"/>
<path d="M36.2842 34.7674V18.7568H38.0208L42.0704 28.6559V18.7568H44.3845V34.7664H42.7387L38.5983 24.1168V34.7664L36.2842 34.7674Z" fill="#2F80ED"/>
<path d="M50.9697 34.9262C50.1561 34.9262 49.4576 34.805 48.8769 34.5617C48.2942 34.3167 47.8329 33.9606 47.4885 33.4886C47.1456 33.0185 46.8956 32.4673 46.738 31.8306C46.5825 31.1969 46.5039 30.4611 46.5039 29.6208V23.813C46.5039 22.9732 46.5814 22.241 46.738 21.6163C46.8956 20.9911 47.1461 20.4472 47.4885 19.9856C47.8324 19.5246 48.2947 19.1768 48.8769 18.945C49.4581 18.7126 50.1561 18.5962 50.9697 18.5962C52.5481 18.5962 53.6871 19.0436 54.3861 19.9368C55.0857 20.8301 55.4354 22.1219 55.4354 23.814V29.6208C55.4354 30.4485 55.3558 31.1786 55.196 31.8143C55.0353 32.449 54.7858 33.0039 54.4413 33.4744C54.0985 33.9496 53.6356 34.3099 53.0534 34.5564C52.4712 34.804 51.7764 34.9262 50.9697 34.9262ZM49.2824 32.3273C49.5934 32.8109 50.1561 33.0511 50.9697 33.0511C51.7828 33.0511 52.3443 32.8109 52.6559 32.3273C52.9653 31.8458 53.1208 31.1335 53.1208 30.192V23.2417C53.1208 22.3129 52.9669 21.6179 52.6607 21.1589C52.3523 20.7 51.7897 20.4708 50.9697 20.4708C50.1491 20.4708 49.5866 20.7005 49.2781 21.1589C48.9703 21.6179 48.817 22.3124 48.817 23.2417V30.192C48.817 31.1335 48.9725 31.8458 49.2824 32.3273Z" fill="#2F80ED"/>
<path d="M61.7294 34.9262C60.9157 34.9262 60.2173 34.805 59.6366 34.5617C59.0549 34.3167 58.5926 33.9606 58.2487 33.4886C57.9058 33.0185 57.6553 32.4673 57.4988 31.8306C57.3427 31.1969 57.2642 30.4611 57.2642 29.6208V23.813C57.2642 22.9732 57.3421 22.241 57.4988 21.6163C57.6553 20.9911 57.9058 20.4472 58.2487 19.9856C58.5926 19.5246 59.0554 19.1768 59.6366 18.945C60.2178 18.7126 60.9157 18.5962 61.7294 18.5962C63.3083 18.5962 64.4473 19.0436 65.1455 19.9368C65.8458 20.8301 66.1947 22.1219 66.1947 23.814V29.6208C66.1947 30.4485 66.1171 31.1786 65.9555 31.8143C65.7977 32.449 65.5457 33.0039 65.2026 33.4744C64.8595 33.9496 64.3959 34.3099 63.8147 34.5564C63.2303 34.804 62.5371 34.9262 61.7294 34.9262ZM60.0431 32.3273C60.3542 32.8109 60.9162 33.0511 61.7299 33.0511C62.5435 33.0511 63.1056 32.8109 63.4166 32.3273C63.7255 31.8458 63.8821 31.1335 63.8821 30.192V23.2417C63.8821 22.3129 63.7276 21.6179 63.4209 21.1589C63.113 20.7 62.551 20.4708 61.7299 20.4708C60.9109 20.4708 60.3462 20.7005 60.0384 21.1589C59.7322 21.6179 59.5777 22.3124 59.5777 23.2417V30.192C59.5782 31.1335 59.7327 31.8458 60.0431 32.3273Z" fill="#2F80ED"/>
<path d="M72.5339 34.9262C71.0768 34.9262 69.9634 34.5034 69.1951 33.6601C68.4275 32.8129 67.9946 31.6569 67.9054 30.192L70.2187 29.6208C70.3341 31.9072 71.1076 33.0511 72.5326 33.0511C73.6908 33.0511 74.2687 32.4799 74.2687 31.3354C74.2687 30.9961 74.2218 30.6814 74.1282 30.3929C74.0352 30.1044 73.8922 29.839 73.6979 29.5972C73.5055 29.3554 73.331 29.1624 73.1739 29.0171C73.0181 28.8713 72.8045 28.6914 72.532 28.4769L69.6402 26.1905C69.1105 25.7798 68.6872 25.2564 68.3698 24.6222C68.0536 23.9876 67.8945 23.2659 67.8945 22.456C67.8945 21.2764 68.2646 20.3381 69.0059 19.6415C69.748 18.945 70.7298 18.5962 71.9548 18.5962C73.2682 18.5962 74.3116 18.9135 75.0857 19.5476C75.8617 20.1818 76.3382 21.0797 76.5184 22.2415C76.5383 22.3664 76.5576 22.5394 76.5819 22.7597L74.268 23.3315C74.2616 23.2313 74.2475 23.0787 74.2238 22.8757C74.1224 22.1487 73.8884 21.567 73.5318 21.129C73.1733 20.6911 72.6468 20.4719 71.9528 20.4719C71.3981 20.4719 70.971 20.6255 70.6708 20.9324C70.3681 21.2392 70.2168 21.6662 70.2168 22.2143C70.2168 23.1143 70.6035 23.867 71.3763 24.4749L74.268 26.7623C75.8091 27.9959 76.5819 29.4698 76.5819 31.186C76.5819 32.3577 76.2164 33.2745 75.484 33.937C74.7522 34.5979 73.7697 34.9262 72.5339 34.9262Z" fill="#2F80ED"/>
<path d="M78.3677 34.7674V18.7568H82.4189C85.1189 18.7568 86.4695 20.2811 86.4695 23.3311C86.4695 24.635 86.1219 25.6295 85.4248 26.3103C84.7277 26.9937 83.7272 27.3341 82.4189 27.3341H80.6829V34.7674H78.3677ZM80.6822 25.6174H81.2613C81.7847 25.6174 82.2163 25.5875 82.5491 25.5283C82.8839 25.4695 83.1795 25.3583 83.4354 25.1931C83.6926 25.0294 83.8747 24.7961 83.987 24.4924C84.0992 24.1881 84.155 23.801 84.155 23.3306C84.155 22.7588 84.112 22.2947 84.0261 21.9416C83.9434 21.5876 83.7882 21.2965 83.5618 21.071C83.336 20.8439 83.0423 20.6886 82.6851 20.601C82.3266 20.5145 81.8526 20.471 81.2613 20.471H80.6822V25.6174Z" fill="#2F80ED"/>
<path d="M87.8721 34.7674V18.7568H90.1853V25.6174H94.2366V18.7568H96.5505V34.7664H94.2366V27.3341H90.186V34.7674H87.8721Z" fill="#2F80ED"/>
<path d="M98.957 34.7674V18.7568H105.321V20.4715H101.271V25.6179H104.164V27.3336H101.271V33.0507H105.321V34.7664H98.957V34.7674Z" fill="#2F80ED"/>
<path d="M106.833 34.7674V18.7568H109.728C111.452 18.7568 112.749 19.0868 113.623 19.7482C114.497 20.4106 114.934 21.5084 114.934 23.0447C114.934 23.9978 114.763 24.7966 114.419 25.4391C114.076 26.0831 113.572 26.5227 112.909 26.7613L115.512 34.7669H113.218L110.885 27.3336H109.148V34.7669L106.833 34.7674ZM109.147 25.6174H109.728C110.689 25.6174 111.415 25.4165 111.896 25.0142C112.379 24.6125 112.62 23.9558 112.62 23.0447C112.62 22.1342 112.379 21.477 111.896 21.0741C111.415 20.6724 110.691 20.4715 109.728 20.4715H109.147V25.6174Z" fill="#2F80ED"/>
<path d="M116.944 34.7674V18.7568H123.309V20.4715H119.259V25.6179H122.15V27.3336H119.259V33.0507H123.309V34.7664H116.944V34.7674Z" fill="#2F80ED"/>
<path d="M29.0345 0.253754C26.2146 0.253754 23.9292 2.51333 23.9292 5.29899C23.9292 8.08569 26.2146 10.3426 29.0345 10.3426C31.8533 10.3426 34.1377 8.08569 34.1377 5.29899C34.1377 2.51333 31.8533 0.253754 29.0345 0.253754ZM32.7195 2.2238C32.7519 2.2558 32.7832 2.29042 32.8124 2.32294C32.7864 2.29985 32.7572 2.27678 32.7291 2.25318C32.7237 2.24216 32.7153 2.22957 32.7084 2.21803C32.7121 2.2196 32.7169 2.2217 32.7195 2.2238ZM32.5163 2.03393C32.5794 2.09478 32.6404 2.15562 32.6994 2.21699C32.6288 2.1509 32.5534 2.08586 32.4722 2.02082C32.4876 2.02554 32.5019 2.02974 32.5163 2.03393ZM31.7042 1.71136C31.83 1.74807 31.9473 1.79004 32.0582 1.83462C32.0625 1.84039 32.0672 1.84668 32.072 1.85245C32.0083 1.83095 31.9431 1.81049 31.8741 1.79056C31.847 1.79895 31.8204 1.80682 31.7918 1.81521C31.8018 1.83462 31.8114 1.8535 31.8215 1.87291C31.8528 1.89704 31.8841 1.91749 31.9149 1.94004C31.8347 1.89441 31.7519 1.85088 31.6697 1.80577C31.6814 1.7743 31.6931 1.74283 31.7042 1.71136ZM31.6883 1.89598C31.6724 1.89651 31.6559 1.89441 31.64 1.89651C31.6389 1.8855 31.6389 1.87238 31.6341 1.86137C31.6511 1.87238 31.6713 1.8855 31.6883 1.89598ZM31.5651 1.49159C31.5752 1.5026 31.5874 1.51205 31.5965 1.52306C31.5524 1.50366 31.5089 1.48635 31.4632 1.46746C31.4982 1.47586 31.5322 1.4832 31.5651 1.49159ZM30.2558 1.11552C30.3508 1.1407 30.442 1.16587 30.5344 1.19472C30.4973 1.19 30.459 1.19 30.4203 1.1858C30.3545 1.1664 30.2839 1.14542 30.2149 1.12811C30.3036 1.1601 30.39 1.19787 30.4776 1.23616C30.4245 1.22724 30.3704 1.21989 30.3168 1.2115C30.328 1.21046 30.338 1.20574 30.3476 1.20311C30.3248 1.1921 30.3036 1.18161 30.2823 1.17007C30.2425 1.18108 30.2032 1.19472 30.1624 1.20836C30.1189 1.1921 30.0742 1.17322 30.0308 1.15538C30.027 1.15013 30.0217 1.14542 30.018 1.1407C30.0376 1.1407 30.0557 1.14122 30.0742 1.14122C30.027 1.12916 29.9793 1.11657 29.9331 1.10398C29.9224 1.09297 29.9119 1.08195 29.9039 1.06988C30.0217 1.083 30.1406 1.09716 30.2558 1.11552ZM29.0929 1.94634C29.0547 1.96994 29.0175 1.99407 28.9825 2.0182C29.008 2.02344 29.034 2.02921 29.0621 2.03603C29.086 2.06855 29.1131 2.0995 29.1391 2.13306C29.1433 2.16715 29.1492 2.20387 29.1502 2.23954C29.1906 2.25212 29.2293 2.26682 29.2675 2.2815C29.2346 2.303 29.2022 2.32294 29.1704 2.34549C29.1895 2.35126 29.2086 2.35546 29.2288 2.35965C29.2134 2.36647 29.2012 2.37591 29.1858 2.3843C29.0334 2.38955 28.8806 2.39374 28.7277 2.40319C28.8026 2.37119 28.879 2.34129 28.9538 2.31192C28.8981 2.303 28.8435 2.29199 28.7888 2.28412C28.8153 2.2773 28.8403 2.26839 28.8652 2.26104C28.8641 2.23639 28.8626 2.21069 28.862 2.18604C28.8923 2.18918 28.9263 2.19076 28.9576 2.19233C28.9692 2.17345 28.9846 2.15509 28.9953 2.13673C28.9772 2.12834 28.9576 2.12205 28.939 2.11418C28.949 2.10526 28.9576 2.09687 28.9676 2.08953C28.9342 2.09215 28.8992 2.09792 28.8641 2.10054C28.8721 2.08271 28.8774 2.06383 28.8864 2.04495C28.8573 2.0376 28.827 2.02974 28.7978 2.02135C28.8164 1.99144 28.8376 1.9647 28.8583 1.93689C28.836 1.9327 28.8148 1.92431 28.793 1.91907C28.8349 1.90071 28.8753 1.88235 28.9161 1.86242C28.9544 1.86294 28.9926 1.86556 29.0292 1.86714C29.0043 1.8855 28.9777 1.90071 28.9522 1.91749C29 1.92798 29.0457 1.93689 29.0929 1.94634ZM28.0675 1.52044C28.0441 1.52201 28.0192 1.52096 27.9953 1.52201C28.0351 1.50995 28.076 1.50103 28.1153 1.48739C28.077 1.48792 28.0394 1.48897 28.0012 1.48792C28.0351 1.47166 28.0691 1.45697 28.1031 1.44176C28.1232 1.44805 28.1444 1.45435 28.1668 1.45907C28.1609 1.46799 28.1535 1.47638 28.1498 1.48635C28.2495 1.46694 28.3515 1.44911 28.4544 1.43337C28.4895 1.45015 28.5255 1.46432 28.5627 1.48163C28.5383 1.49631 28.5165 1.51467 28.4937 1.5304C28.4067 1.54719 28.3202 1.56135 28.2342 1.57918C28.1673 1.57394 28.0983 1.56502 28.0309 1.5624C28.0473 1.55506 28.0664 1.55139 28.0829 1.54247C28.0786 1.5346 28.0733 1.52778 28.0675 1.52044ZM28.559 2.18079C28.5415 2.1724 28.524 2.16454 28.5059 2.15562C28.5165 2.14041 28.5266 2.12415 28.5383 2.10789C28.5637 2.10841 28.5882 2.10999 28.6157 2.11051C28.6274 2.09425 28.6365 2.07694 28.6486 2.06016C28.6933 2.06226 28.7405 2.06383 28.7872 2.06698C28.7941 2.08533 28.801 2.10211 28.8084 2.12048C28.7798 2.16454 28.7495 2.21069 28.7198 2.25685C28.6428 2.26786 28.5664 2.28203 28.4889 2.29303C28.4767 2.27783 28.4666 2.26 28.4528 2.24426C28.4879 2.22275 28.5234 2.20178 28.559 2.18079ZM26.1844 1.44648C26.1844 1.44334 26.1844 1.44072 26.1844 1.43704C26.2321 1.40767 26.2794 1.37882 26.3282 1.35259C26.3473 1.35365 26.3648 1.35627 26.3834 1.35732C26.3033 1.39771 26.2221 1.44176 26.1451 1.48582C26.1414 1.48477 26.1366 1.48372 26.1339 1.48372C26.1499 1.47114 26.1679 1.4596 26.1844 1.44648ZM26.2884 1.42603C26.2757 1.4276 26.2645 1.43284 26.2518 1.43704C26.2916 1.41659 26.3303 1.39403 26.3712 1.37462C26.3845 1.36571 26.3967 1.35522 26.4079 1.3463C26.3983 1.34735 26.3877 1.34998 26.3802 1.35417C26.3967 1.34368 26.4158 1.33214 26.4354 1.3227C26.4184 1.32795 26.4025 1.33319 26.3866 1.33791C26.3829 1.33791 26.3808 1.33214 26.376 1.33056C26.5171 1.26553 26.6647 1.20416 26.8218 1.15013C26.9598 1.11132 27.1026 1.07566 27.2544 1.04838C27.0633 1.10608 26.8781 1.17269 26.7024 1.24507C26.566 1.31011 26.4349 1.37882 26.3049 1.45225C26.2438 1.47376 26.1822 1.49369 26.125 1.51729C26.177 1.48635 26.2316 1.45487 26.2884 1.42603ZM26.0782 1.55715C26.1483 1.52673 26.2221 1.49788 26.2985 1.46799C26.2587 1.49107 26.2199 1.51467 26.1817 1.53722C26.1117 1.56397 26.0453 1.59545 25.9821 1.62691C25.9705 1.62954 25.9588 1.63478 25.9461 1.64055C25.97 1.62062 25.9933 1.60121 26.0177 1.58024C25.9975 1.59177 25.9769 1.59912 25.9557 1.61118C25.9646 1.60069 25.9721 1.5923 25.9806 1.58443C26.0108 1.56974 26.0411 1.55715 26.0724 1.54351C26.0751 1.54876 26.0782 1.55243 26.0782 1.55715ZM26.281 1.51887C26.2704 1.52778 26.2592 1.53722 26.2481 1.54772C26.2232 1.55821 26.1966 1.56712 26.1722 1.57918C26.1616 1.58076 26.1515 1.58548 26.1425 1.5881C26.1563 1.57656 26.1695 1.56502 26.1833 1.55401C26.2146 1.54142 26.2475 1.52936 26.281 1.51887ZM25.8904 1.60226C25.9233 1.58285 25.9599 1.56397 25.9933 1.54351C25.9975 1.54299 26.0013 1.54299 26.005 1.54194C25.9917 1.55191 25.9806 1.56345 25.9684 1.57342C25.997 1.55558 26.0236 1.53722 26.048 1.51939C26.057 1.51991 26.0628 1.51887 26.0708 1.51781C26.0246 1.54194 25.9816 1.56922 25.9371 1.59597C25.9195 1.60436 25.9004 1.6117 25.8829 1.61957C25.8925 1.6117 25.9015 1.60226 25.9137 1.59492C25.9068 1.59702 25.8999 1.59964 25.8904 1.60226ZM25.8171 1.66678C25.8256 1.66258 25.833 1.65681 25.8394 1.65261C25.833 1.65996 25.8245 1.6673 25.8171 1.6757C25.8086 1.67937 25.8028 1.68356 25.7948 1.68618C25.8023 1.68146 25.8102 1.67464 25.8171 1.66678ZM25.7672 1.71293C25.7768 1.70926 25.7853 1.70612 25.7959 1.70349C25.815 1.68933 25.833 1.67464 25.8516 1.65996C25.8686 1.65261 25.8845 1.64527 25.901 1.63688C25.8744 1.65996 25.8468 1.68041 25.8214 1.70297C25.8044 1.71136 25.789 1.72133 25.7736 1.73129C25.7762 1.725 25.7799 1.72028 25.7847 1.71451C25.771 1.72552 25.7571 1.73496 25.7428 1.7444C25.7513 1.73444 25.7603 1.72343 25.7672 1.71293ZM25.7433 1.78374C25.7253 1.80158 25.7073 1.81993 25.6903 1.83829C25.6632 1.85665 25.6367 1.87605 25.6096 1.89441C25.6112 1.8855 25.6112 1.87553 25.6133 1.86714C25.668 1.82361 25.7242 1.78269 25.7847 1.74125C25.763 1.75856 25.7433 1.77535 25.7237 1.79266C25.7311 1.79004 25.7375 1.78637 25.7433 1.78374ZM25.6404 1.80158C25.6595 1.78584 25.6801 1.7701 25.6993 1.75437C25.695 1.75909 25.6903 1.76381 25.6866 1.76906C25.695 1.76381 25.7067 1.76067 25.7157 1.75594C25.6977 1.7722 25.678 1.78637 25.6605 1.8021C25.6085 1.83882 25.5586 1.87868 25.5114 1.91801C25.5077 1.92116 25.5013 1.92378 25.4981 1.92536C25.5077 1.91487 25.5189 1.90595 25.5294 1.89389C25.5103 1.9091 25.4918 1.92326 25.4737 1.93952C25.5019 1.9091 25.5348 1.8813 25.5666 1.85298C25.5852 1.84196 25.6059 1.83147 25.626 1.82151C25.6303 1.81469 25.6361 1.80787 25.6404 1.80158ZM25.4493 1.95473C25.5019 1.90386 25.5581 1.85403 25.6175 1.80577C25.5628 1.8535 25.5098 1.89966 25.4594 1.94739C25.453 1.95211 25.4477 1.95683 25.4419 1.96155C25.4429 1.95893 25.4461 1.95683 25.4493 1.95473ZM25.2519 2.19076C25.2582 2.18027 25.2657 2.17345 25.2715 2.16401C25.2843 2.14984 25.2953 2.13411 25.3065 2.1189C25.3081 2.11733 25.3102 2.11523 25.3118 2.11418C25.3373 2.08271 25.3628 2.05334 25.3888 2.02239C25.3999 2.01295 25.4148 2.00456 25.4286 1.99564C25.3899 2.03288 25.3522 2.07275 25.3145 2.11103C25.3495 2.07537 25.3856 2.03813 25.4233 2.00246C25.4286 1.99669 25.4355 1.99092 25.4429 1.9862C25.4345 1.99512 25.427 2.00299 25.4201 2.01243C25.4471 1.98882 25.4774 1.96784 25.5072 1.94477C25.531 1.92274 25.5555 1.89913 25.582 1.87605C25.5921 1.87028 25.6027 1.86504 25.6133 1.8598C25.5915 1.87763 25.5693 1.89808 25.5475 1.91697C25.5262 1.93952 25.505 1.96155 25.4849 1.98462C25.4981 1.98096 25.5077 1.97519 25.5215 1.97256C25.4875 2.00141 25.4573 2.03184 25.427 2.06016C25.4148 2.0675 25.4005 2.07379 25.3888 2.08166C25.332 2.12677 25.2826 2.17502 25.2338 2.22433C25.2412 2.21488 25.2487 2.20649 25.254 2.19653C25.2444 2.20492 25.237 2.21331 25.2285 2.22066C25.2354 2.21017 25.2444 2.20072 25.2519 2.19076ZM25.2073 2.24688C25.211 2.24373 25.2136 2.24111 25.219 2.23744C25.2073 2.25212 25.195 2.26576 25.184 2.28045C25.1908 2.26891 25.1977 2.2579 25.2073 2.24688ZM25.306 8.43243C25.2927 8.41354 25.2789 8.39465 25.2657 8.37418C25.2763 8.38781 25.2869 8.39934 25.298 8.41138C25.3055 8.42298 25.3134 8.43661 25.3214 8.44764C25.3172 8.44238 25.3086 8.43819 25.306 8.43243ZM25.8627 8.1156C25.8516 8.12663 25.84 8.13709 25.8298 8.14862C25.7895 8.1303 25.7486 8.11243 25.7115 8.09411C25.6871 8.10197 25.6632 8.10876 25.6404 8.11611C25.6276 8.13449 25.6159 8.1523 25.6022 8.1696C25.6192 8.21631 25.6377 8.26403 25.6563 8.30966C25.6388 8.37577 25.626 8.43712 25.6159 8.49428C25.5931 8.48167 25.5693 8.47014 25.548 8.45759C25.5172 8.42818 25.4854 8.39985 25.4551 8.37051C25.496 8.41931 25.5342 8.46912 25.5746 8.51685C25.5836 8.53941 25.5926 8.5614 25.6 8.58238C25.5767 8.57141 25.5528 8.56039 25.531 8.54828C25.5114 8.53256 25.4918 8.51634 25.4711 8.50056C25.4944 8.53307 25.5172 8.56457 25.5395 8.59658C25.5124 8.57661 25.487 8.5562 25.461 8.53675C25.4737 8.55354 25.4881 8.56932 25.5013 8.58713C25.5183 8.60393 25.5369 8.62174 25.5528 8.64062C25.5528 8.64062 25.5501 8.64113 25.5496 8.64221C25.5485 8.64538 25.5485 8.64747 25.5459 8.65007C25.5565 8.66109 25.5661 8.67364 25.5756 8.68518C25.5703 8.68942 25.5661 8.69151 25.5634 8.69519C25.5963 8.72872 25.6297 8.76282 25.6642 8.79748C25.6642 8.80325 25.6658 8.80953 25.6658 8.81529C25.6738 8.82524 25.6834 8.83519 25.6913 8.84571L25.6887 8.84521C25.5783 8.74133 25.4774 8.63017 25.3792 8.51685C25.384 8.5247 25.3899 8.53364 25.3951 8.5415C25.3867 8.52997 25.3781 8.51843 25.3692 8.5074C25.3617 8.49904 25.3543 8.49168 25.3463 8.48433C25.3431 8.47857 25.34 8.47381 25.3373 8.47014C25.3415 8.4754 25.3479 8.48015 25.3517 8.48484C25.3575 8.49219 25.3638 8.50005 25.3692 8.5074C25.3713 8.51 25.375 8.51368 25.3792 8.51685C25.3702 8.50632 25.3633 8.49536 25.3554 8.48433C25.3352 8.45702 25.3155 8.42926 25.297 8.40093C25.289 8.39408 25.28 8.38679 25.2726 8.37836C25.2619 8.36632 25.254 8.35422 25.2455 8.34116C25.2126 8.29338 25.1802 8.24565 25.1489 8.19533C25.1255 8.1497 25.1033 8.10248 25.0804 8.05267C25.0395 7.97712 24.9987 7.89948 24.9605 7.82083C24.9122 7.7065 24.8681 7.58481 24.8262 7.45837C24.8034 7.39651 24.7811 7.3351 24.7598 7.27166C24.6962 7.16937 24.6372 7.06657 24.5847 6.96377C24.5385 6.83315 24.4934 6.70151 24.4557 6.56935C24.4313 6.50536 24.4112 6.44136 24.3899 6.3779C24.383 6.34119 24.3761 6.30656 24.3713 6.2709C24.3729 6.2515 24.3745 6.23209 24.3772 6.2132C24.3713 6.19485 24.3645 6.17911 24.3602 6.16076C24.357 6.13401 24.3543 6.10725 24.3506 6.08208C24.3543 6.06529 24.3543 6.04903 24.357 6.03173C24.365 5.96826 24.3745 5.90322 24.3878 5.83766C24.3772 5.73486 24.3697 5.63258 24.3634 5.52925C24.357 5.51194 24.3501 5.49516 24.3454 5.47732C24.3379 5.49201 24.3326 5.5067 24.3284 5.5219C24.3305 5.53764 24.3326 5.55233 24.3352 5.56701C24.3315 5.57278 24.3273 5.5775 24.3235 5.58432C24.3235 5.57121 24.3235 5.55914 24.3225 5.54603C24.3098 5.52243 24.2986 5.49988 24.2853 5.47837C24.2817 5.44585 24.2817 5.41176 24.2769 5.37924C24.2742 5.37924 24.27 5.38134 24.27 5.38134C24.27 5.35616 24.27 5.33046 24.27 5.30371C24.27 5.25441 24.2572 5.20668 24.254 5.15895C24.2477 5.15685 24.2392 5.15317 24.2344 5.15108C24.2248 5.09391 24.2153 5.03831 24.2105 4.98428C24.2057 4.99163 24.1999 4.99792 24.1973 5.00526C24.1941 4.99583 24.1909 4.98586 24.1893 4.97694C24.1893 4.96645 24.1893 4.95806 24.1882 4.94704C24.1925 4.8668 24.1994 4.78497 24.2089 4.7042C24.3109 3.81463 24.667 2.97542 25.177 2.28884C25.1845 2.28255 25.1908 2.27521 25.1977 2.26996C25.2195 2.24793 25.2444 2.228 25.2678 2.20859C25.2747 2.2002 25.2821 2.19181 25.2895 2.18289C25.2885 2.18394 25.2859 2.18394 25.2843 2.18394C25.3092 2.15824 25.3384 2.13149 25.3681 2.10736C25.3745 2.10736 25.3797 2.11261 25.3867 2.11261C25.4031 2.10107 25.4196 2.09058 25.4366 2.07851C25.4562 2.0612 25.4753 2.0418 25.4954 2.02135C25.4918 2.02135 25.4875 2.01977 25.4849 2.01977C25.5077 1.99879 25.531 1.97886 25.5555 1.95788C25.5555 1.9647 25.5555 1.97256 25.5523 1.98043C25.539 1.99407 25.5226 2.00456 25.5082 2.01714C25.5008 2.02659 25.4918 2.03393 25.4843 2.0439C25.4854 2.0439 25.487 2.04705 25.4881 2.04757C25.5315 2.00614 25.5756 1.9668 25.6197 1.92536C25.6175 1.92116 25.6138 1.91644 25.6117 1.91277C25.6472 1.88287 25.6828 1.85298 25.7168 1.82255C25.7439 1.79528 25.772 1.76853 25.8006 1.74231C25.8267 1.72185 25.8569 1.70297 25.8867 1.68409C25.9031 1.67674 25.9212 1.66835 25.9387 1.6631C25.8856 1.69825 25.8335 1.73444 25.7815 1.77063C25.7704 1.78164 25.7582 1.79371 25.7439 1.80367C25.7365 1.81993 25.7263 1.83619 25.7195 1.85245C25.7041 1.86556 25.6887 1.87553 25.6733 1.88812C25.6722 1.89861 25.6717 1.907 25.6722 1.91539C25.6887 1.89913 25.7104 1.8855 25.7295 1.86871C25.7083 1.89441 25.6887 1.91959 25.6712 1.94791C25.6987 1.92431 25.7295 1.90176 25.7608 1.87815C25.7863 1.8514 25.8139 1.82518 25.8405 1.79843C25.8601 1.79109 25.8808 1.78217 25.901 1.77377C25.9063 1.77482 25.9142 1.77482 25.9206 1.77587C25.8872 1.80367 25.8532 1.82937 25.8209 1.8577C25.8272 1.85717 25.8357 1.85455 25.8415 1.85403C25.7943 1.88812 25.7486 1.92378 25.7036 1.95841C25.6834 1.96522 25.6637 1.97309 25.6457 1.98096C25.6462 1.98358 25.6462 1.9862 25.6467 1.9883C25.6186 2.01295 25.5915 2.03813 25.5634 2.06435C25.4429 2.16401 25.3309 2.26786 25.2274 2.37329C25.1956 2.41105 25.1643 2.44934 25.1325 2.48763C25.1378 2.48763 25.1451 2.48816 25.1494 2.48868C25.1292 2.5191 25.1106 2.55057 25.0905 2.57994C25.1043 2.56788 25.116 2.55529 25.1303 2.54218C25.1457 2.55477 25.1584 2.56735 25.1744 2.58204C25.1919 2.5747 25.2115 2.56735 25.2295 2.56001C25.2009 2.6025 25.1701 2.64499 25.1409 2.68747C25.1325 2.71474 25.1298 2.74254 25.1255 2.77139C25.1521 2.74254 25.1786 2.71369 25.2041 2.68537C25.229 2.63974 25.2524 2.59515 25.2768 2.55162C25.3209 2.5128 25.3654 2.47347 25.41 2.43361C25.4366 2.3927 25.4615 2.35178 25.4907 2.3114C25.487 2.3072 25.4833 2.30248 25.4801 2.29881C25.5045 2.27783 25.5278 2.25527 25.5512 2.23482C25.5884 2.18866 25.625 2.14145 25.6584 2.09635C25.7036 2.07432 25.7481 2.05281 25.7959 2.03184C25.806 2.03708 25.815 2.04442 25.8224 2.05177C25.8144 2.05858 25.8055 2.0654 25.7996 2.07275C25.8166 2.07117 25.8341 2.0675 25.8516 2.0654C25.8256 2.09687 25.8012 2.12677 25.7741 2.15614C25.7757 2.17136 25.7768 2.18656 25.7794 2.20072C25.8458 2.14565 25.9163 2.09215 25.987 2.04023C25.9753 2.08953 25.9636 2.13988 25.953 2.19233C25.9339 2.20912 25.9153 2.22748 25.8967 2.24636C25.8999 2.26052 25.9026 2.27521 25.9052 2.29042C25.9291 2.29671 25.9551 2.303 25.9811 2.30877C25.9646 2.31821 25.9498 2.32556 25.9328 2.33605C25.9514 2.34758 25.971 2.36228 25.9891 2.37539C25.9763 2.39846 25.962 2.41944 25.9471 2.44147C25.8633 2.49655 25.7762 2.55162 25.6955 2.60932C25.6106 2.63135 25.531 2.65599 25.4551 2.6817C25.3649 2.76614 25.2784 2.85269 25.1956 2.93766C25.2391 2.8957 25.2826 2.85269 25.3299 2.81282C25.3739 2.78083 25.4228 2.74988 25.4721 2.72104C25.4737 2.73363 25.4758 2.74674 25.4779 2.7588C25.4488 2.77401 25.4185 2.78922 25.3899 2.80758C25.4016 2.81021 25.4153 2.81021 25.4275 2.81387C25.41 2.84639 25.3946 2.87996 25.3792 2.91196C25.3989 2.91196 25.4175 2.913 25.4366 2.91615C25.4265 2.90461 25.4159 2.89045 25.4042 2.87996C25.4291 2.87524 25.453 2.87367 25.4785 2.86947C25.4647 2.88468 25.4509 2.89937 25.4371 2.91563C25.4466 2.91615 25.4541 2.91615 25.4641 2.9172C25.4923 2.88573 25.5178 2.85688 25.5432 2.82594C25.5422 2.84482 25.5406 2.8637 25.5385 2.88311C25.4366 2.95706 25.3394 3.03155 25.246 3.10707C25.2476 3.09344 25.2487 3.08032 25.2487 3.06826C25.2853 3.03469 25.3225 2.99955 25.3585 2.96546C25.3548 2.96126 25.3506 2.95654 25.3479 2.95234C25.2641 3.01476 25.1829 3.0756 25.1075 3.13907C25.0857 3.17211 25.0629 3.20253 25.0411 3.23611C25.0448 3.24764 25.0459 3.26075 25.0475 3.27229C25.0014 3.30166 24.9562 3.33104 24.9149 3.35989C24.8946 3.39503 24.823 3.43122 24.805 3.46794C24.7986 3.47318 24.7609 3.47947 24.7418 3.48524C24.7535 3.50045 24.7705 3.51567 24.7678 3.53192C24.7524 3.55815 24.762 3.58647 24.7455 3.61585C24.7508 3.59958 24.7593 3.58437 24.7673 3.56916C24.7678 3.56497 24.7684 3.56077 24.7694 3.55658C24.7827 3.5335 24.7927 3.50779 24.8065 3.48419C24.8124 3.47842 24.8097 3.47161 24.8151 3.46636C24.8018 3.4994 24.7832 3.53402 24.7668 3.56916C24.7572 3.61637 24.7477 3.66462 24.7386 3.71235C24.736 3.71235 24.7349 3.71235 24.7323 3.71235C24.7275 3.72337 24.7232 3.73438 24.7185 3.7454C24.6617 3.81831 24.6107 3.88964 24.5635 3.96202C24.547 3.99559 24.5306 4.02758 24.5178 4.06115C24.4998 4.14507 24.4865 4.23109 24.4743 4.31606C24.4605 4.35592 24.4499 4.39683 24.4387 4.43565C24.4377 4.39632 24.4377 4.35435 24.4361 4.31606C24.4446 4.27358 24.4541 4.23214 24.4605 4.18966C24.4632 4.1692 24.4605 4.14979 24.4632 4.13143C24.4531 4.14088 24.4441 4.15189 24.4345 4.16185C24.4345 4.1456 24.4356 4.13039 24.435 4.11518C24.4255 4.12514 24.4154 4.13301 24.4079 4.14245C24.4005 4.13983 24.3936 4.13563 24.3872 4.13248C24.3841 4.14193 24.382 4.15137 24.3783 4.16028C24.3825 4.15818 24.3872 4.15609 24.391 4.15399C24.3851 4.17602 24.3799 4.19648 24.374 4.2185C24.3682 4.21588 24.3613 4.21693 24.3549 4.21693C24.357 4.20487 24.3586 4.19176 24.3586 4.17969C24.347 4.19176 24.3374 4.20644 24.3262 4.2185C24.3289 4.21011 24.33 4.20224 24.3315 4.19385C24.3151 4.23843 24.2986 4.28249 24.2853 4.32707C24.2631 4.42674 24.2456 4.52534 24.2302 4.62448C24.2243 4.68322 24.2174 4.74301 24.2148 4.80333C24.2153 4.82326 24.2158 4.84424 24.2174 4.86417C24.2286 4.85735 24.2355 4.85264 24.2461 4.84582C24.2535 4.79389 24.2647 4.74406 24.2763 4.69161C24.2859 4.68846 24.2986 4.68636 24.3103 4.6806C24.2859 4.78969 24.2647 4.89722 24.2498 5.00212C24.2514 5.01104 24.2535 5.01943 24.2551 5.02782C24.2663 5.02415 24.2806 5.021 24.2912 5.0168C24.2971 5.03411 24.3013 5.05247 24.3082 5.06926C24.2992 5.15108 24.2939 5.23133 24.2864 5.31315C24.2933 5.36036 24.2976 5.40861 24.305 5.45844C24.3183 5.45319 24.3347 5.44952 24.3491 5.44533C24.3618 5.48728 24.374 5.52977 24.3888 5.57278C24.3968 5.51194 24.4069 5.45005 24.4186 5.38711C24.4298 5.38449 24.4408 5.38186 24.4536 5.37714C24.4664 5.35144 24.4818 5.32784 24.4961 5.30214C24.4982 5.31157 24.5024 5.31945 24.5051 5.32784C24.4993 5.34095 24.4918 5.35197 24.4881 5.3656C24.4865 5.42173 24.487 5.47889 24.4876 5.53607C24.4913 5.53344 24.495 5.53082 24.4993 5.52872C24.4982 5.48939 24.4966 5.44952 24.4961 5.40914C24.5061 5.38343 24.5205 5.35826 24.5343 5.33151C24.5449 5.37661 24.5565 5.42173 24.5704 5.46736C24.5953 5.48361 24.625 5.49935 24.6516 5.51509C24.6712 5.51037 24.6903 5.50512 24.7121 5.5004C24.7116 5.49988 24.7115 5.49988 24.7115 5.49988C24.7195 5.49725 24.7285 5.49673 24.7376 5.49463C24.728 5.49673 24.7211 5.49778 24.7121 5.50092C24.7169 5.5219 24.7232 5.54131 24.7285 5.56177C24.7428 5.56964 24.7551 5.58222 24.7694 5.58904C24.7694 5.61684 24.7678 5.64359 24.7668 5.67034C24.7742 5.66929 24.7827 5.66929 24.7906 5.6651C24.8081 5.69552 24.8246 5.72436 24.8426 5.75584C24.8426 5.77629 24.8426 5.79727 24.8426 5.81668C24.8612 5.84343 24.8782 5.86965 24.8968 5.89588C24.9366 5.91633 24.9785 5.93889 25.0226 5.95987C25.0581 6.01652 25.0953 6.07473 25.1303 6.13243C25.1399 6.18383 25.1484 6.23576 25.1568 6.28768C25.1648 6.29293 25.1738 6.29975 25.1829 6.30499C25.1648 6.3737 25.15 6.44136 25.1325 6.50798C25.1414 6.5043 25.1478 6.50011 25.1553 6.49696C25.1611 6.51427 25.1648 6.53211 25.1701 6.55046C25.1691 6.51952 25.1691 6.49067 25.1691 6.46025C25.1876 6.4613 25.2083 6.46025 25.229 6.4613C25.2381 6.46864 25.246 6.47441 25.254 6.48228C25.2545 6.51427 25.2556 6.54574 25.2572 6.57826C25.2609 6.56043 25.2619 6.54312 25.2662 6.52424C25.281 6.52424 25.2948 6.52529 25.3071 6.52529C25.3474 6.55938 25.3872 6.59244 25.4259 6.62596C25.4323 6.66114 25.4387 6.69733 25.4445 6.73193C25.461 6.72933 25.4774 6.723 25.4944 6.7204C25.5523 6.74873 25.6117 6.77807 25.6759 6.80539C25.7316 6.88246 25.7927 6.95749 25.8532 7.03247C25.8824 7.0461 25.9121 7.05871 25.9408 7.07284C25.9609 7.15207 25.9795 7.2297 25.9986 7.30683C25.9381 7.41115 25.8829 7.51085 25.833 7.60579C25.8452 7.70174 25.8622 7.79567 25.8776 7.88693C25.8723 7.96451 25.8664 8.04164 25.8627 8.1156ZM25.5979 2.07222C25.5671 2.0953 25.5364 2.11838 25.5077 2.14303C25.5151 2.13411 25.522 2.12624 25.5299 2.11733C25.5188 2.12415 25.5077 2.12834 25.4981 2.13463C25.5518 2.08219 25.6096 2.02974 25.668 1.97886C25.6701 1.99669 25.6759 2.01662 25.678 2.03708C25.6632 2.04914 25.6494 2.06016 25.6335 2.07117C25.6218 2.07117 25.6096 2.0696 25.5979 2.07222ZM25.6329 2.10631C25.6154 2.12362 25.5973 2.13988 25.5798 2.15614C25.5915 2.14355 25.599 2.13044 25.6096 2.11733C25.617 2.11366 25.626 2.10999 25.6329 2.10631ZM25.3188 2.48081C25.3309 2.4698 25.3431 2.45825 25.3548 2.44619C25.3479 2.45196 25.3421 2.45564 25.3341 2.46088C25.3468 2.45039 25.3596 2.43937 25.3718 2.42889C25.3596 2.44514 25.3468 2.46088 25.3352 2.47767C25.341 2.4698 25.3468 2.46193 25.3522 2.45301C25.341 2.46298 25.3309 2.47189 25.3188 2.48081ZM25.1781 2.65967C25.1744 2.66701 25.1707 2.67488 25.167 2.6817C25.1611 2.68117 25.1542 2.68012 25.1489 2.68012C25.1579 2.6733 25.1686 2.66596 25.1781 2.65967ZM25.8452 2.57417C25.8452 2.58834 25.8468 2.6025 25.8468 2.61718C25.8707 2.61247 25.8935 2.60932 25.919 2.60774C25.9052 2.62453 25.8909 2.64236 25.8792 2.66072C25.8893 2.65599 25.902 2.65338 25.9142 2.64865C25.8888 2.67016 25.8664 2.69219 25.8415 2.71212C25.858 2.70215 25.8766 2.69114 25.8935 2.68117C25.8729 2.71264 25.8527 2.74621 25.8341 2.77926C25.8214 2.77768 25.8081 2.77716 25.7959 2.77611C25.8044 2.76562 25.815 2.75408 25.8235 2.74359C25.7996 2.75775 25.7736 2.77244 25.7481 2.7866C25.7412 2.78608 25.7338 2.78869 25.7263 2.78765C25.7402 2.77296 25.755 2.75933 25.7688 2.74464C25.7152 2.75618 25.6669 2.76667 25.6181 2.77768C25.6229 2.76772 25.6281 2.75933 25.6308 2.74936C25.7104 2.66649 25.7906 2.58152 25.8739 2.49865C25.8925 2.49025 25.9121 2.48028 25.9312 2.47242C25.8856 2.51595 25.8421 2.56159 25.8001 2.60459C25.8166 2.59411 25.8298 2.58362 25.8452 2.57417ZM24.6861 4.91977C24.6702 4.92239 24.6574 4.92869 24.6425 4.93079C24.6436 4.91872 24.6452 4.90771 24.6468 4.89564C24.6617 4.90298 24.6728 4.9098 24.6861 4.91977ZM24.4298 4.78288C24.4345 4.76399 24.4387 4.74564 24.4446 4.72833C24.4414 4.72675 24.4356 4.72833 24.4303 4.72675C24.4298 4.70734 24.4276 4.68794 24.4276 4.66801C24.4117 4.6549 24.3984 4.64388 24.3836 4.63181C24.3867 4.62342 24.3904 4.61556 24.3915 4.60664C24.3862 4.60402 24.3814 4.60087 24.3761 4.59615C24.3623 4.61556 24.3496 4.63234 24.3379 4.64965C24.3464 4.62815 24.3564 4.60769 24.3666 4.58775C24.3772 4.57884 24.3899 4.57202 24.3995 4.56415C24.426 4.63181 24.4584 4.7 24.4977 4.77186C24.4743 4.77343 24.452 4.7792 24.4298 4.78288ZM24.4371 4.9161C24.4271 4.90718 24.4138 4.89879 24.4032 4.8904C24.4074 4.88201 24.4101 4.87676 24.4138 4.86942C24.4228 4.8841 24.4298 4.90089 24.4371 4.9161ZM24.5215 4.87728C24.5189 4.85158 24.5131 4.82483 24.5077 4.79913C24.5131 4.79441 24.5141 4.78864 24.5162 4.78445C24.5406 4.79022 24.5635 4.79966 24.5895 4.80648C24.5975 4.8348 24.6064 4.86365 24.616 4.89249C24.6118 4.90246 24.608 4.91295 24.6049 4.92292C24.59 4.91295 24.5751 4.90456 24.5624 4.89459C24.5529 4.91348 24.5428 4.93131 24.5348 4.95019C24.5306 4.93761 24.5306 4.92607 24.5285 4.914C24.5093 4.90508 24.4913 4.89774 24.4754 4.8883C24.4913 4.88568 24.5061 4.87938 24.5215 4.87728ZM26.0066 9.10588C25.9933 9.09485 25.979 9.08383 25.9657 9.07388C25.9588 9.06602 25.9508 9.05816 25.9434 9.05182C25.9508 9.05607 25.9588 9.06285 25.9662 9.06602C25.9917 9.08541 26.0166 9.10379 26.0432 9.12369C26.031 9.11792 26.0193 9.11165 26.0066 9.10588ZM26.2444 1.78374C26.2295 1.77167 26.2152 1.75961 26.2024 1.74755C26.1892 1.76119 26.1738 1.77325 26.1589 1.78584C26.1589 1.80944 26.1595 1.83462 26.1605 1.8598C26.1329 1.8771 26.1026 1.89284 26.074 1.91225C26.0549 1.907 26.0347 1.90176 26.0156 1.89861C26.0204 1.91487 26.0246 1.93323 26.031 1.94949C26.0071 1.95998 25.9827 1.96994 25.9599 1.97938C25.9381 1.96365 25.9185 1.95106 25.8993 1.93689C25.8527 1.94739 25.8076 1.96102 25.763 1.97256C25.7863 1.95368 25.8118 1.93532 25.8352 1.91644C25.8744 1.89756 25.9158 1.87815 25.9567 1.86084C25.9567 1.85455 25.9551 1.85088 25.9551 1.84458C25.9965 1.81783 26.0358 1.79108 26.0777 1.76591C26.0862 1.75279 26.0952 1.74073 26.1053 1.72919C26.0989 1.72185 26.0931 1.71608 26.0867 1.70979C26.0697 1.7208 26.0522 1.73129 26.0352 1.74178C26.048 1.72972 26.0644 1.71608 26.0803 1.70506C26.0745 1.69877 26.0681 1.693 26.0628 1.68723C26.0336 1.70402 26.0077 1.72237 25.9806 1.74125C25.9339 1.75752 25.8888 1.77167 25.8473 1.79004C25.8415 1.77955 25.8352 1.76958 25.8304 1.76067C25.8898 1.71555 25.9519 1.6715 26.0156 1.62744C26.0406 1.6159 26.0649 1.60331 26.0926 1.59124C26.0528 1.6159 26.014 1.64055 25.9732 1.66678C25.9615 1.67831 25.9487 1.69091 25.9344 1.70297C25.9355 1.70454 25.9392 1.70506 25.9397 1.70769C25.9646 1.68723 25.9859 1.66782 26.0092 1.64685C26.0448 1.62587 26.0803 1.60436 26.1186 1.58181C26.1297 1.57761 26.1446 1.57446 26.1573 1.56869C26.1302 1.5902 26.1059 1.61327 26.0798 1.6353C26.1488 1.60121 26.221 1.56974 26.2958 1.5388C26.2836 1.54981 26.2736 1.55978 26.2635 1.57132C26.2836 1.56607 26.307 1.56135 26.3298 1.55715C26.3426 1.56607 26.358 1.57342 26.3723 1.58181C26.3622 1.5902 26.3505 1.59702 26.3394 1.60436C26.3442 1.60751 26.3505 1.61275 26.3537 1.61327C26.3293 1.62797 26.3027 1.64265 26.2778 1.65786C26.3043 1.65367 26.3293 1.64894 26.3553 1.64579C26.3744 1.65367 26.3935 1.6652 26.4131 1.6757C26.3574 1.70926 26.2995 1.74755 26.2444 1.78374ZM25.9381 1.82361C25.9424 1.81731 25.9492 1.80944 25.953 1.80367C25.9716 1.79056 25.9886 1.77902 26.0056 1.76591C26.0161 1.76486 26.0257 1.76381 26.0363 1.76276C26.0172 1.77588 25.9986 1.79109 25.9795 1.80419C25.9657 1.81049 25.9519 1.81679 25.9381 1.82361ZM27.118 1.65629C27.0808 1.67517 27.0431 1.69091 27.0049 1.70873C27.0017 1.72028 27.0002 1.73076 26.9965 1.74178C26.9333 1.78531 26.8706 1.8278 26.8086 1.87291C26.7565 1.8556 26.704 1.84249 26.6525 1.82728C26.66 1.75961 26.6716 1.69405 26.6806 1.63268C26.7173 1.59702 26.756 1.56345 26.7921 1.5283C26.8431 1.50366 26.8977 1.479 26.9487 1.45487C26.9524 1.44596 26.9555 1.43966 26.9588 1.43284C26.9078 1.44596 26.8568 1.4596 26.808 1.47323C26.8345 1.45487 26.8611 1.43599 26.8881 1.41711C26.921 1.41344 26.9524 1.40977 26.9858 1.40714C26.9789 1.39508 26.9731 1.38354 26.9688 1.372C26.9354 1.37935 26.9041 1.38721 26.8717 1.39456C26.9067 1.36781 26.9402 1.34053 26.9741 1.31483C26.9768 1.29543 26.9795 1.27654 26.9842 1.25713C26.8765 1.27759 26.7741 1.30067 26.6748 1.32585C26.6684 1.32585 26.6637 1.32689 26.6568 1.32585C26.6684 1.32165 26.6796 1.31641 26.6918 1.31168C26.6748 1.31221 26.6568 1.31483 26.6408 1.31641C26.6748 1.30434 26.7083 1.29175 26.7433 1.27812C26.7125 1.28022 26.6817 1.28546 26.652 1.28861C26.7454 1.25189 26.8393 1.2157 26.9396 1.1837C26.962 1.17059 26.9853 1.16063 27.0097 1.14856C26.9837 1.15486 26.9545 1.1622 26.9275 1.16902C27.015 1.1365 27.1042 1.1045 27.1933 1.07408C27.4077 1.01848 27.6302 0.973379 27.8599 0.93771C28.0564 0.91201 28.2586 0.898371 28.4661 0.891032C28.5467 0.895753 28.6295 0.900469 28.7123 0.907814C28.688 0.910964 28.6614 0.912536 28.6375 0.916732C28.7023 0.917258 28.7681 0.920927 28.8328 0.924597C28.8902 0.93089 28.9506 0.935612 29.008 0.942431C28.8838 0.955018 28.7575 0.974424 28.6317 0.994357C28.6269 1.01429 28.6227 1.03527 28.6195 1.0552C28.5749 1.0573 28.5308 1.05573 28.4873 1.05835C28.5064 1.06831 28.525 1.07618 28.5452 1.08615C28.5266 1.09716 28.508 1.10765 28.4873 1.11919C28.5086 1.11867 28.5261 1.12024 28.5452 1.11919C28.4995 1.12653 28.4534 1.13335 28.4072 1.1407C28.4183 1.14752 28.4316 1.15171 28.4433 1.15905C28.4114 1.16587 28.3811 1.17374 28.3509 1.17951C28.3429 1.19 28.335 1.20049 28.3254 1.20993C28.2894 1.20416 28.2538 1.20154 28.2177 1.19839C28.2501 1.21098 28.284 1.22252 28.3186 1.23406C28.3074 1.24612 28.2957 1.25766 28.283 1.26815C28.2331 1.26448 28.1832 1.25609 28.1322 1.25084C28.1062 1.26291 28.0856 1.27654 28.0585 1.28913C28.1052 1.29333 28.1524 1.29647 28.1991 1.30067C28.0303 1.33162 27.8648 1.36466 27.7013 1.40295C27.6195 1.43599 27.5404 1.47061 27.4598 1.50523C27.3648 1.52673 27.2719 1.55086 27.179 1.57499C27.1604 1.60226 27.1381 1.62849 27.118 1.65629ZM31.8948 8.26143C31.8836 8.27347 31.8735 8.28393 31.864 8.29604C31.8608 8.29078 31.856 8.28184 31.8533 8.27715C31.7318 8.47121 31.6071 8.65374 31.4786 8.82474C31.4685 8.83469 31.459 8.84362 31.4484 8.85357C31.4081 8.86561 31.3672 8.87614 31.3253 8.88875C31.3178 8.87772 31.312 8.86619 31.304 8.85465C31.3162 8.81054 31.3321 8.76598 31.3465 8.71985C31.3836 8.67941 31.4213 8.6417 31.4595 8.59917C31.4723 8.55094 31.485 8.50056 31.4972 8.45024C31.5206 8.42349 31.5413 8.39725 31.563 8.36892C31.6336 8.33064 31.7021 8.29078 31.7705 8.24882C31.7838 8.22366 31.7939 8.19901 31.8067 8.17327C31.8247 8.16649 31.8433 8.15806 31.8613 8.15071C31.8809 8.11928 31.9006 8.08727 31.9223 8.05526C31.9133 8.12555 31.9054 8.19533 31.8948 8.26143ZM33.4355 6.58456C33.4281 6.58927 33.4196 6.59345 33.4132 6.59922C33.4186 6.55518 33.4254 6.51112 33.4291 6.46445C33.4387 6.42615 33.445 6.38734 33.4552 6.34643C33.4573 6.3543 33.461 6.36007 33.4636 6.36636C33.4652 6.40832 33.4652 6.44766 33.4674 6.48805C33.4567 6.51951 33.4456 6.55203 33.4355 6.58456ZM33.8532 5.64726C33.8473 5.73381 33.8373 5.8214 33.8272 5.90689C33.8102 6.04012 33.7858 6.16967 33.7587 6.29975C33.7418 6.38052 33.6929 6.45972 33.6547 6.53788C33.6574 6.53945 33.6605 6.54103 33.6626 6.54207C33.659 6.59137 33.6553 6.64067 33.6483 6.68738C33.6499 6.69891 33.6494 6.71095 33.6494 6.72148C33.6255 6.79328 33.6027 6.86515 33.5756 6.93595C33.5947 6.86623 33.6133 6.79385 33.6255 6.7204C33.6335 6.669 33.6388 6.615 33.6436 6.56148C33.6319 6.5877 33.6213 6.61392 33.6133 6.63908C33.6096 6.65277 33.5401 6.66431 33.5401 6.67844C33.5401 6.6664 33.5401 6.65696 33.5401 6.64644C33.5401 6.58246 33.6276 6.51637 33.6404 6.45028C33.6414 6.42773 33.6733 6.4036 33.6733 6.38C33.6903 6.29608 33.72 6.21268 33.7349 6.12876C33.7423 6.05533 33.7561 5.98242 33.7603 5.90951C33.7603 5.8964 33.7614 5.88486 33.7614 5.8728C33.754 5.89588 33.7492 5.92 33.7428 5.94309C33.7402 5.93679 33.7365 5.93102 33.7343 5.92473C33.7386 5.86808 33.7444 5.81196 33.7465 5.75584C33.7444 5.67402 33.7354 5.59009 33.7264 5.50564C33.7206 5.52401 33.7152 5.54341 33.7094 5.56124C33.6998 5.56701 33.6919 5.57121 33.6823 5.57698C33.6807 5.56544 33.6802 5.55128 33.6802 5.53764C33.6749 5.55233 33.6691 5.56701 33.6616 5.5817C33.6568 5.61317 33.6516 5.64674 33.6483 5.67821C33.6187 5.75426 33.5868 5.83242 33.5507 5.91161C33.5385 5.92263 33.5268 5.93417 33.5157 5.94413C33.4992 6.07106 33.4785 6.19642 33.4557 6.3223C33.4297 6.37213 33.4058 6.42353 33.3782 6.47388C33.3729 6.45396 33.3718 6.43455 33.3649 6.41514C33.3687 6.24782 33.3596 6.07473 33.3485 5.8964C33.3533 5.75793 33.3538 5.61632 33.3506 5.47418C33.3426 5.50407 33.3304 5.53397 33.3204 5.56334C33.3102 5.56911 33.2986 5.56964 33.288 5.57225C33.2747 5.53344 33.2603 5.49306 33.2455 5.45372C33.2593 5.43641 33.2715 5.42067 33.2843 5.40442C33.2731 5.40652 33.2603 5.40861 33.2487 5.41071C33.2232 5.34095 33.194 5.27066 33.1648 5.19986C33.1101 5.19251 33.0534 5.18989 32.9923 5.1836C32.9345 5.15475 32.8729 5.12328 32.8076 5.09548C32.7976 5.06086 32.7896 5.0252 32.7806 4.98953C32.737 4.99163 32.693 4.99477 32.6479 4.9974C32.6097 4.95229 32.5709 4.90928 32.5332 4.86679C32.5104 4.807 32.4892 4.74564 32.4648 4.68584C32.4398 4.66119 32.4149 4.63654 32.3899 4.61188C32.3703 4.64021 32.3517 4.66801 32.3321 4.69633C32.3899 4.82851 32.4436 4.96121 32.4951 5.09233C32.5019 5.06978 32.5072 5.04723 32.5131 5.0252C32.5237 5.03149 32.5332 5.04146 32.5412 5.0488C32.5369 5.09023 32.5301 5.13324 32.5231 5.17363C32.5714 5.1836 32.6213 5.19461 32.668 5.20615C32.6988 5.1558 32.7312 5.1044 32.7588 5.05509C32.7615 5.09391 32.7636 5.13324 32.7673 5.17206C32.8198 5.24339 32.8671 5.3163 32.9133 5.38606C32.883 5.44847 32.8527 5.51141 32.823 5.57383C32.823 5.60058 32.823 5.62628 32.8219 5.65198C32.7747 5.70705 32.7243 5.76213 32.6717 5.81772C32.642 5.83032 32.6102 5.83871 32.5784 5.8492C32.5667 5.87333 32.5534 5.89745 32.5417 5.92368C32.4494 5.98242 32.3522 6.04274 32.2519 6.10306C32.1814 6.11722 32.1097 6.12981 32.0364 6.14187C32.0301 6.01546 32.0194 5.88748 32.0078 5.75899C31.9499 5.63572 31.8905 5.51141 31.8274 5.38658C31.8151 5.29584 31.8034 5.20615 31.7897 5.11489C31.7132 4.97222 31.6341 4.83008 31.5503 4.68689C31.5583 4.64073 31.5625 4.5951 31.5689 4.55052C31.5508 4.60297 31.5327 4.65437 31.5136 4.70577C31.4807 4.62919 31.4462 4.55472 31.4096 4.47866C31.4845 4.71312 31.5513 4.95019 31.6155 5.18675C31.6405 5.20878 31.6639 5.2329 31.6888 5.25651C31.6983 5.36508 31.7053 5.47313 31.7137 5.57907C31.735 5.6032 31.7546 5.62576 31.7759 5.64831C31.7886 5.72332 31.8018 5.80042 31.8156 5.87595C31.8868 5.97612 31.952 6.07579 32.0194 6.17125C32.0083 6.19328 32.0003 6.21635 31.9898 6.23943C32.021 6.27929 32.0545 6.31706 32.0853 6.35797C32.202 6.31391 32.3156 6.27195 32.4234 6.22789C32.4335 6.23366 32.443 6.24048 32.4541 6.24677C32.4462 6.28454 32.4377 6.32126 32.4303 6.35744C32.3475 6.53106 32.261 6.70626 32.1675 6.87618C31.994 7.06289 31.812 7.2465 31.6203 7.42795C31.5641 7.52498 31.5078 7.621 31.4521 7.71537C31.4606 7.82241 31.4653 7.9268 31.4691 8.02643C31.4378 8.13499 31.4033 8.23988 31.3693 8.34218C31.2154 8.46019 31.0567 8.57351 30.8964 8.68366C30.8927 8.7298 30.8895 8.77644 30.8853 8.82207C30.8656 8.85985 30.8454 8.89711 30.8242 8.93438C30.7696 8.95688 30.7165 8.98153 30.6618 9.00359C30.6268 9.05816 30.5923 9.11165 30.5578 9.16254C30.4501 9.23802 30.3423 9.30673 30.234 9.37492C30.1491 9.40274 30.0663 9.42949 29.9809 9.45414C29.941 9.45465 29.9018 9.45465 29.8598 9.45465C29.8067 9.46618 29.7521 9.47772 29.6964 9.48666C29.663 9.48197 29.629 9.47721 29.594 9.46986C29.5881 9.44996 29.5844 9.4305 29.578 9.4101C29.5907 9.39799 29.6035 9.38645 29.6162 9.37492C29.5738 9.3073 29.5276 9.23593 29.4825 9.16096C29.4825 9.07438 29.4862 8.9821 29.4862 8.88558C29.4384 8.79324 29.3901 8.69678 29.3397 8.5955C29.3785 8.49479 29.4172 8.39256 29.4559 8.28609C29.4963 8.23678 29.5387 8.1869 29.5786 8.13607C29.5557 7.98289 29.5313 7.82552 29.5069 7.66029C29.4289 7.52866 29.3503 7.39125 29.2707 7.25068C29.2904 7.22812 29.3111 7.20454 29.3307 7.1809C29.3583 7.08862 29.3837 6.99577 29.4119 6.90134C29.397 6.8746 29.3853 6.84785 29.3731 6.82009C29.3594 6.80171 29.3466 6.78282 29.3354 6.76502C29.2521 6.76502 29.1698 6.76603 29.0871 6.76394C29.0372 6.69105 28.9894 6.61392 28.9406 6.53892C28.8604 6.54364 28.7803 6.5426 28.7001 6.54627C28.603 6.58141 28.5064 6.61601 28.4114 6.64853C28.3461 6.62653 28.2824 6.6008 28.2172 6.57879C28.1274 6.6008 28.0367 6.62077 27.9481 6.64016C27.9237 6.63122 27.9019 6.61868 27.8775 6.60974C27.757 6.48752 27.6392 6.36426 27.5235 6.24153C27.5171 6.19747 27.5107 6.15394 27.5054 6.11092C27.4518 6.01442 27.3982 5.91791 27.3484 5.82087C27.3154 5.80461 27.2862 5.7873 27.256 5.77157C27.2608 5.7186 27.2671 5.66614 27.2714 5.61212C27.2554 5.58485 27.239 5.55704 27.2236 5.5303C27.2565 5.49935 27.2846 5.46736 27.316 5.43798C27.3372 5.36665 27.3542 5.29584 27.3759 5.22451C27.3706 5.08919 27.3674 4.95334 27.3648 4.81959C27.4959 4.64073 27.6269 4.4603 27.7634 4.28197C27.8021 4.27358 27.8409 4.26676 27.8801 4.25784C27.9332 4.21431 27.9847 4.1671 28.0378 4.12514C28.0702 4.03755 28.102 3.95205 28.1328 3.86499C28.2039 3.8246 28.2766 3.78107 28.3499 3.73963C28.3838 3.68665 28.4183 3.6342 28.4528 3.58175C28.542 3.60746 28.6311 3.6363 28.7203 3.6641C28.8196 3.63053 28.9183 3.59539 29.017 3.56077C29.2468 3.55973 29.4745 3.55552 29.7017 3.56077C29.7181 3.5828 29.7388 3.60116 29.7558 3.62371C29.7728 3.61742 29.7914 3.61165 29.8094 3.60378C29.794 3.62109 29.7781 3.63892 29.7633 3.65466C29.7755 3.6919 29.7855 3.72862 29.7972 3.76743C29.7712 3.80834 29.7436 3.84715 29.7144 3.88806C29.8519 3.951 29.9883 4.01762 30.1247 4.07951C30.1321 4.10521 30.1348 4.13196 30.1406 4.15609C30.2213 4.20434 30.3025 4.2505 30.3816 4.29823C30.414 4.29089 30.4479 4.28826 30.4814 4.27987C30.4861 4.23319 30.4935 4.18651 30.4989 4.13878C30.5439 4.12567 30.587 4.10941 30.6316 4.09577C30.7165 4.14979 30.7998 4.20382 30.8826 4.25732C30.9765 4.29246 31.0673 4.32707 31.1591 4.36274C31.209 4.34963 31.2579 4.33652 31.3083 4.32393C31.3311 4.34701 31.3555 4.36799 31.3773 4.39211C31.4266 4.38005 31.4776 4.37166 31.5254 4.36065C31.5524 4.27515 31.5805 4.19176 31.6076 4.10836C31.6076 4.0365 31.6044 3.96621 31.6044 3.89593C31.537 3.90799 31.4712 3.9232 31.4017 3.93632C31.3656 3.90799 31.3327 3.87705 31.2971 3.8482C31.2663 3.86079 31.2307 3.87075 31.2016 3.88492C31.1406 3.8482 31.08 3.81306 31.0174 3.77844C31.0174 3.74959 31.0142 3.7218 31.0142 3.694C30.9925 3.68036 30.9707 3.66777 30.9511 3.65361C30.9665 3.65046 30.9808 3.64994 30.9972 3.64731C30.9781 3.60064 30.9564 3.55658 30.9362 3.51147C30.9564 3.50203 30.9749 3.48839 30.9919 3.47895C31.0381 3.48629 31.0821 3.49521 31.1262 3.50465C31.1331 3.4973 31.1432 3.49154 31.1533 3.48629C31.1442 3.47423 31.1315 3.46374 31.1209 3.4522C31.1215 3.44433 31.1246 3.43699 31.1257 3.42964C31.1411 3.43909 31.1581 3.44643 31.175 3.45377C31.2849 3.45115 31.3927 3.45115 31.4967 3.44957C31.545 3.48734 31.5954 3.52615 31.6442 3.56497C31.6962 3.57703 31.7498 3.59015 31.8018 3.60273C31.8289 3.58175 31.9123 3.56549 31.9399 3.54503C31.839 3.44014 31.6867 3.33314 31.6867 3.22876C31.6867 3.22141 31.6867 3.21407 31.6867 3.20673C31.6867 3.20673 31.6437 3.21093 31.6479 3.21145C31.6612 3.19204 31.6516 3.17368 31.6628 3.15533C31.6516 3.14012 31.6246 3.12595 31.6113 3.11127C31.6421 3.1097 31.6617 3.10602 31.691 3.10602C31.6586 3.09606 31.623 3.08662 31.5885 3.07822C31.5333 3.09344 31.476 3.10655 31.4187 3.12438C31.4457 3.14641 31.4675 3.17106 31.4924 3.19309C31.5131 3.19519 31.5349 3.20306 31.5577 3.20463C31.5583 3.21198 31.5577 3.21984 31.5583 3.22666C31.5047 3.22929 31.4516 3.23611 31.3969 3.23872C31.3688 3.20673 31.3449 3.17474 31.3167 3.14222C31.3359 3.13225 31.3555 3.12281 31.3741 3.11284C31.3391 3.08767 31.3056 3.06197 31.269 3.03679C31.244 3.03155 31.218 3.02525 31.192 3.01948C31.1698 3.03626 31.1442 3.05305 31.1199 3.07193C31.0832 3.14746 31.0476 3.22509 31.0094 3.30376C31.0371 3.34153 31.0646 3.37824 31.0917 3.41601C31.0981 3.41968 31.105 3.42125 31.1098 3.42493C31.1082 3.43332 31.1045 3.43909 31.1013 3.44643C31.0737 3.44433 31.045 3.43699 31.0147 3.43436C30.9877 3.45639 30.9611 3.47737 30.9346 3.49993C30.9436 3.48472 30.95 3.46951 30.9595 3.45377C30.9399 3.44224 30.9229 3.43122 30.9033 3.41915C30.8699 3.40972 30.8354 3.40499 30.8009 3.39608C30.7855 3.41496 30.7727 3.43594 30.7568 3.45587C30.7329 3.43751 30.7085 3.42178 30.6852 3.40394C30.7329 3.48787 30.7812 3.57179 30.8295 3.65623C30.8173 3.64941 30.8035 3.64207 30.7902 3.6342C30.7902 3.65204 30.7902 3.66777 30.7892 3.68403C30.7197 3.65151 30.6485 3.61952 30.5779 3.58647C30.5345 3.52196 30.4919 3.45797 30.4501 3.39398C30.4522 3.35202 30.4553 3.30953 30.458 3.26705C30.3556 3.1868 30.251 3.1097 30.1481 3.03155C30.1416 3.00427 30.1348 2.97542 30.1263 2.94605C30.113 2.93346 30.0982 2.92349 30.0833 2.91248C30.0716 2.92349 30.0626 2.93661 30.0525 2.9492C30.0371 2.92192 30.0185 2.8957 30.0031 2.87052C29.9814 2.87104 29.9591 2.87629 29.9384 2.87891C29.9384 2.91248 29.9389 2.94605 29.9384 2.97909C29.9835 3.03889 30.027 3.10025 30.0711 3.1611C30.1194 3.1826 30.1672 3.20463 30.2144 3.22404C30.2706 3.28174 30.328 3.33786 30.3864 3.39398C30.3482 3.3772 30.3094 3.36408 30.2712 3.34835C30.2733 3.39031 30.2749 3.43332 30.2749 3.4758C30.25 3.50465 30.2266 3.53402 30.2006 3.5634C30.1931 3.50203 30.1857 3.44014 30.1788 3.37877C30.0647 3.2959 29.9522 3.21145 29.837 3.12962C29.8169 3.0798 29.7993 3.03049 29.7803 2.98172C29.7479 2.96703 29.7128 2.95549 29.6789 2.94028C29.6199 2.96651 29.5626 2.99483 29.5021 3.02367C29.4427 3.00532 29.3843 2.98749 29.3249 2.97122C29.2962 2.98224 29.2707 2.99378 29.2442 3.00532C29.2442 3.03574 29.2452 3.06459 29.2452 3.09501C29.1868 3.11547 29.1301 3.13959 29.0695 3.16057C29.0297 3.19991 28.9878 3.23715 28.9475 3.27754C28.9608 3.30062 28.9692 3.32579 28.982 3.34939C28.9082 3.40342 28.836 3.45797 28.7612 3.51147C28.6715 3.52563 28.5807 3.53927 28.4916 3.55291C28.4587 3.51357 28.4247 3.47842 28.3934 3.44014C28.344 3.44276 28.2909 3.44224 28.2411 3.44591C28.2803 3.2639 28.3217 3.08662 28.362 2.91458C28.3881 2.90357 28.4114 2.89045 28.439 2.87839C28.5987 2.88993 28.7601 2.90357 28.9231 2.91982C28.9395 2.84954 28.9565 2.7824 28.9724 2.71422C28.9018 2.64865 28.8328 2.58519 28.7612 2.52487C28.8398 2.52697 28.9161 2.53116 28.9931 2.53589C28.9884 2.50861 28.9825 2.48081 28.9777 2.45354C29.0196 2.46507 29.0621 2.48134 29.1035 2.4934C29.2251 2.41682 29.345 2.34077 29.465 2.26996C29.491 2.28203 29.518 2.29042 29.5425 2.303C29.535 2.28412 29.5276 2.26629 29.5207 2.24793C29.5886 2.25265 29.6555 2.25212 29.7213 2.2579C29.7335 2.23639 29.7484 2.21646 29.7595 2.196C29.7425 2.15037 29.725 2.10631 29.708 2.06173C29.7208 2.05124 29.7356 2.04023 29.7479 2.02921C29.7861 2.02502 29.8237 2.0182 29.8625 2.01243C29.8678 2.04337 29.8731 2.07327 29.8784 2.10264C29.8461 2.12257 29.8153 2.14303 29.7839 2.16401C29.8137 2.19181 29.8386 2.22118 29.8678 2.24951C29.924 2.24059 29.9809 2.23272 30.0371 2.2238C30.036 2.23377 30.0334 2.24373 30.0318 2.25318C30.0536 2.26209 30.0737 2.27415 30.0976 2.28307C30.182 2.27678 30.2632 2.27101 30.3465 2.26419C30.3657 2.27888 30.3869 2.29566 30.4076 2.30877C30.4362 2.29618 30.4633 2.28203 30.4925 2.26891C30.5063 2.22118 30.5227 2.17397 30.5339 2.12782C30.5849 2.14618 30.6385 2.16191 30.6899 2.18184C30.6677 2.13988 30.6437 2.0974 30.6215 2.05596C30.743 2.06908 30.8624 2.08638 30.9781 2.10264C30.9415 2.07957 30.9054 2.05544 30.8694 2.03235C30.7855 2.02396 30.7011 2.01505 30.6151 2.00718C30.5721 1.98515 30.5296 1.96417 30.4861 1.94424C30.4861 1.90176 30.4856 1.86084 30.4856 1.82098C30.5434 1.79948 30.5992 1.77849 30.6565 1.76067C30.6395 1.74335 30.6236 1.725 30.6066 1.70769C30.5721 1.69877 30.536 1.693 30.5005 1.68461C30.4792 1.6972 30.4575 1.71031 30.4368 1.725C30.4501 1.73129 30.4628 1.73968 30.476 1.74546C30.4054 1.76801 30.3322 1.79004 30.2568 1.81469C30.2568 1.83934 30.2563 1.86452 30.2542 1.88917C30.2882 1.91329 30.3211 1.94057 30.354 1.9647C30.3168 1.98253 30.2802 1.99879 30.2414 2.01662C30.226 2.0612 30.2085 2.10631 30.1926 2.15299C30.1327 2.15824 30.0727 2.16454 30.0138 2.1724C29.9644 2.08323 29.9177 1.99722 29.8704 1.91277C29.8089 1.9285 29.75 1.94791 29.6889 1.96522C29.6549 1.9563 29.6204 1.94371 29.5854 1.93532C29.5775 1.90962 29.5679 1.88602 29.5584 1.86084C29.5897 1.85035 29.621 1.84406 29.6534 1.83514C29.6534 1.82675 29.6534 1.81731 29.6512 1.80997C29.6231 1.81993 29.594 1.82728 29.5669 1.83829C29.5632 1.81993 29.56 1.80262 29.5557 1.78584C29.5924 1.79004 29.6295 1.79319 29.6661 1.79476C29.6725 1.78846 29.6773 1.77902 29.682 1.77063C29.6406 1.77167 29.5977 1.77167 29.5562 1.7722C29.5536 1.75856 29.5515 1.74546 29.5483 1.73182C29.6412 1.71293 29.7298 1.69405 29.8195 1.67937C29.8689 1.65786 29.9177 1.63583 29.9644 1.61433C30.0345 1.57709 30.1029 1.5409 30.1677 1.5068C30.1125 1.5047 30.0583 1.5026 30.0031 1.50208C30.0392 1.49893 30.0737 1.49421 30.1082 1.49317C30.0976 1.48897 30.087 1.48163 30.078 1.47743C30.1056 1.47428 30.1337 1.46904 30.1618 1.46746C30.1709 1.47743 30.1804 1.48792 30.1905 1.49684C30.2229 1.4832 30.2579 1.47271 30.2918 1.4596C30.3587 1.46117 30.4261 1.46641 30.4914 1.46746C30.5811 1.48897 30.6719 1.50942 30.7573 1.53145C30.7918 1.54824 30.8258 1.56345 30.8603 1.57971C30.8247 1.57289 30.7887 1.56502 30.7536 1.55925C30.9553 1.64475 31.1533 1.73706 31.3438 1.83357C31.355 1.85035 31.3672 1.86662 31.3815 1.88497C31.3438 1.88025 31.3051 1.87553 31.2668 1.87395C31.1698 1.82728 31.0668 1.78322 30.9638 1.74125C31.01 1.77063 31.0556 1.8 31.1007 1.82937C31.1092 1.85245 31.1183 1.87605 31.1262 1.89966C31.1819 1.92903 31.2414 1.95526 31.2992 1.98358C31.2733 1.96365 31.2223 1.94477 31.2223 1.92536C31.2223 1.91801 31.2223 1.91015 31.2223 1.9028C31.2223 1.92956 31.3449 1.95841 31.4049 1.9862C31.3841 1.96732 31.3629 1.94581 31.3407 1.92588C31.3741 1.92378 31.407 1.91907 31.4394 1.91697C31.4701 1.93689 31.5014 1.95735 31.5322 1.97781C31.5306 1.96784 31.529 1.95683 31.5285 1.94686C31.4935 1.90333 31.4574 1.86137 31.4219 1.81889C31.4675 1.84092 31.5115 1.86399 31.5572 1.88655C31.5635 1.89389 31.5731 1.90228 31.58 1.90962C31.562 1.91067 31.5434 1.9091 31.5232 1.90962C31.5551 1.93008 31.5842 1.95106 31.6145 1.97204C31.6273 1.96207 31.6384 1.95263 31.649 1.94267C31.7101 1.94896 31.7732 1.95735 31.831 1.96417C31.8501 1.98411 31.8735 2.00193 31.8916 2.02187C31.935 2.02869 31.977 2.03813 32.0163 2.04809C32.0322 2.06278 32.0497 2.07851 32.0646 2.0932C32.0709 2.08743 32.0795 2.08376 32.0863 2.08061C32.0715 2.06593 32.0577 2.05229 32.0423 2.03813C32.0152 2.01977 31.9876 1.99879 31.96 1.97991C31.9606 1.97833 31.9653 1.97466 31.9674 1.97256C32.1028 2.0612 32.2318 2.1509 32.3538 2.2453C32.3528 2.23901 32.3528 2.23377 32.3517 2.22642C32.3188 2.19915 32.2864 2.17188 32.2535 2.14355C32.237 2.11575 32.2185 2.0911 32.2015 2.06488C32.2084 2.05229 32.2169 2.04023 32.2222 2.02764C32.2551 2.04967 32.2885 2.06908 32.3209 2.09005C32.3257 2.10421 32.331 2.11785 32.3358 2.13254C32.3846 2.18814 32.4329 2.23009 32.4791 2.28412C32.4669 2.26209 32.4536 2.24111 32.4414 2.2196C32.4186 2.19706 32.3958 2.17345 32.3719 2.1509C32.3815 2.14827 32.391 2.14618 32.4005 2.1446C32.4117 2.16244 32.426 2.17975 32.4403 2.19915C32.4738 2.22223 32.5056 2.2453 32.5385 2.26943C32.5056 2.24111 32.4738 2.21069 32.4414 2.18132C32.4573 2.19233 32.4738 2.2023 32.4897 2.21174C32.4945 2.21331 32.5009 2.21331 32.5056 2.21174C32.5385 2.24164 32.5709 2.26996 32.6043 2.29724C32.6097 2.29881 32.6134 2.30038 32.616 2.30038C32.5821 2.26419 32.5471 2.228 32.5083 2.19443C32.5067 2.18971 32.5056 2.18394 32.5046 2.18027C32.5502 2.20754 32.5932 2.23534 32.6351 2.26104C32.6218 2.24845 32.6107 2.2343 32.5975 2.22223C32.6033 2.22013 32.6102 2.21909 32.616 2.21699C32.6834 2.25947 32.7445 2.30458 32.8029 2.34864C32.7954 2.34129 32.789 2.33237 32.7811 2.32346C32.7938 2.335 32.8071 2.34601 32.8177 2.35598C32.8114 2.34654 32.8039 2.3371 32.7965 2.32766C32.806 2.3308 32.8119 2.335 32.8204 2.33815C32.8453 2.36437 32.8708 2.39007 32.8941 2.4163C32.9005 2.42364 32.9053 2.43204 32.9101 2.43937C32.9127 2.442 32.9159 2.44357 32.9159 2.44567C33.5655 3.35884 33.9312 4.47656 33.8559 5.61527C33.8548 5.62471 33.8548 5.63625 33.8532 5.64726ZM29.7043 3.20306C29.7128 3.21565 29.7223 3.22719 29.733 3.2403C29.724 3.29065 29.715 3.33996 29.7075 3.38978C29.6873 3.3987 29.6661 3.40342 29.647 3.41233C29.6364 3.34887 29.6285 3.28488 29.6194 3.22299C29.647 3.21459 29.6757 3.21145 29.7043 3.20306ZM29.664 3.09239C29.6852 3.08189 29.7048 3.06879 29.724 3.05777C29.715 3.1034 29.7043 3.15061 29.6943 3.19729C29.6847 3.16215 29.673 3.12753 29.664 3.09239ZM29.9182 3.52563C30.0037 3.52615 30.0912 3.52878 30.1778 3.5293C30.1629 3.57651 30.1475 3.62371 30.1337 3.66934C30.0631 3.62057 29.9893 3.57231 29.9182 3.52563ZM30.5806 3.65466C30.5971 3.64259 30.6124 3.63001 30.6294 3.61847C30.6549 3.63263 30.6782 3.64941 30.7027 3.66462C30.709 3.70868 30.7165 3.75222 30.7213 3.79732C30.6899 3.78159 30.6549 3.76638 30.6215 3.75065C30.6071 3.71813 30.5944 3.68613 30.5806 3.65466ZM30.7579 3.89856C30.7594 3.88492 30.7616 3.87181 30.7642 3.85922C30.8284 3.88072 30.8943 3.89856 30.9548 3.92059C30.9532 3.92793 30.9489 3.93579 30.9447 3.94314C30.8985 3.93947 30.8518 3.9316 30.8056 3.92635C30.7887 3.91744 30.7754 3.9059 30.7579 3.89856ZM31.3725 4.01814C31.4208 4.0087 31.4701 4.00136 31.5168 3.99244C31.4982 4.015 31.476 4.03545 31.4574 4.05906C31.4293 4.04489 31.4001 4.03178 31.3725 4.01814ZM29.8922 2.13463C29.9007 2.13096 29.9092 2.13096 29.9156 2.12624C29.9251 2.13044 29.9363 2.13044 29.9442 2.13463C29.9532 2.13096 29.9639 2.13096 29.9723 2.12782C29.9777 2.13463 29.9814 2.14198 29.9872 2.14827C29.9702 2.15876 29.9538 2.16925 29.9378 2.17922C29.9235 2.16296 29.9087 2.14933 29.8922 2.13463ZM30.3226 2.12362C30.3226 2.11366 30.3226 2.10421 30.3226 2.09425C30.3433 2.0869 30.3651 2.08271 30.3869 2.07747C30.3778 2.09005 30.3704 2.10054 30.3641 2.11261C30.3508 2.11628 30.3349 2.11838 30.3226 2.12362ZM30.5371 2.0869C30.562 2.08743 30.5865 2.08953 30.6119 2.09215C30.6087 2.09635 30.6071 2.0995 30.6034 2.10474C30.588 2.10736 30.5721 2.10789 30.5562 2.11261C30.5509 2.10317 30.5429 2.09478 30.5371 2.0869Z" fill="#2F80ED"/>
<path d="M24.7329 3.48972C24.7329 3.48819 24.737 3.48665 24.7432 3.48461C24.7375 3.47748 24.7329 3.47034 24.7329 3.4632C24.7329 3.47238 24.7329 3.48002 24.7329 3.48972Z" fill="#449BCE"/>
<path d="M24.8063 3.48411C24.7926 3.50771 24.7825 3.53289 24.7692 3.55649C24.7681 3.56069 24.7676 3.56488 24.7671 3.56908C24.7835 3.53446 24.8021 3.49984 24.8154 3.46628C24.8106 3.471 24.8133 3.47834 24.8063 3.48411Z" fill="#449BCE"/>
<path d="M25.3146 2.11115L25.312 2.11434L25.3146 2.11115Z" fill="#449BCE"/>
<path d="M9.02636 28.0646C6.99517 29.3622 5.02608 31.0794 3.549 33.0689C2.89512 33.5792 1.89412 34.3633 1.30021 34.8595C1.27526 34.88 1.25032 34.9005 1.22803 34.9183L2.20674 35.2351C2.19877 35.2513 2.18869 35.2687 2.17913 35.2881C2.18179 35.2949 2.18285 35.299 2.18444 35.3043L1.70252 35.7742L2.39409 35.6657L2.39833 35.6615C2.48326 35.7276 2.58993 35.7764 2.7274 35.8073C2.74014 35.7974 2.75287 35.7889 2.76668 35.7801L3.22631 36.7058C3.24382 36.679 3.25921 36.6539 3.27673 36.6266C3.69655 35.9647 4.35628 34.8517 4.76973 34.1415C5.68581 33.2519 6.49945 32.2543 7.21968 31.2126C8.23926 29.7383 9.02636 28.0646 9.02636 28.0646ZM3.26611 36.2086L2.92378 35.7124L3.26611 35.9746L4.42368 34.355L3.26611 36.2086ZM5.92199 32.311C5.02184 33.5288 4.07763 34.5789 2.71466 35.5084L2.67538 35.5351L2.63293 35.5162C2.60214 35.4994 2.57773 35.479 2.56181 35.4669L2.50343 35.4124L4.91569 32.7227L3.02144 34.5988L2.90149 34.4965C4.40511 32.4468 5.29995 31.2918 7.66284 29.5248L8.04924 29.2331L7.77853 29.6302C7.69946 29.7419 7.63045 29.8479 7.55458 29.957C7.26797 30.3409 6.92353 30.8072 6.55943 31.2981C5.6407 32.546 3.79474 34.4342 3.79474 34.4342C4.5362 33.8698 5.2697 33.0972 5.92199 32.311Z" fill="#2F80ED"/>
<path d="M31.54 10.2194C31.5013 10.1984 31.4339 10.2105 31.3787 10.2367C31.3781 10.2351 31.3787 10.2341 31.3787 10.2325C31.3633 10.1811 31.2412 10.138 31.0889 10.2157C30.9912 10.2655 30.866 10.3421 30.7513 10.4035C29.4898 11.1147 27.7436 10.1811 27.4442 10.8457C26.413 13.0633 24.2666 14.8377 22.7248 16.5145C22.3586 16.9142 22.0582 17.4644 21.6771 17.789C21.1293 18.258 20.3709 18.4479 19.9054 18.9834C19.5992 19.3358 19.329 19.7004 19.0997 19.8588C18.9735 19.7403 18.8084 19.4686 18.7346 19.2881C18.7245 19.2614 18.7155 19.2362 18.7091 19.2168C18.706 19.2052 18.7011 19.1921 18.699 19.1821C18.6677 18.9367 18.7972 18.7484 18.7972 18.7484C18.7972 18.7484 19.5036 17.5877 19.5297 17.5368C19.6088 17.3852 19.6088 17.3018 19.6088 17.3018C19.6088 17.0805 19.398 17.027 19.3306 16.9263C19.2637 16.8256 19.3264 16.6535 19.3264 16.6535C19.3439 16.5596 19.3147 16.5087 19.2823 16.4794C19.2351 16.4416 19.1221 16.4426 19.1221 16.4426C19.1221 16.4426 19.1582 16.375 19.139 16.2549C19.1316 16.2061 19.0987 16.1678 19.061 16.1395C18.9968 16.0912 18.7893 16.0492 18.7436 15.9774C18.7389 15.9449 18.8227 15.8116 18.794 15.5872C18.7675 15.3795 18.5822 15.3758 18.5822 15.3758C18.5822 15.3758 18.1603 15.4157 17.8249 15.3611C17.6328 15.3297 17.5632 15.2253 17.5632 15.2253C16.9672 14.2004 16.1121 13.9843 16.1121 13.9843C16.0713 13.8233 16.0755 13.4829 15.7804 13.3822C15.4848 13.2815 15.1127 13.4892 15.1127 13.4892C15.1127 13.4892 14.6632 13.7383 14.1324 14.2036C13.9122 14.4406 13.7216 14.6677 13.5577 14.8786H13.5571C13.5571 14.8786 13.5539 14.8828 13.5518 14.8859C13.3973 15.0847 13.2668 15.2683 13.1591 15.4309C12.9441 15.7383 12.7021 16.1043 12.5964 16.3372C12.3863 16.8003 12.5195 17.6317 12.6824 18.0849C12.8448 18.538 13.116 19.1575 13.6415 19.5818C14.1675 20.0072 14.5671 20.0214 14.9376 20.0487C15.5225 20.0911 15.9985 20.2752 15.9985 20.2752C15.9985 20.2752 16.2279 20.3702 16.4577 20.6539C16.4646 20.6628 16.4688 20.6707 16.4757 20.6796C16.6589 21.2807 16.4852 21.8519 16.1169 22.1719C14.3458 23.4858 14.1881 25.952 12.7313 27.5061C11.6618 28.6521 10.6438 29.6293 9.6704 30.7717L8.54257 31.5852C8.22466 31.7315 7.91099 31.8831 7.60578 32.0525C7.37972 32.1774 7.1584 32.3122 6.94554 32.4579C6.82559 32.5392 6.71201 32.6252 6.60109 32.715C6.51298 32.7858 6.42965 32.8613 6.33411 32.9179C6.20674 32.9972 6.06662 33.0554 5.94348 33.1382C5.76674 33.2599 5.60964 33.4099 5.47748 33.5783C5.38354 33.6968 5.3034 33.8222 5.23705 33.9586C5.12772 34.1432 5.00618 34.3121 4.99609 34.5959C6.24813 35.9082 6.89883 34.1207 7.65465 33.3995C8.44015 32.6547 9.80367 32.2246 10.8779 31.41C11.8534 30.6699 12.9292 29.8968 13.78 29.0193C15.0082 27.751 15.3234 25.9924 16.4375 24.7997C17.1471 26.1361 19.3625 26.9087 18.9357 28.7822C18.629 30.1281 18.0834 31.6743 18.0505 33.0019C18.0451 33.1965 18.0467 33.3869 18.0494 33.5757C18.0494 33.5757 18.0271 35.9296 18.0271 36.5712C18.0271 37.2142 17.5494 37.9889 17.5494 37.9889C17.4395 38.1578 17.0505 38.6791 16.7623 39.0594C16.5988 39.2766 16.3043 39.6238 16.2401 39.703C15.2693 40.8857 14.807 43.1469 14.6632 43.7501C14.5103 44.3921 14.2996 44.6186 14.2996 44.6186C13.9754 44.7891 13.7073 45.4495 13.5736 45.8465C13.4398 46.2431 13.1909 46.8661 13.1909 46.8661C13.1909 46.8661 12.7323 47.6975 12.5503 48.2546C12.3688 48.8116 12.6363 48.9432 12.6363 48.9432C12.7132 49.1703 13.0094 49.2071 13.0094 49.2071C13.0667 49.3104 13.3533 49.3691 13.3533 49.3691H14.1563C14.4812 49.3586 14.5964 49.3691 14.6627 49.1325C14.7296 48.8976 14.6149 48.595 14.7678 47.6686C14.9211 46.7429 15.0544 46.3663 15.3224 45.5439C15.5894 44.723 15.8669 44.5048 16.8605 43.1076C17.8541 41.7087 17.9591 41.3221 18.1603 40.9717C18.3609 40.624 18.4183 40.5868 19.2499 39.6977C20.0811 38.8097 20.1575 38.5171 20.2632 38.27C20.3677 38.0251 20.5975 37.4198 20.5975 37.4198C20.5975 37.4198 20.9627 37.723 20.8719 38.2181C20.8581 38.2936 20.5986 39.3657 20.4341 40.0466C20.1904 41.0541 20.5806 42.2657 20.7812 43.0692C20.9818 43.8712 21.1219 44.6811 21.1416 45.1998C21.1606 45.7202 20.9038 46.2221 20.9038 46.2221C20.6745 46.713 20.7228 47.0057 20.7228 47.0057C20.8374 47.5727 21.6017 47.4861 21.6017 47.4861C21.6017 47.4861 22.6818 47.5056 22.8824 47.4861C23.0831 47.4678 23.6186 47.8077 23.8383 47.9309C24.0586 48.0542 24.455 48.0726 24.455 48.0726C24.455 48.0726 25.0569 48.0684 25.2506 48.0437C25.4438 48.0191 25.4921 47.9011 25.5139 47.814C25.5463 47.6823 25.4948 47.5627 25.4948 47.5627H25.5516C25.5834 47.5627 25.5803 47.515 25.5803 47.515L25.5834 47.4599C25.5834 47.3372 25.5017 47.3115 25.5017 47.3115C25.4905 47.2433 25.3292 47.237 25.3042 47.237C25.2867 47.1825 25.1928 47.1756 25.1354 47.1756C25.1424 47.1788 25.2028 47.206 25.2209 47.2696H25.2893C25.2893 47.2696 25.4512 47.2637 25.4603 47.345C25.4603 47.345 25.5377 47.3545 25.5468 47.4127C25.5468 47.4127 25.5558 47.4452 25.5218 47.4457C25.4873 47.4478 25.4433 47.4457 25.4433 47.4457C25.4433 47.4457 25.4231 47.3556 25.3392 47.3618C25.3303 47.3597 25.1673 47.3383 25.1673 47.3383C25.1673 47.3383 25.2087 47.2123 24.869 47.1358C24.9507 47.1394 25.0081 47.1478 25.0521 47.1552C24.973 47.1169 24.8107 47.0823 24.6902 47.0823C24.5463 47.0823 24.4413 46.959 24.4413 46.959C24.4413 46.959 23.4938 45.9897 23.152 45.6944C22.6935 45.2989 22.66 45.1846 22.6632 45.1122C22.6659 45.0383 22.6309 39.6117 22.8835 38.9697C22.9955 38.687 23.2847 37.8562 23.3611 37.6673C23.4376 37.4785 23.4758 36.0524 23.4758 35.6926C23.4758 35.3338 23.6387 34.6735 23.6387 34.6735C23.7958 33.9617 23.9349 33.305 23.9986 32.9243C24.1085 32.492 24.2029 32.0651 24.2576 31.6471C24.4885 29.8879 23.7767 28.5934 23.4514 27.1898C23.2125 26.1565 23.0448 24.9895 22.6463 24.0029C22.2827 23.1033 21.5003 21.9191 21.4372 21.2157C21.3241 19.9569 22.7296 19.1832 23.4514 18.4285C24.0358 17.8179 24.5697 17.1082 25.1445 16.5177C26.4422 15.1865 27.148 13.636 28.0445 12.2177C29.0211 10.672 29.7307 12.2419 31.4036 10.6914C31.6037 10.4738 31.6626 10.2855 31.54 10.2194ZM15.9874 14.4663C15.8388 14.6593 15.5692 14.7008 15.3213 14.931C15.0729 15.1613 15.237 15.3732 15.237 15.3732C15.3786 15.5316 15.661 15.8751 15.2714 16.0718C15.0188 16.1988 14.2821 16.1086 14.2821 16.1086C15.2529 15.9685 15.1111 15.7131 15.0496 15.6218C14.9885 15.5316 14.8814 15.5389 14.5263 15.7692C14.1712 15.9994 13.8655 16.022 13.8655 16.022C14.2673 15.8594 14.5894 15.6092 14.8702 15.2258C14.9504 15.1167 15.0618 14.9415 15.0618 14.9415C15.0618 14.9415 14.928 14.9116 14.5018 15.2772C14.2731 15.4728 13.8655 15.5987 13.8655 15.5987C13.8655 15.5987 14.1064 15.4592 14.4732 15.0401C14.8744 14.5812 15.4131 14.5455 15.4131 14.5455C15.4131 14.5455 15.2343 14.449 14.7417 14.6205C14.5363 14.6913 14.2243 14.9069 14.2243 14.9069C14.5767 14.4354 14.8628 14.3016 15.2751 14.311C16.0946 14.3304 15.998 14.0829 15.998 14.0829C16.0596 14.1548 16.1366 14.2738 15.9874 14.4663ZM7.09256 33.7157C6.74227 33.689 6.66849 33.9355 6.60799 34.1941C6.37976 33.8217 7.10848 33.5584 6.68972 33.1571C6.3166 33.6837 6.33624 34.193 5.80177 34.3514C5.97055 33.7451 6.62338 32.6992 7.47309 32.6798C7.20611 32.7496 6.86328 33.3192 7.09256 33.7157ZM12.088 29.8123C11.9813 29.7845 11.9606 29.6718 11.8455 29.6545C11.6448 29.709 11.9962 29.8669 11.9261 30.052C11.8274 30.0195 11.7611 29.9518 11.7653 29.8123C11.2993 30.0174 11.0589 30.4444 10.7977 30.8503C10.88 30.7969 10.8811 30.6657 11.0398 30.6883C10.9119 30.8818 10.8195 31.11 10.5568 31.1666C10.5955 30.9977 10.4427 31.0151 10.3158 31.0071C10.6778 29.881 12.0201 29.72 12.2494 28.4591C12.6941 28.3432 12.5465 27.6398 13.1352 27.6645C13.0815 27.5821 12.951 27.5811 12.9728 27.4253C13.0381 27.3556 13.1941 27.3781 13.2153 27.2648C13.2291 27.5465 13.3602 28.0364 13.6978 28.2189C13.5348 29.1189 12.382 29.0445 12.088 29.8123ZM17.7293 22.4068C17.2097 22.6544 16.5176 22.6313 15.9561 23.1249C14.8224 24.1199 14.6834 26.1838 13.3772 27.2664C14.721 25.9394 14.6266 23.1904 16.5203 22.4079C16.7681 22.4876 16.3441 22.539 16.359 22.6476C16.6179 22.7939 16.7156 22.1005 17.1652 22.1692C17.2145 21.8078 17.1699 21.5896 17.7293 21.6117C17.6991 21.8152 17.5892 22.111 17.4072 21.9306C17.4257 22.1766 17.6301 22.2395 17.7293 22.4068ZM14.0629 48.9768C14.0533 48.896 13.9674 48.9081 13.9674 48.9081H13.7095C13.6999 48.8467 13.65 48.8624 13.65 48.8624C13.65 48.8624 13.3798 48.8624 13.3655 48.8624C13.3751 48.7702 13.2721 48.7508 13.2721 48.7508H13.0147C13.0285 48.6086 12.8326 48.5813 12.8326 48.5813C12.8326 48.5813 12.9143 48.5834 12.9308 48.5813C13.0959 48.5771 13.0837 48.6589 13.0837 48.6589C13.0837 48.6589 13.227 48.6663 13.3294 48.6589C13.4318 48.6526 13.4207 48.7508 13.4207 48.7508C13.4207 48.7508 13.5831 48.7539 13.659 48.7508C13.7349 48.7476 13.7333 48.8174 13.7333 48.8174C13.7333 48.8174 13.9148 48.8131 13.9918 48.8174C14.0682 48.8231 14.0629 48.9144 14.0629 48.9144V48.9768ZM14.1356 46.091C13.8341 46.049 13.8952 45.6047 13.8952 45.6047C13.9 45.546 13.9414 45.4951 13.9595 45.5769C13.978 45.6582 14.0061 45.7075 14.0852 45.76C14.1638 45.8135 14.2678 45.6556 14.3936 45.5072C14.5188 45.3593 14.5295 45.4715 14.5295 45.4715C14.5295 45.4715 14.4366 46.1329 14.1356 46.091ZM14.5671 48.9138C14.5671 48.9138 14.5502 48.873 14.4138 48.8709C14.2779 48.8677 14.1892 48.8808 14.1585 48.9275V48.907C14.1585 48.907 14.1611 48.7476 14.2996 48.7497C14.4381 48.7518 14.4572 48.7497 14.4572 48.7497C14.4572 48.7497 14.5576 48.7549 14.5677 48.8389L14.5671 48.9138ZM17.9708 38.0167C17.9114 38.1552 17.5988 38.6986 17.4072 39.0531C17.1349 39.5504 16.947 40.27 16.4386 40.2474C16.9857 39.5871 17.4491 38.2428 18.1322 37.4591C18.1375 37.5709 18.103 37.7177 18.1752 37.7634C18.0589 37.7807 17.8068 38.14 17.9708 38.0167ZM25.2198 47.6571C25.2665 47.6519 25.2697 47.6335 25.2899 47.5989C25.3382 47.5171 25.3913 47.4914 25.3913 47.4914C25.3913 47.4914 25.326 47.5999 25.3239 47.7075C25.2416 47.7195 24.9598 47.6356 24.9598 47.6356C24.9598 47.6356 25.1731 47.6614 25.2198 47.6571ZM19.8237 22.2484C19.6358 22.5815 19.6295 22.3633 19.2601 22.3292C19.4007 21.8493 18.5711 22.0413 18.534 21.4522C18.3153 21.4439 18.3726 21.5854 18.2123 21.4522C18.0589 21.3977 18.2999 21.3284 18.293 21.4522C18.3525 21.2445 18.4777 20.8428 18.534 20.4174C18.7001 20.4389 18.6937 20.6303 18.7749 20.7341C18.8354 20.6665 18.7537 20.3209 18.9368 20.1771C19.3121 20.2149 19.4203 20.2826 19.9049 20.3371C19.7462 20.3917 19.6491 20.698 19.9049 20.7341C19.845 20.8763 19.759 20.7452 19.6618 20.7341C19.579 21.0022 19.9129 20.858 20.0652 20.8947C20.1512 20.5967 19.8662 20.667 19.9043 20.4174C20.1384 20.3476 19.9946 20.2973 19.984 20.098C20.2748 19.9039 20.5185 19.9212 20.7907 19.8588C20.8544 20.0371 20.8645 20.5606 20.4686 20.6566C20.7249 20.7468 20.5232 21.2907 20.9526 21.213C20.7233 21.6059 21.305 21.5813 21.193 22.089C20.6793 21.8288 20.5822 21.1559 19.9043 21.0531C19.9628 21.1291 20.0503 21.1742 20.1464 21.213C19.9012 22.3937 20.2186 22.9093 20.6299 23.8414C20.1124 23.5566 19.907 22.9638 19.8237 22.2484ZM21.3448 46.5919C21.3448 46.5919 21.1824 46.5824 21.0487 46.5069C20.9149 46.4314 20.9898 46.2976 20.9966 46.2845C21.0455 46.1974 21.0869 46.2425 21.1442 46.3134C21.2015 46.3842 21.3162 46.4775 21.3879 46.5347C21.4595 46.5919 21.3448 46.5919 21.3448 46.5919ZM21.8384 23.6027C21.8188 24.123 22.3538 24.3506 22.1606 24.797C21.8994 24.7498 21.7859 24.8505 21.598 24.8778C21.4197 24.711 21.667 24.6186 21.5157 24.4792C21.451 24.5201 21.3846 24.5615 21.2748 24.5578C21.2732 24.7912 21.6463 24.8285 21.4351 25.0346C21.322 24.9544 21.011 24.668 21.193 24.5578C21.1585 24.4404 21.0917 24.5904 20.9526 24.5578C20.9054 24.3921 20.752 24.3312 20.7912 24.079C21.011 24.0223 20.9537 24.2384 21.1134 24.2395C21.0439 24.0674 20.9043 23.9672 20.9526 23.6819C21.1797 23.8004 21.503 23.8267 21.6766 23.9998C21.7153 24.251 21.4605 24.2095 21.4351 24.3989C21.8236 24.4319 21.5152 24.2305 21.7573 24.0795C21.6378 23.9059 21.6001 23.6531 21.4351 23.522C21.4446 23.3709 21.736 23.5859 21.8384 23.6027ZM24.5787 15.3202C24.5389 15.3606 24.6195 15.5211 24.5787 15.5588C24.1111 16.0015 23.4153 16.2402 22.9472 16.654C22.9307 16.7154 22.8798 16.7742 22.8798 16.8334C22.8798 16.7804 22.8798 16.727 22.8798 16.6745C22.8798 16.6671 22.9387 16.6608 22.9472 16.654C23.0852 16.1626 23.8245 15.6029 24.3138 15.6381C24.3128 15.561 24.2279 15.5767 24.1647 15.5588C25.0787 14.2591 26.509 13.0391 27.1518 11.7373C27.6056 11.7468 27.7404 11.3901 28.1326 11.0838C27.1353 12.5702 25.9411 13.9004 24.5787 15.3202Z" fill="#2F80ED"/>
</g>
<defs>
<clipPath id="clip0_27_1258">
<rect width="123.134" height="50.7024" fill="white" transform="translate(0.701172 0.253754)"/>
</clipPath>
</defs>
</svg>
