<svg width="190" height="94" viewBox="0 0 190 94" fill="none" xmlns="http://www.w3.org/2000/svg">
<g clip-path="url(#clip0_73_363)">
<path d="M71.44 19.2663C67.8224 14.5359 64.3796 12.047 60.914 11.6497C56.6656 11.1774 53.4204 13.8537 50.5552 16.2226L50.3424 16.3951C47.3675 18.8404 44.1695 21.0087 40.7892 22.8721L1.9608 1.102L0 0V2.24898C0.076 23.3819 18.7264 36.4859 29.7692 42.3933L16.9708 64.5232L9.3936 78.7143L11.9624 78.317C15.6408 77.7547 27.6944 75.5357 28.3252 70.7304C28.6013 68.2076 28.6293 65.6644 28.4088 63.1364C28.3288 62.2165 28.3034 61.2929 28.3328 60.3701V60.1677C28.4772 58.391 28.5152 57.9187 30.476 57.5214C50.92 53.4508 57.076 40.7815 61.636 31.5382C64.41 25.8633 66.4088 21.7926 70.5052 21.3128L72.7852 21.0579L71.44 19.2663ZM59.28 30.4212C54.72 39.672 49.134 51.1868 29.9592 55.0025C26.0832 55.7522 25.8856 58.0986 25.7336 59.9578V60.1527C25.7008 61.1984 25.7364 62.2451 25.84 63.2863C26.0463 65.6518 26.0259 68.0313 25.7792 70.3931C25.5512 72.0948 20.0108 74.1414 14.1968 75.3183L19.2964 65.7602L32.0948 43.5552C35.188 45.0546 37.3312 45.9092 37.6732 46.0441C37.8236 46.1005 37.9835 46.1284 38.1444 46.1266C38.4491 46.1277 38.7445 46.0233 38.979 45.8314C39.2136 45.6396 39.3723 45.3726 39.4275 45.077C39.4827 44.7814 39.4309 44.4761 39.2811 44.2144C39.1313 43.9527 38.8931 43.7512 38.608 43.6452C38.2584 43.4803 4.6588 30.5786 2.7056 4.49796C34.4052 22.2724 44.004 27.6475 44.004 27.6475C44.1537 27.7311 44.3187 27.7849 44.4894 27.8057C44.6602 27.8265 44.8335 27.8139 44.9993 27.7687C45.1652 27.7234 45.3203 27.6464 45.456 27.542C45.5917 27.4376 45.7052 27.3078 45.79 27.1602C45.8748 27.0125 45.9294 26.8498 45.9504 26.6814C45.9715 26.5129 45.9588 26.342 45.9129 26.1784C45.867 26.0148 45.7889 25.8617 45.6831 25.7279C45.5772 25.5941 45.4457 25.4822 45.296 25.3985L43.396 24.334C46.4193 22.5651 49.2938 20.5595 51.9916 18.3367L52.2044 18.1643C54.7884 16.0352 57.456 13.8312 60.5644 14.1836C62.89 14.4459 65.4056 16.1477 68.0656 19.2438C63.9844 20.8106 61.788 25.316 59.28 30.4212Z" fill="#005BA9"/>
<path d="M74.3889 36.7332C74.0111 36.7346 73.648 36.5892 73.3781 36.3284L69.0385 32.2052C68.9533 32.1321 68.8721 32.0545 68.7953 31.9728C68.6371 31.808 68.4875 31.6353 68.3469 31.4556C68.1462 31.2174 67.9609 30.9671 67.7921 30.7059C67.598 30.3787 67.44 30.0319 67.3209 29.6714C67.0787 28.9284 67.0418 28.1351 67.2142 27.3734C67.3865 26.6117 67.7618 25.9092 68.3013 25.3383C68.7179 24.9443 69.2102 24.6365 69.7493 24.4331C70.2884 24.2296 70.8633 24.1347 71.4401 24.1539C71.8511 24.1526 72.2594 24.2185 72.6485 24.3488C73.0251 24.4759 73.3849 24.647 73.7201 24.8586C73.9709 25.0235 74.1837 25.1734 74.3737 25.3159C74.5637 25.1734 74.7841 25.0235 75.0349 24.8586C75.3694 24.6456 75.7293 24.4743 76.1065 24.3488C76.4932 24.2192 76.8989 24.1533 77.3073 24.1539C77.8842 24.1251 78.4611 24.2105 79.004 24.4049C79.547 24.5993 80.045 24.8988 80.4689 25.2859C80.8718 25.6894 81.1859 26.1707 81.3912 26.6997C81.5965 27.2286 81.6888 27.7937 81.6621 28.3595C81.6231 29.0832 81.4384 29.7921 81.1187 30.4446C80.799 31.0972 80.3508 31.6804 79.8001 32.1603L75.3921 36.3134C75.2616 36.4457 75.1057 36.551 74.9334 36.623C74.7612 36.6951 74.576 36.7326 74.3889 36.7332Z" fill="#005BA9"/>
<path d="M71.441 26.1105C71.1229 26.0864 70.8032 26.125 70.5005 26.2241C70.1978 26.3232 69.9181 26.4808 69.6778 26.6877C69.4667 26.9105 69.3051 27.1742 69.203 27.462C69.1009 27.7499 69.0607 28.0555 69.085 28.3595C69.0877 28.579 69.1262 28.7967 69.199 29.0042C69.2708 29.2277 69.365 29.4437 69.4802 29.6489C69.6018 29.8363 69.7386 30.0237 69.883 30.2111C70.0274 30.3985 70.1414 30.5185 70.2098 30.5859C70.2432 30.6228 70.2788 30.6579 70.3162 30.6909L70.377 30.7509L74.3746 34.5442L78.3646 30.7959C79.1015 30.1955 79.5707 29.3344 79.6718 28.3969C79.6928 28.0932 79.6511 27.7884 79.5492 27.5011C79.4473 27.2137 79.2874 26.9498 79.079 26.7252C78.8375 26.5177 78.5566 26.3598 78.2525 26.2607C77.9485 26.1616 77.6274 26.1233 77.3082 26.148C77.1221 26.1488 76.9373 26.1791 76.761 26.2379C76.5455 26.3037 76.3408 26.3996 76.153 26.5228C75.9174 26.6727 75.7198 26.8152 75.5526 26.9426L75.1042 27.3399L74.3974 28.0371L73.721 27.3099C73.5766 27.175 73.4246 27.0401 73.265 26.9126C73.0753 26.7644 72.8774 26.6267 72.6722 26.5003C72.4847 26.3747 72.28 26.2762 72.0642 26.2079C71.864 26.1391 71.6529 26.1061 71.441 26.1105Z" fill="#FFD400"/>
<path d="M70.0709 53.0307C69.4893 52.4084 69.0414 51.6765 68.754 50.879C68.4667 50.0816 68.3459 49.235 68.3989 48.3903V40.5488H71.0589V48.2928C71.0589 51.0216 72.2546 52.386 74.6461 52.386C77.0375 52.386 78.2307 51.0216 78.2257 48.2928V40.5488H80.8097V48.3903C80.8653 49.2316 80.7501 50.0754 80.4708 50.8722C80.1915 51.669 79.7538 52.4029 79.1833 53.0307C77.9014 54.0791 76.2885 54.6529 74.6233 54.6529C72.958 54.6529 71.3451 54.0791 70.0633 53.0307H70.0709Z" fill="#005BA9"/>
<path d="M89.8473 48.6302L87.5673 50.8791V54.4325H84.9453V40.5488H87.5673V47.6781L94.5517 40.5488H97.5005L91.5649 46.7635L97.8653 54.4475H94.8253L89.8473 48.6302Z" fill="#005BA9"/>
<path d="M109.439 54.4474L106.551 50.3768C106.371 50.3869 106.191 50.3869 106.011 50.3768H102.819V54.4249H100.197V40.5487H106.011C107.106 40.5251 108.194 40.7294 109.203 41.1484C110.058 41.4977 110.787 42.0934 111.293 42.8577C111.778 43.6674 112.03 44.5922 112.022 45.5327C112.014 46.4732 111.747 47.3937 111.248 48.1952C110.702 48.9758 109.92 49.5661 109.013 49.882L112.266 54.4474H109.439ZM108.496 43.4799C107.744 42.9405 106.826 42.6755 105.897 42.7302H102.857V48.2777H105.897C106.826 48.3325 107.744 48.0675 108.496 47.5281C108.778 47.2634 109.002 46.9453 109.154 46.5929C109.307 46.2404 109.386 45.8611 109.386 45.4777C109.386 45.0944 109.307 44.715 109.154 44.3626C109.002 44.0102 108.778 43.692 108.496 43.4274V43.4799Z" fill="#005BA9"/>
<path d="M124.641 51.2315H117.58L116.182 54.4475H113.469L119.822 40.5488H122.406L128.783 54.4475H126.039L124.641 51.2315ZM123.774 49.2074L121.107 43.1352L118.462 49.2074H123.774Z" fill="#005BA9"/>
<path d="M131.084 40.5488H133.706V54.4475H131.084V40.5488Z" fill="#005BA9"/>
<path d="M150.578 40.5488V54.4475H148.419L140.599 45.0393V54.4475H137.992V40.5488H140.158L147.948 49.9646V40.5488H150.578Z" fill="#005BA9"/>
<path d="M154.881 40.5488H157.503V54.4475H154.881V40.5488Z" fill="#005BA9"/>
<path d="M171 51.2315H163.94L162.549 54.4475H159.828L166.182 40.5488H168.766L175.142 54.4475H172.399L171 51.2315ZM170.134 49.2074L167.466 43.1352L164.829 49.2074H170.134Z" fill="#005BA9"/>
<path d="M190.001 40.5488V54.4475H187.842L180.052 45.0393V54.4475H177.445V40.5488H179.604L187.394 49.9646V40.5488H190.001Z" fill="#005BA9"/>
<path d="M69.7764 74.0962C68.8972 73.8591 68.077 73.4456 67.3672 72.8817L68.2716 70.8801C68.9145 71.357 69.6338 71.7244 70.3996 71.9671C71.2158 72.2476 72.0737 72.392 72.938 72.3944C73.7532 72.45 74.5677 72.2759 75.2864 71.8922C75.5184 71.7601 75.7108 71.5699 75.8443 71.3408C75.9777 71.1117 76.0475 70.852 76.0464 70.5878C76.0508 70.4018 76.0144 70.217 75.9397 70.0462C75.8649 69.8754 75.7535 69.7226 75.6132 69.5982C75.2945 69.3256 74.9218 69.1213 74.5188 68.9985C74.0704 68.8486 73.4624 68.6836 72.7024 68.4962C71.8154 68.3025 70.942 68.0521 70.088 67.7466C69.4378 67.4974 68.8587 67.0961 68.4008 66.5771C67.8963 65.9655 67.6416 65.1902 67.6864 64.4031C67.6775 63.659 67.8974 62.9298 68.3172 62.3115C68.7959 61.6372 69.4643 61.116 70.24 60.8122C71.2331 60.4141 72.2997 60.2251 73.3712 60.2575C74.2299 60.2568 75.0852 60.3626 75.9172 60.5723C76.6781 60.7504 77.4028 61.0546 78.0604 61.4719L77.232 63.4735C76.6232 63.1242 75.972 62.8521 75.294 62.6639C74.6591 62.4826 74.0017 62.3893 73.3408 62.3865C72.5459 62.3353 71.7532 62.5151 71.0608 62.9038C70.8251 63.0467 70.6311 63.2476 70.4979 63.4868C70.3646 63.726 70.2967 63.9952 70.3008 64.2681C70.2949 64.4521 70.3308 64.6351 70.4057 64.8037C70.4807 64.9723 70.5928 65.1223 70.734 65.2427C71.0573 65.5128 71.4319 65.7166 71.836 65.8424C72.2768 65.9849 72.8848 66.1498 73.6524 66.3372C74.5297 66.53 75.393 66.7804 76.2364 67.0869C76.8985 67.3413 77.4898 67.7472 77.9616 68.2713C78.4647 68.8719 78.7198 69.6375 78.676 70.4153C78.6824 71.1567 78.4626 71.8828 78.0452 72.4994C77.5622 73.1728 76.8917 73.6936 76.1148 73.9987C75.1169 74.3996 74.0454 74.591 72.9684 74.561C71.887 74.562 70.8114 74.4054 69.7764 74.0962Z" fill="#005BA9"/>
<path d="M90.7649 61.0522C91.6167 61.4035 92.3439 61.9956 92.8549 62.754C93.3271 63.5499 93.576 64.4556 93.576 65.3778C93.576 66.3 93.3271 67.2056 92.8549 68.0016C92.3468 68.7661 91.6192 69.3639 90.7649 69.7183C89.7522 70.1347 88.6621 70.3365 87.5653 70.3105H84.3581V74.3212H81.7285V60.4525H87.5425C88.6475 60.4258 89.7457 60.6302 90.7649 61.0522ZM90.0505 67.4693C90.3315 67.2054 90.5552 66.8879 90.708 66.5361C90.8609 66.1843 90.9397 65.8055 90.9397 65.4228C90.9397 65.04 90.8609 64.6613 90.708 64.3095C90.5552 63.9577 90.3315 63.6402 90.0505 63.3762C89.296 62.8357 88.3745 62.5707 87.4437 62.6265H84.4037V68.144H87.4437C88.3651 68.218 89.2846 67.98 90.0505 67.4693Z" fill="#005BA9"/>
<path d="M96.7109 60.4521H99.3329V74.3508H96.7109V60.4521Z" fill="#005BA9"/>
<path d="M112.896 74.3516L110.008 70.2809C109.828 70.2912 109.648 70.2912 109.468 70.2809H106.276V74.3291H103.654V60.4529H109.438C110.535 60.43 111.625 60.6343 112.638 61.0526C113.501 61.3976 114.24 61.9904 114.758 62.7544C115.269 63.5439 115.533 64.4641 115.518 65.4007C115.548 66.3554 115.283 67.2965 114.758 68.0994C114.2 68.8875 113.401 69.4787 112.478 69.7862L115.731 74.3516H112.896ZM111.946 63.3541C111.194 62.8147 110.275 62.5497 109.347 62.6044H106.307V68.1369H109.347C110.275 68.1917 111.194 67.9267 111.946 67.3873C112.244 67.1354 112.48 66.819 112.634 66.4628C112.788 66.1065 112.857 65.72 112.835 65.3332C112.849 64.9584 112.776 64.5855 112.622 64.2426C112.468 63.8997 112.237 63.5959 111.946 63.3541Z" fill="#005BA9"/>
<path d="M118.918 60.4521H121.54V74.3508H118.918V60.4521Z" fill="#005BA9"/>
<path d="M128.721 62.6412H124.039V60.4521H136.039V62.6412H131.35V74.3508H128.728L128.721 62.6412Z" fill="#005BA9"/>
</g>
<defs>
<clipPath id="clip0_73_363">
<rect width="190" height="93.5385" fill="white"/>
</clipPath>
</defs>
</svg>
