<svg width="122" height="44" viewBox="0 0 122 44" fill="none" xmlns="http://www.w3.org/2000/svg">
<g clip-path="url(#clip0_52_2)">
<path d="M0.0636077 0H6.26677C7.39387 2.33876 8.49084 4.69289 9.62114 7.03037C10.0184 7.84285 10.3849 8.67071 10.8027 9.47229C12.3162 6.31785 13.8085 3.15252 15.3264 0H21.5117C21.5001 5.14271 21.5097 10.2854 21.5072 15.4275C21.2586 15.4448 21.0087 15.4486 20.7601 15.4441C19.3151 15.4281 17.8696 15.4659 16.4253 15.4262C16.4292 13.1675 16.4266 10.9089 16.4273 8.6502C16.4298 8.32213 16.4375 7.99279 16.4068 7.666C16.2722 7.86976 16.1665 8.09082 16.0678 8.31445C14.9875 10.6071 13.8995 12.8965 12.8204 15.1904C12.7762 15.2737 12.7275 15.3544 12.6795 15.4358C11.8708 15.455 11.0609 15.4358 10.2516 15.4422C9.79158 15.432 9.33023 15.4698 8.87145 15.4211C7.68669 12.9279 6.50834 10.4302 5.32935 7.93384C5.2736 7.82619 5.21273 7.72111 5.15122 7.6173C5.13712 10.1188 5.14929 12.621 5.14609 15.1225C5.14289 15.2263 5.13712 15.3307 5.13071 15.4352C3.44424 15.4473 1.75649 15.4467 0.0700153 15.4358C0.0552778 10.2905 0.0674522 5.14527 0.0636077 0Z" fill="#212121"/>
<path d="M24.7301 0H38.894C38.8882 1.32637 38.9049 2.65337 38.8869 3.97974C37.8431 4.0169 36.7981 3.98359 35.7543 3.99512C33.8179 3.99576 31.8822 3.99256 29.9458 3.99576C29.9375 4.45006 29.9375 4.90499 29.9465 5.35929C32.2455 5.36249 34.5445 5.35801 36.8436 5.36057C37.2203 5.36314 37.5984 5.33622 37.9732 5.38812C37.9732 6.6408 37.9713 7.89412 37.9738 9.1468C36.7436 9.18525 35.5114 9.15129 34.2805 9.16282C32.835 9.17179 31.3888 9.14488 29.9439 9.175C29.9413 9.93686 29.9407 10.6987 29.9439 11.4606C30.3636 11.4984 30.7846 11.476 31.2049 11.4798C33.8083 11.483 36.411 11.4747 39.0144 11.4836C39.0439 12.0552 39.0176 12.6274 39.0266 13.1996C39.0183 13.9448 39.0413 14.6906 39.0176 15.4352C37.8444 15.4538 36.6712 15.4358 35.498 15.4422C31.9117 15.4371 28.3247 15.4519 24.7378 15.4352C24.7166 13.7077 24.7359 11.9796 24.7294 10.2521C24.7294 6.83495 24.7282 3.41716 24.7301 0Z" fill="#212121"/>
<path d="M40.2393 0H57.5243C57.5122 1.46733 57.5263 2.9353 57.5186 4.40327C55.5162 4.43147 53.5132 4.38789 51.5115 4.42314C51.4852 4.76402 51.4942 5.10554 51.4974 5.44642C51.4961 8.77387 51.498 12.102 51.4961 15.4294C50.8201 15.4621 50.1428 15.4326 49.4662 15.4422C48.4057 15.4313 47.344 15.4634 46.2842 15.4275C46.2842 12.8055 46.2848 10.1829 46.2848 7.56092C46.2727 6.5152 46.3073 5.46821 46.2688 4.42314C44.2632 4.39046 42.2551 4.42506 40.2489 4.40712C40.2252 2.93851 40.2463 1.46925 40.2393 0Z" fill="#212121"/>
<path d="M62.4174 0H68.5501C70.669 4.74096 72.7861 9.48319 74.9032 14.2254C75.0775 14.6285 75.2825 15.0187 75.4247 15.4352C74.3117 15.4531 73.1981 15.4365 72.0851 15.4422C71.281 15.4281 70.4749 15.4698 69.672 15.4236C69.1652 14.219 68.6577 13.015 68.1643 11.8047C68.1278 11.7322 68.0964 11.6528 68.033 11.5996C67.7414 11.5516 67.4448 11.5817 67.1513 11.5778C65.8262 11.5759 64.5011 11.583 63.1767 11.5733C63.0581 11.5772 62.9364 11.5746 62.8262 11.6201C62.6968 11.8296 62.625 12.068 62.5282 12.2929C62.0944 13.3354 61.6555 14.3754 61.2256 15.4192C60.9802 15.4467 60.7328 15.4512 60.4874 15.4441C58.8272 15.4352 57.167 15.4512 55.5068 15.4371C56.8857 12.3403 58.2743 9.24739 59.6557 6.15126C60.5803 4.10276 61.4774 2.04145 62.4174 0ZM65.2643 4.8422C64.8773 5.82063 64.4486 6.7824 64.077 7.76597C64.9804 7.78583 65.8858 7.78647 66.7893 7.76597C66.7585 7.65576 66.729 7.54555 66.688 7.43982C66.2722 6.45306 65.8909 5.45155 65.47 4.46799C65.3604 4.56667 65.32 4.71212 65.2643 4.8422Z" fill="#212121"/>
<path d="M32.2421 17.055C33.6953 16.6481 35.2165 16.5398 36.7197 16.6071C38.6997 16.6987 40.7014 17.1646 42.4051 18.2064C43.2984 18.7594 44.1032 19.4828 44.6472 20.3889C44.6862 20.4581 44.7061 20.5356 44.7305 20.6112C43.4586 21.0841 42.1809 21.5403 40.9071 22.0087C40.5604 22.1247 40.2279 22.2823 39.8722 22.3694C39.7159 22.0625 39.5397 21.7556 39.259 21.5454C38.5247 20.9604 37.5668 20.7727 36.6537 20.6945C35.7816 20.6458 34.8884 20.656 34.0458 20.9085C33.7652 21.0033 33.4685 21.1264 33.2878 21.3737C33.1558 21.5602 33.1808 21.8485 33.3769 21.9818C33.6806 22.2022 34.0625 22.2688 34.4226 22.3457C35.9194 22.6257 37.4508 22.6296 38.9508 22.8872C40.2176 23.098 41.4889 23.4075 42.6281 24.0168C43.4579 24.4666 44.2134 25.1228 44.6055 25.9974C44.9772 26.8067 45.0118 27.7351 44.874 28.6034C44.6965 29.6068 44.1326 30.5275 43.3375 31.1606C42.2924 32.0026 40.9904 32.4447 39.6903 32.7061C38.1614 32.9977 36.5954 33.0797 35.0428 32.9887C32.8105 32.8375 30.5595 32.141 28.8064 30.7146C28.0945 30.1059 27.4428 29.4037 27.0039 28.5707C27.1801 28.4605 27.382 28.4098 27.5774 28.3464C29.0172 27.8729 30.4518 27.3808 31.8987 26.9297C32.2773 27.6493 32.954 28.1632 33.7005 28.4573C34.354 28.7296 35.0582 28.8635 35.7611 28.9301C36.6883 28.9622 37.6315 28.9635 38.5369 28.7328C38.881 28.6322 39.2552 28.5002 39.4647 28.1894C39.6774 27.8863 39.5941 27.4269 39.2956 27.2103C38.9963 26.9912 38.624 26.9118 38.2691 26.831C36.8677 26.5613 35.4337 26.576 34.0221 26.3876C32.722 26.2217 31.4174 25.9487 30.2269 25.3842C29.3894 24.9805 28.5988 24.3833 28.1694 23.5388C27.7735 22.7981 27.7139 21.9228 27.8362 21.1039C28.0201 20.0198 28.6673 19.0452 29.5298 18.3769C30.3224 17.7419 31.2714 17.3324 32.2421 17.055Z" fill="#212121"/>
<path d="M72.0395 16.6795C73.7157 16.5565 75.424 16.6757 77.0413 17.1543C78.8187 17.6791 80.4975 18.7203 81.533 20.2857C82.2257 21.3218 82.6332 22.5379 82.744 23.7772C82.8754 24.9709 82.787 26.1935 82.4493 27.3481C82.1219 28.4509 81.5349 29.4793 80.7295 30.3026C79.9619 31.0927 79.0155 31.6982 77.9979 32.1147C77.0208 32.5306 75.9725 32.7427 74.9249 32.8881C73.4857 33.0445 72.0229 33.015 70.5965 32.7593C69.333 32.528 68.0931 32.1038 67.0038 31.4144C65.7652 30.6403 64.7611 29.4882 64.1992 28.1369C63.7545 27.063 63.5456 25.8942 63.5738 24.7332C63.5495 22.7417 64.2312 20.6919 65.6627 19.272C67.321 17.5766 69.7219 16.8301 72.0395 16.6795ZM72.4989 21.0533C71.6121 21.1514 70.7138 21.4429 70.0429 22.0516C69.4124 22.6148 69.0465 23.4337 68.9728 24.2699C68.8402 25.3836 69.1029 26.6042 69.909 27.4224C70.6882 28.2234 71.83 28.5495 72.9199 28.5937C74.0752 28.6328 75.3093 28.4086 76.2218 27.6544C77.0336 27.0047 77.443 25.9513 77.4501 24.928C77.4892 24.0155 77.2425 23.0621 76.6383 22.3611C76.1827 21.8145 75.5393 21.4519 74.864 21.2507C74.0989 21.029 73.2896 20.9803 72.4989 21.0533Z" fill="#212121"/>
<path d="M0.0713555 17.0556C1.80076 17.0543 3.53016 17.0524 5.25892 17.0569C5.26725 17.1588 5.27558 17.2607 5.27814 17.3632C5.27494 18.7017 5.27494 20.0403 5.27686 21.3788C7.35676 21.3769 9.43729 21.373 11.5178 21.3807C11.5576 19.9377 11.5159 18.4922 11.5377 17.0486C13.2812 17.0454 15.026 17.0319 16.7695 17.0556C16.7663 22.1951 16.7669 27.3353 16.7695 32.4748C15.026 32.4985 13.2812 32.485 11.5377 32.4818C11.5262 30.6249 11.537 28.7687 11.5326 26.9117C11.5287 26.5343 11.5486 26.1556 11.5178 25.7789C9.43729 25.7872 7.35676 25.7827 5.27622 25.7814C5.26597 28.0151 5.29416 30.2494 5.26276 32.4825C3.53144 32.4959 1.79948 32.4947 0.0681518 32.4838C0.0559774 27.5294 0.0687925 22.5751 0.0623849 17.6208C0.0598219 17.4324 0.0630257 17.244 0.0713555 17.0556Z" fill="#212121"/>
<path d="M19.9476 17.0608C21.6847 17.0512 23.4237 17.048 25.1614 17.0627C25.1595 22.1997 25.1582 27.3366 25.162 32.4736C24.1227 32.5139 23.0821 32.4787 22.0422 32.4902C21.3438 32.4812 20.6441 32.5094 19.9463 32.4768C19.9495 27.3379 19.9469 22.199 19.9476 17.0608Z" fill="#212121"/>
<path d="M45.7581 17.0556C51.5153 17.0576 57.2731 17.046 63.0303 17.0614C63.0316 18.5255 63.029 19.9897 63.0316 21.4538C61.0279 21.4846 59.0224 21.45 57.0181 21.4711C56.9886 25.1375 57.011 28.8065 57.0072 32.4735C55.8827 32.5132 54.7562 32.4793 53.6311 32.4902C53.0179 32.4812 52.404 32.5094 51.7915 32.4767C51.7953 28.9128 51.7902 25.349 51.794 21.7851C51.7915 21.68 51.785 21.5755 51.7799 21.4711C49.7718 21.4544 47.763 21.4756 45.7549 21.4608C45.7485 19.9929 45.7421 18.5236 45.7581 17.0556Z" fill="#212121"/>
<path d="M84.9153 17.0595C87.7083 17.048 90.5014 17.0576 93.2944 17.0544C94.713 17.0384 96.1567 17.0717 97.5234 17.4914C98.5665 17.8022 99.5879 18.3756 100.186 19.3137C100.819 20.2966 100.916 21.5256 100.759 22.6584C100.582 23.7894 99.9 24.8268 98.919 25.4214C98.523 25.6879 98.0687 25.8366 97.6342 26.0211C97.9162 26.4396 98.2731 26.8016 98.5832 27.1995C99.8577 28.7444 101.131 30.2892 102.406 31.8341C102.58 32.0468 102.769 32.2487 102.919 32.4806C101.313 32.5037 99.7065 32.4838 98.1001 32.4902C97.6785 32.4819 97.2562 32.5101 96.8359 32.4761C95.2583 30.5263 93.6942 28.5656 92.1225 26.6119C92.0264 26.469 91.838 26.5081 91.6932 26.4991C91.1761 26.5139 90.659 26.4838 90.1432 26.5158C90.1143 28.5009 90.1342 30.4866 90.1342 32.4723C89.48 32.5146 88.8232 32.4787 88.1684 32.4902C87.0829 32.4832 85.9969 32.505 84.9121 32.48C84.9127 27.3398 84.9056 22.199 84.9153 17.0595ZM90.1137 20.847C90.1143 21.4974 90.1169 22.1478 90.1118 22.7981C90.445 22.8372 90.7807 22.8199 91.1158 22.8212C92.0981 22.8218 93.0804 22.8206 94.0627 22.8218C94.4093 22.8218 94.781 22.8071 95.0796 22.6059C95.5915 22.2926 95.6127 21.4506 95.1379 21.0944C94.8681 20.8957 94.5221 20.8419 94.1953 20.8445C92.8344 20.8502 91.474 20.8438 90.1137 20.847Z" fill="#212121"/>
<path d="M100.796 17.0531C102.503 17.0557 104.21 17.0538 105.917 17.055C106.206 17.0557 106.495 17.0397 106.784 17.0711C107.939 18.7357 109.084 20.4075 110.245 22.0677C110.533 22.4643 110.782 22.8923 111.106 23.262C111.432 22.875 111.684 22.4329 111.985 22.0273C113.132 20.3748 114.273 18.7184 115.426 17.0704C117.406 17.0358 119.389 17.0602 121.37 17.0582C121.141 17.4568 120.821 17.7932 120.555 18.1655C118.952 20.2575 117.349 22.3496 115.745 24.441C115.064 25.3041 114.434 26.205 113.781 27.0886C113.721 27.1655 113.687 27.2591 113.692 27.3571C113.683 29.0654 113.71 30.7749 113.679 32.4825C111.943 32.496 110.206 32.4954 108.47 32.4832C108.44 30.7775 108.466 29.0699 108.455 27.3635C108.457 27.1995 108.345 27.0701 108.258 26.9432C107.892 26.4511 107.553 25.9391 107.189 25.4451C105.698 23.519 104.223 21.5788 102.746 19.6411C102.099 18.7768 101.427 17.9297 100.796 17.0531Z" fill="#212121"/>
<path d="M23.4541 35.3146C24.3005 34.884 25.2661 34.7495 26.2068 34.7636C27.0654 34.7527 27.9304 34.8924 28.7268 35.2191C29.4913 35.5293 30.2147 36.0367 30.6209 36.7717C30.1955 36.9582 29.7508 37.0934 29.3176 37.2587C28.9306 37.3881 28.5596 37.5637 28.1617 37.6585C28.0022 37.4336 27.8368 37.1895 27.5703 37.0825C26.8661 36.7685 26.053 36.757 25.3071 36.9056C25.0822 36.9697 24.7042 37.0966 24.8009 37.4009C24.9515 37.597 25.2206 37.6239 25.4455 37.6739C26.4176 37.836 27.4152 37.8238 28.3731 38.0737C29.0934 38.2531 29.843 38.5396 30.3236 39.1342C30.717 39.6122 30.7856 40.276 30.676 40.8674C30.5594 41.4582 30.1762 41.9759 29.6688 42.2931C28.8018 42.8525 27.7503 42.9762 26.745 43.0588H25.7332C24.6042 42.9441 23.4553 42.6289 22.5685 41.8907C22.2078 41.5819 21.8445 41.2359 21.667 40.7861C22.4705 40.5221 23.2663 40.2318 24.0782 39.9947C24.271 40.2087 24.4415 40.4561 24.7023 40.5957C25.3648 40.9847 26.1613 41.0321 26.9109 40.9828C27.2166 40.9571 27.5382 40.9148 27.801 40.7438C28.006 40.6169 28.056 40.2824 27.8593 40.1261C27.6664 39.9793 27.4178 39.9409 27.1858 39.8992C26.3234 39.7704 25.4443 39.7878 24.5882 39.6147C23.8462 39.459 23.0658 39.2322 22.5218 38.6722C22.0034 38.1506 21.9188 37.3183 22.1706 36.65C22.3949 36.0528 22.896 35.5991 23.4541 35.3146Z" fill="#212121"/>
<path d="M69.6791 34.8334C71.0618 34.6803 72.5452 34.8104 73.7517 35.5575C74.6424 36.0887 75.2607 37.028 75.4344 38.0469C75.6151 39.122 75.4766 40.2972 74.8468 41.2115C74.2477 42.0996 73.2487 42.6475 72.2184 42.8718C71.4841 43.0505 70.7216 43.0383 69.9719 43.007C68.8769 42.916 67.753 42.5661 66.9443 41.7927C66.3049 41.2 65.9204 40.3619 65.8301 39.4994C65.6801 38.423 65.9095 37.2696 66.5855 36.402C67.3314 35.4607 68.5123 34.977 69.6791 34.8334ZM69.9937 37.0665C69.4747 37.1818 68.9685 37.4779 68.7173 37.9616C68.4687 38.4505 68.4488 39.0381 68.602 39.5603C68.7404 40.0441 69.1293 40.4285 69.5862 40.6233C70.0277 40.8124 70.521 40.8438 70.9952 40.8008C71.5091 40.7476 72.0358 40.5509 72.376 40.1466C72.765 39.6949 72.8528 39.0522 72.7547 38.48C72.6708 37.9783 72.3498 37.5214 71.898 37.2837C71.3181 36.9755 70.6281 36.9544 69.9937 37.0665Z" fill="#212121"/>
<path d="M0 34.9853C1.04251 34.993 2.0863 34.9712 3.12881 34.9936C3.56389 35.8324 3.93873 36.7012 4.35586 37.5489C4.72237 38.2775 5.03378 39.0349 5.4349 39.7455C6.21918 38.1782 6.94644 36.5814 7.71535 35.0064C7.94089 34.9834 8.16772 34.9763 8.39391 34.9821C9.20703 34.9962 10.0208 34.9699 10.8339 34.9923C10.8685 36.4846 10.8384 37.9783 10.8486 39.4706C10.8358 40.5765 10.8736 41.6838 10.8313 42.7884C9.98362 42.7935 9.13526 42.8006 8.28754 42.7839C8.26704 41.4826 8.31638 40.1793 8.26447 38.8792C8.20681 38.9753 8.14978 39.0727 8.09788 39.1726C7.52504 40.374 6.97015 41.5844 6.38706 42.7807C5.92443 42.8134 5.46117 42.7788 4.99854 42.7967C4.82105 42.7923 4.63459 42.8179 4.46415 42.757C4.30909 42.5533 4.23027 42.3046 4.11942 42.0765C3.81378 41.4262 3.50622 40.7758 3.19673 40.1267C2.99169 39.7109 2.82317 39.2758 2.57968 38.8798C2.54252 40.1818 2.59186 41.4864 2.55534 42.7891C1.70377 42.8012 0.851565 42.7846 0 42.7955V34.9853Z" fill="#212121"/>
<path d="M12.3777 34.993C13.2639 34.984 14.1513 34.9699 15.0369 35.0006C15.0285 36.4475 15.0349 37.8937 15.0324 39.3405C15.0253 39.8095 15.2227 40.3074 15.6347 40.5611C16.0416 40.8059 16.5433 40.836 17.004 40.7713C17.4435 40.7066 17.8735 40.4484 18.0568 40.03C18.183 39.7551 18.2054 39.4475 18.2086 39.1489C18.208 37.7642 18.2054 36.3789 18.2086 34.9936C19.0826 34.9769 19.9572 34.9833 20.8319 34.9904C20.8613 36.0771 20.8351 37.1658 20.844 38.2531C20.828 39.0855 20.9241 39.9486 20.6288 40.747C20.3744 41.5159 19.7958 42.163 19.0679 42.5148C18.249 42.93 17.3122 43.0441 16.4042 43.0197C15.3278 42.998 14.1911 42.7314 13.3805 41.983C12.7064 41.3621 12.3925 40.4349 12.3848 39.534C12.3662 38.0205 12.3803 36.5064 12.3777 34.993Z" fill="#212121"/>
<path d="M31.9297 34.9994C33.0331 34.9655 34.1377 34.9949 35.2418 34.9853C36.522 34.9892 37.8029 34.9783 39.0837 34.9898C39.0895 35.6645 39.1094 36.3412 39.0722 37.0152C37.578 37.0159 36.0831 36.9947 34.5901 37.0242C34.567 37.244 34.5664 37.4657 34.5901 37.6855C35.9312 37.7169 37.2742 37.69 38.6166 37.6977C38.6205 38.3307 38.6179 38.9631 38.6192 39.5962C38.3059 39.6379 37.9906 39.6154 37.6766 39.618C36.6508 39.6199 35.6249 39.6167 34.5991 39.6186C34.551 39.998 34.5741 40.3824 34.5895 40.7637C36.1061 40.7944 37.6241 40.7694 39.1414 40.7746C39.1907 41.0847 39.169 41.4 39.1696 41.7133C39.1651 42.0721 39.1882 42.4316 39.1536 42.7904C36.7463 42.7904 34.3383 42.8013 31.931 42.7846C31.9316 40.1896 31.9342 37.5945 31.9297 34.9994Z" fill="#212121"/>
<path d="M40.4492 34.9968C41.3328 34.9789 42.219 34.9738 43.1026 34.9994C43.0981 36.4251 43.1013 37.8514 43.1 39.2771C43.0975 39.7179 43.2359 40.1921 43.5896 40.4785C43.9926 40.7848 44.5295 40.8386 45.0184 40.7803C45.442 40.7258 45.8687 40.508 46.0821 40.1248C46.2359 39.848 46.2827 39.527 46.2839 39.2136C46.2794 37.8085 46.2839 36.4026 46.2801 34.9968C47.1522 34.9738 48.0255 34.984 48.8982 34.9911C48.929 36.5045 48.9033 38.0193 48.911 39.5334C48.9091 40.5612 48.4766 41.637 47.6084 42.2303C46.7248 42.8679 45.5996 43.0435 44.5334 43.0204C43.4806 43.0101 42.3708 42.7673 41.5526 42.0669C40.9964 41.603 40.6498 40.9232 40.5229 40.2164C40.4294 39.7602 40.4518 39.2925 40.4511 38.8298C40.4505 37.5522 40.4518 36.2745 40.4492 34.9968Z" fill="#212121"/>
<path d="M50.4388 34.9936C51.4794 34.9789 52.5206 34.9814 53.5605 34.9917C54.1334 36.1341 54.6569 37.3016 55.2214 38.4492C55.4392 38.8772 55.6097 39.3309 55.8634 39.741C56.6547 38.1794 57.3788 36.5814 58.1432 35.0058C59.1819 34.9616 60.225 34.9904 61.265 34.991C61.2957 36.9748 61.2688 38.9599 61.2784 40.9443C61.2663 41.5594 61.3028 42.1758 61.2611 42.7897C60.4115 42.7916 59.5619 42.7999 58.7129 42.7852C58.7103 41.851 58.7148 40.9174 58.7122 39.9832C58.709 39.6173 58.7302 39.2501 58.6904 38.8862C58.5341 39.1117 58.4405 39.3712 58.3207 39.616C57.8145 40.6694 57.3314 41.7337 56.8175 42.7826C56.2671 42.8076 55.7167 42.782 55.1663 42.7961C55.0497 42.789 54.8824 42.8217 54.8382 42.6782C54.4762 41.9311 54.1314 41.1756 53.7694 40.4285C53.5093 39.9133 53.3087 39.3668 53.0076 38.8747C52.9698 40.1792 53.0172 41.4857 52.9839 42.791C52.1368 42.791 51.289 42.798 50.4426 42.7871C50.4317 40.1895 50.4388 37.5912 50.4388 34.9936Z" fill="#212121"/>
<path d="M76.6543 34.9994C78.2703 34.9667 79.8876 34.9949 81.5042 34.9853C82.2475 34.9917 82.9914 34.9731 83.7347 34.993C83.736 35.6889 83.7443 36.3847 83.7295 37.0799C82.259 37.0902 80.7878 37.0607 79.3179 37.0934C79.2923 37.351 79.2917 37.6098 79.3179 37.8681C80.6392 37.8988 81.9617 37.8636 83.2829 37.8841C83.2932 38.5601 83.2881 39.2367 83.2868 39.9134C81.9643 39.9409 80.6405 39.9089 79.3179 39.9275C79.282 40.879 79.3141 41.8318 79.3045 42.784C78.4215 42.7981 77.5379 42.7974 76.6556 42.7846C76.6569 40.1895 76.6588 37.5945 76.6543 34.9994Z" fill="#212121"/>
<path d="M87.5469 34.9911C88.501 34.9795 89.455 34.9847 90.4091 34.9872C90.6392 35.5479 90.7929 36.1367 90.9935 36.7089C91.3491 37.7399 91.6464 38.7914 92.0238 39.8147C92.2481 39.3476 92.3795 38.8407 92.5672 38.3576C92.969 37.2408 93.3643 36.1207 93.7667 35.0039C94.6951 34.9635 95.6268 34.9904 96.5572 34.9904C97.0576 36.3366 97.526 37.6951 98.0136 39.0464C98.1155 39.2963 98.1584 39.5782 98.3289 39.7961C98.8607 38.1968 99.3618 36.5865 99.9 34.9898C100.855 34.9827 101.811 34.9795 102.766 34.9923C101.836 37.5079 100.873 40.0114 99.9378 42.5257C99.9019 42.6148 99.8609 42.7019 99.8212 42.7897C98.8915 42.7891 97.9604 42.8057 97.0313 42.7807C96.5046 41.4665 95.9927 40.1466 95.4724 38.8305C95.3718 38.5863 95.2975 38.3307 95.1635 38.1026C94.5036 39.6494 93.9352 41.2352 93.281 42.7846C92.3513 42.7974 91.4209 42.7987 90.4918 42.7839C89.4948 40.1927 88.5324 37.5868 87.5469 34.9911Z" fill="#212121"/>
<path d="M105.481 34.993C106.331 34.9712 107.181 34.9956 108.031 34.9828C108.216 34.9783 108.401 34.9853 108.587 35.0033C109.65 37.3593 110.705 39.7199 111.766 42.0779C111.874 42.3111 111.986 42.5437 112.068 42.7885C111.109 42.7962 110.15 42.7923 109.191 42.791C108.861 42.1625 108.661 41.4717 108.333 40.8419C107.456 40.8425 106.576 40.8213 105.699 40.8521C105.408 41.489 105.175 42.1509 104.877 42.7846C103.921 42.8 102.965 42.793 102.01 42.7878C102.465 41.6851 102.981 40.6061 103.458 39.5116C104.135 38.0065 104.796 36.4943 105.481 34.993ZM106.744 37.9251C106.614 38.2506 106.457 38.5659 106.36 38.9036C106.808 38.9285 107.26 38.9311 107.709 38.9023C107.514 38.3371 107.263 37.7931 107.047 37.2363C106.914 37.451 106.842 37.6944 106.744 37.9251Z" fill="#212121"/>
<path d="M112.896 34.9924C113.879 34.9731 114.864 34.9924 115.848 34.9853C116.593 34.9904 117.339 34.9693 118.084 35.0109C118.755 35.0539 119.443 35.1903 120.019 35.5549C120.448 35.8228 120.761 36.2668 120.865 36.7621C121.023 37.4868 120.903 38.3185 120.377 38.8715C120.097 39.1848 119.705 39.3534 119.323 39.5033C119.426 39.659 119.538 39.8096 119.662 39.9512C120.452 40.8764 121.194 41.8433 122 42.7558V42.8C121.296 42.7571 120.589 42.791 119.885 42.7795C119.558 42.7673 119.225 42.8192 118.904 42.7551C118.699 42.5738 118.561 42.3316 118.383 42.1266C117.874 41.5025 117.372 40.8726 116.869 40.2434C116.735 40.0825 116.624 39.8961 116.454 39.7724C116.152 39.7154 115.843 39.7474 115.54 39.7513C115.48 40.7592 115.547 41.7709 115.509 42.7795C114.641 42.7821 113.772 42.7821 112.905 42.7801C112.846 42.042 112.898 41.3 112.881 40.5599C112.891 38.7043 112.861 36.8473 112.896 34.9924ZM115.527 36.9127C115.508 37.2344 115.509 37.5573 115.529 37.8796C116.02 37.9123 116.51 37.8841 117.002 37.8937C117.296 37.8867 117.596 37.9219 117.887 37.8559C118.203 37.7694 118.328 37.326 118.099 37.0896C117.919 36.8928 117.63 36.9095 117.386 36.905C116.766 36.914 116.146 36.898 115.527 36.9127Z" fill="#212121"/>
</g>
<defs>
<clipPath id="clip0_52_2">
<rect width="122" height="43.0588" fill="white"/>
</clipPath>
</defs>
</svg>
