<svg width="48" height="90" viewBox="0 0 48 90" fill="none" xmlns="http://www.w3.org/2000/svg">
<path d="M21.2784 85.8111C17.1266 82.3535 14.1856 77.1682 13.2342 71.2149H0V7.93462C7.0928 11.8717 12.1961 20.5139 12.7151 29.4441L14.7911 47.2089L13.8396 47.1127C11.7637 47.1127 9.86078 49.3214 9.86078 51.5299C9.86078 53.5465 11.2447 55.2749 13.1477 55.755L15.5696 56.3312C19.5485 47.9769 21.7974 39.8148 21.7974 31.7487C21.7974 24.5469 20.9324 17.249 20.7594 9.85511C20.7594 6.5903 21.884 3.51752 23.7004 1.21289C25.5168 3.51752 26.6412 6.5903 26.6412 9.85511C26.6412 17.249 25.6034 24.4509 25.6034 31.7487C25.6034 39.7188 27.8522 47.9769 31.8312 56.3312L34.253 55.755C36.0696 55.2749 37.54 53.5465 37.54 51.5299C37.54 49.3214 35.7236 47.1127 33.5612 47.1127L32.5232 47.3048L34.5126 29.5402C35.5506 20.5139 40.2214 11.8717 47.3142 7.93462V71.2149H34.1666C33.1286 77.1682 30.3606 82.5459 26.1224 85.8111C25.0844 86.5788 24.3058 87.5389 23.7004 88.7876C23.0948 87.5389 22.23 86.5788 21.2784 85.8111ZM6.31428 49.3214C6.83336 47.0168 8.3903 44.9043 10.4662 43.6559L8.90928 29.0602C8.3903 24.4509 6.66038 20.4179 4.06538 17.057V49.3214H6.31428ZM12.9747 66.798C12.9747 64.5893 13.2342 62.5727 13.6666 60.4601L11.8502 59.9801C9.16872 59.0199 7.00636 56.7153 6.31428 53.6424H4.06538V66.7018H12.9747V66.798ZM21.711 66.798C21.711 64.109 19.8945 61.8046 17.4726 61.4205C17.04 63.1489 16.7806 64.8773 16.7806 66.798H21.711ZM21.711 71.2149H17.2996C17.9916 74.672 19.5485 77.8408 21.711 80.5295V71.2149ZM27.9388 57.4836C26.2088 54.0266 24.6518 50.3777 23.7004 46.6327C22.6624 50.3777 21.1054 54.0266 19.462 57.4836C21.192 57.9635 22.576 59.2118 23.7004 60.6522C24.8248 59.2118 26.2088 57.9635 27.9388 57.4836ZM30.6202 66.798C30.6202 64.8773 30.3606 63.1489 29.9282 61.4205C27.5062 61.7085 25.6898 64.109 25.6898 66.798H30.6202ZM30.1012 71.2149H25.6898V80.5295C27.8522 77.7444 29.4092 74.672 30.1012 71.2149ZM43.4218 66.798V53.6424H41.173C40.481 56.6192 38.3186 59.0199 35.6372 59.9801L33.8206 60.4601C34.253 62.4768 34.5126 64.4932 34.5126 66.798H43.4218ZM43.4218 49.3214V17.057C40.827 20.3218 39.0106 24.4509 38.578 29.0602L37.021 43.6559C39.0106 44.9043 40.5674 46.9207 41.173 49.3214H43.4218Z" fill="#426CFF"/>
</svg>
