<svg width="123" height="40" viewBox="0 0 123 40" fill="none" xmlns="http://www.w3.org/2000/svg">
<path d="M22.2171 22.6033C23.3131 22.4916 24.428 22.4853 25.5224 22.6174C25.6026 22.6426 25.7614 22.6945 25.84 22.7196C27.1106 22.8737 28.3072 23.4634 29.3513 24.1914C29.3639 24.2009 29.3922 24.2213 29.4048 24.2308C30.0495 24.7041 30.6093 25.2827 31.0873 25.9227C31.0983 25.9384 31.1203 25.9683 31.1313 25.984C31.2005 26.0831 31.3373 26.2828 31.405 26.3819C31.416 26.3976 31.4348 26.429 31.4443 26.4448C31.4946 26.536 31.5952 26.7168 31.6455 26.8064C31.7996 27.1351 31.9569 27.4637 32.1157 27.7924C32.199 27.981 32.2777 28.1745 32.3154 28.3805C32.3406 28.4606 32.3909 28.6179 32.416 28.6981C32.85 30.4215 32.74 32.2959 32.0654 33.9454C32.0591 33.9611 32.0449 33.9925 32.0386 34.0083C31.9081 34.307 31.7619 34.5995 31.6015 34.8841C31.5936 34.8983 31.5763 34.9281 31.5685 34.9423C31.0889 35.7663 30.4505 36.488 29.7224 37.0981C29.7098 37.1076 29.6847 37.1296 29.6721 37.139C29.4803 37.29 29.2853 37.4346 29.0872 37.5714C29.073 37.5793 29.0463 37.5982 29.0321 37.6076C28.4597 37.9803 27.8418 38.2806 27.2002 38.5133C27.1782 38.5212 27.1326 38.5369 27.1106 38.5448C27.0257 38.5731 26.8543 38.6297 26.7678 38.658C26.7442 38.6658 26.697 38.68 26.6734 38.6863C23.67 39.5401 20.1855 39.0354 17.7733 36.9739C17.7608 36.9629 17.7356 36.9409 17.723 36.9299C15.4367 34.9942 14.4759 31.7376 15.1866 28.849C15.2087 28.7673 15.2543 28.6022 15.2763 28.5204L15.2904 28.3773C15.325 28.3003 15.3942 28.1462 15.4304 28.0691C15.5373 27.6037 15.7637 27.1775 15.9917 26.7608C15.9996 26.7451 16.0169 26.7152 16.0263 26.7011C16.204 26.396 16.399 26.1004 16.616 25.8205C16.627 25.8063 16.6475 25.7796 16.6585 25.767C17.0579 25.2528 17.517 24.7874 18.0328 24.3864C18.0454 24.377 18.0721 24.355 18.0863 24.3455C18.8662 23.7386 19.7578 23.2826 20.6965 22.9728C20.7138 22.9665 20.7469 22.9555 20.7642 22.9508C21.1337 22.8407 21.5063 22.7102 21.8979 22.7008C21.9781 22.6772 22.1369 22.6284 22.2171 22.6033ZM21.2249 27.0297C21.2107 27.0407 21.184 27.0612 21.1714 27.0706C20.8994 27.2845 20.6572 27.5313 20.4449 27.8018C20.4339 27.8159 20.4119 27.8474 20.3993 27.8615C20.3317 27.9653 20.1949 28.1713 20.1257 28.2751C20.1163 28.2924 20.0974 28.3254 20.088 28.3411C19.0517 30.2328 19.3253 32.8839 20.9764 34.3495C22.1683 35.3983 23.9468 35.598 25.4155 35.0822C25.4312 35.0759 25.4642 35.0634 25.4799 35.0571C26.1357 34.8149 26.708 34.3809 27.1467 33.8416C27.1593 33.8258 27.1829 33.796 27.1939 33.7802C27.2631 33.6796 27.3999 33.4768 27.4691 33.3761C27.4785 33.3588 27.499 33.3258 27.5084 33.3101C27.6169 33.1198 27.7113 32.9217 27.7915 32.7173C27.7977 32.6953 27.8103 32.6528 27.8182 32.6308L27.8465 32.4908C27.8952 32.4374 27.9896 32.3289 28.0383 32.2754L27.9581 32.159C28.2223 31.3099 28.2207 30.3507 27.9911 29.4969L28.0698 29.3774L28.0053 29.2186L27.8685 29.1855C27.8528 28.7484 27.5745 28.3773 27.3559 28.0156C27.3464 28.0015 27.3276 27.9732 27.3166 27.959C26.0209 26.0155 23.0584 25.6522 21.2249 27.0297Z" fill="#FF1616"/>
<path d="M65.3124 22.6143C67.2685 22.4162 69.2844 22.4869 71.1634 23.1112C71.1823 23.1175 71.2185 23.1301 71.2358 23.1363C71.8176 23.3266 72.3805 23.5766 72.9136 23.8785C72.8837 23.954 72.8208 24.1065 72.7894 24.182C72.7831 24.1993 72.7689 24.2355 72.7626 24.2528C72.3962 25.1161 72.0723 25.9966 71.6871 26.852C71.6792 26.8678 71.6651 26.9008 71.6572 26.9165C71.6242 26.9841 71.5597 27.1178 71.5283 27.1854C71.3238 27.0911 71.1241 26.9951 70.926 26.8992C70.9087 26.8929 70.8773 26.8772 70.8616 26.8709C70.3254 26.6225 69.7687 26.418 69.1995 26.2639C69.1806 26.2592 69.1429 26.2498 69.124 26.2451C67.7135 25.9668 65.9776 25.6743 64.7825 26.6759C64.7668 26.6979 64.7353 26.7404 64.7196 26.7624C64.5734 27.0958 64.4649 27.4826 64.6127 27.8364C64.7652 28.132 65.0687 28.3018 65.3533 28.4544C65.3706 28.4622 65.4036 28.478 65.4209 28.4858C65.7071 28.599 66.0012 28.6902 66.3015 28.772C66.3204 28.7767 66.3597 28.7877 66.3785 28.7924C67.4525 29.0535 68.5453 29.2406 69.6083 29.5519C69.6256 29.5567 69.6602 29.5677 69.6775 29.5724C69.9684 29.6589 70.2593 29.7548 70.5471 29.8664C70.5628 29.8727 70.5958 29.8869 70.6115 29.8932C71.4984 30.2595 72.3821 30.7627 72.9262 31.5788C72.9356 31.593 72.9545 31.6197 72.9639 31.6339C73.1259 31.8918 73.2925 32.1606 73.3554 32.4641C73.3837 32.5427 73.4403 32.7 73.4686 32.7786C73.6165 33.5051 73.629 34.2724 73.4702 34.9989C73.4419 35.0775 73.3853 35.2348 73.3554 35.3134C72.9608 36.738 71.7625 37.8089 70.4338 38.3781C68.429 39.2241 66.1725 39.1989 64.056 38.8734C63.9743 38.8483 63.8123 38.7995 63.7321 38.7759C63.6047 38.7571 63.3516 38.7178 63.2242 38.6989C63.2022 38.6926 63.1582 38.6832 63.1362 38.6769C63.0009 38.6407 62.7289 38.5668 62.5937 38.5306C62.5685 38.5228 62.5166 38.5086 62.4915 38.5008C62.4018 38.4725 62.2242 38.4174 62.1345 38.3907C62.1062 38.3813 62.0512 38.3624 62.0229 38.3545C61.9364 38.3246 61.7619 38.2649 61.6738 38.235C61.6518 38.2272 61.6078 38.2114 61.5842 38.2036C60.9694 37.9866 60.3923 37.6799 59.8403 37.3387C59.9991 36.9566 60.1658 36.5761 60.3388 36.1987C60.3451 36.1814 60.3608 36.1484 60.3671 36.1327C60.5652 35.6829 60.7681 35.2364 60.9662 34.7882C60.9741 34.7709 60.9882 34.7395 60.9945 34.7237C61.0779 34.5256 61.1596 34.3291 61.2445 34.1309C61.3074 34.1451 61.4332 34.1734 61.4961 34.1875C61.9081 34.3306 62.2776 34.5696 62.6802 34.7426C62.6975 34.7505 62.7305 34.7646 62.7478 34.7725C64.5466 35.4817 66.627 35.9455 68.5029 35.2599C68.5218 35.2489 68.5611 35.2269 68.5799 35.2175C68.9841 34.9816 69.275 34.5303 69.1633 34.0492C69.0501 33.4972 68.4746 33.2661 68.0107 33.0742C66.7559 32.6387 65.4256 32.4893 64.1614 32.0946C64.1425 32.0883 64.1079 32.0789 64.0906 32.0726C63.795 31.983 63.5041 31.887 63.2195 31.777C63.2038 31.7707 63.1708 31.7565 63.155 31.7502C62.199 31.3587 61.254 30.802 60.6895 29.9073C60.68 29.8932 60.6627 29.8649 60.6533 29.8507C60.5479 29.6887 60.4662 29.5158 60.4111 29.3334C60.3797 29.2579 60.3152 29.1054 60.2838 29.0283C59.9174 27.7531 60.0888 26.3174 60.809 25.1931C60.8184 25.179 60.8357 25.1491 60.8451 25.1349C61.1973 24.5861 61.6801 24.1317 62.2194 23.7685C62.2336 23.759 62.2619 23.7402 62.276 23.7307C63.0984 23.2213 64.0199 22.7998 64.9932 22.7134C65.0734 22.6882 65.2322 22.6394 65.3124 22.6143Z" fill="#FF1616"/>
<path d="M0.494103 22.847C4.65163 22.836 8.80758 22.8376 12.9651 22.847C12.9698 24.0012 12.9777 25.1554 12.9588 26.3096C10.2935 26.3269 7.62826 26.2938 4.96454 26.3253C4.96454 27.481 4.96927 28.6368 4.95983 29.7926C7.31377 29.8161 9.66771 29.7831 12.0216 29.8098C12.0279 30.9562 12.0279 32.1041 12.0216 33.2504C9.66928 33.2865 7.31534 33.2457 4.96297 33.2708C4.96454 35.1012 4.97084 36.9315 4.96141 38.7618C3.47073 38.765 1.98163 38.765 0.492529 38.7618C0.486239 33.4564 0.483096 28.1525 0.494103 22.847Z" fill="#FF1616"/>
<path d="M35.874 22.8485C37.8238 22.8313 39.7737 22.8454 41.7235 22.8407C43.0507 22.8533 44.403 22.7558 45.6987 23.1096C45.7176 23.1143 45.7537 23.1237 45.7726 23.1284C46.4094 23.292 47.0258 23.5373 47.5872 23.8816C47.6045 23.8911 47.636 23.91 47.6517 23.921C47.7539 23.9886 47.9567 24.1238 48.0574 24.1914C48.0731 24.2024 48.103 24.226 48.1187 24.237C48.9568 24.8817 49.6424 25.778 49.9192 26.808C49.9459 26.8866 49.9994 27.0454 50.0261 27.1256C50.2871 28.1524 50.2871 29.2437 50.0292 30.2737C49.9994 30.3507 49.9412 30.508 49.9113 30.5866C49.7761 31.1888 49.4333 31.7235 49.0637 32.2093C49.0527 32.2219 49.0323 32.2487 49.0213 32.2612C48.7901 32.527 48.5401 32.7739 48.2728 32.9987C48.2587 33.0097 48.2335 33.0302 48.2193 33.0412C47.8671 33.3132 47.4787 33.5318 47.0919 33.7504C47.2051 33.917 47.3183 34.0853 47.4363 34.2535C47.4473 34.2693 47.4693 34.3023 47.4803 34.318C47.5495 34.4202 47.6894 34.6246 47.7602 34.7268C47.7712 34.7426 47.7932 34.7756 47.8042 34.7913C48.3671 35.6074 48.9269 36.4282 49.4899 37.2459C49.4993 37.2601 49.5198 37.2884 49.5292 37.3025C49.8594 37.7884 50.1928 38.2711 50.5261 38.7555C48.949 38.757 47.3686 38.7869 45.7915 38.7445C45.7427 38.6973 45.6437 38.6029 45.5949 38.5542C45.5823 38.54 45.5603 38.5086 45.5477 38.4929C45.4801 38.3907 45.3433 38.1878 45.2757 38.0856C45.2647 38.0699 45.2443 38.0384 45.2332 38.0211C44.5697 37.0462 43.9061 36.0697 43.2346 35.0995C43.2252 35.0838 43.2048 35.0539 43.1953 35.0382C43.134 34.9344 43.0114 34.7284 42.9485 34.6262L42.9107 34.5492L42.8321 34.5476C42.0018 34.4973 41.17 34.5161 40.3398 34.5256C40.3476 35.9376 40.3492 37.3497 40.3413 38.7618C38.8506 38.7649 37.3615 38.7649 35.8724 38.7618C35.8661 33.4563 35.863 28.1524 35.874 22.8485ZM40.3665 26.363C40.3744 27.9213 40.3744 29.4796 40.3665 31.0379C41.7125 31.0033 43.1199 31.2454 44.4109 30.758C46.0053 30.1321 46.0902 27.5502 44.6184 26.7404C44.3479 26.6051 44.0555 26.44 43.7426 26.5124L43.7095 26.3771L43.5539 26.3158L43.4344 26.3944C42.4185 26.2891 41.3886 26.3614 40.3665 26.363Z" fill="#FF1616"/>
<path d="M81.2865 23.5546C81.439 23.3187 81.4516 22.836 81.8211 22.8454C83.23 22.8344 84.6405 22.836 86.051 22.8501C86.3231 23.487 86.6202 24.1144 86.8734 24.7607C87.0385 25.2293 87.2492 25.6821 87.4851 26.1208L87.5401 26.2325C87.548 26.2482 87.5637 26.2812 87.5716 26.2985C88.1408 27.5832 88.7085 28.8695 89.2793 30.1542C89.2856 30.1699 89.2997 30.2014 89.3076 30.2186C89.5057 30.6684 89.7054 31.1181 89.9051 31.5694C89.9114 31.5851 89.9255 31.6181 89.9334 31.6339C90.5372 33.0113 91.1741 34.3762 91.7464 35.7678C91.9131 36.2364 92.1223 36.6893 92.3597 37.128L92.4147 37.2396C92.4226 37.2554 92.4383 37.29 92.4462 37.3057C92.6663 37.7837 92.877 38.268 93.0704 38.7571C91.5247 38.7681 89.979 38.7665 88.4333 38.7586C88.0134 37.7145 87.5999 36.6673 87.1722 35.6247C84.9173 35.6232 82.6608 35.6153 80.4059 35.6295C79.9735 36.6688 79.5615 37.7161 79.1448 38.7618C77.6227 38.7602 76.1021 38.7744 74.5815 38.7539C74.6539 38.581 74.7294 38.408 74.8096 38.235C74.8158 38.2193 74.83 38.1878 74.8363 38.1721C75.1979 37.3607 75.5533 36.5462 75.915 35.7332C75.9228 35.7175 75.937 35.6829 75.9449 35.6672C76.3474 34.7394 76.7578 33.8148 77.1698 32.8918C77.1761 32.8761 77.1902 32.8446 77.1981 32.8273C77.3947 32.3761 77.5959 31.9248 77.7956 31.475C77.8035 31.4577 77.8176 31.4263 77.8239 31.409C78.5992 29.6478 79.3744 27.8883 80.1559 26.1287C80.1638 26.113 80.1779 26.0815 80.1842 26.0642C80.5396 25.2497 80.9044 24.4383 81.2582 23.6206C81.2645 23.6049 81.2786 23.5719 81.2865 23.5546ZM83.6373 27.3741C83.62 27.4731 83.587 27.6713 83.5697 27.7703C82.9171 29.2752 82.3274 30.8099 81.7346 32.3383C83.1011 32.3588 84.4707 32.3588 85.8372 32.3383C85.3025 30.9231 84.7459 29.511 84.1515 28.1194C84.0807 27.8694 84.0084 27.621 83.9345 27.3725C83.8606 27.3725 83.7112 27.3741 83.6373 27.3741Z" fill="#FF1616"/>
<path d="M95.1557 22.8486C96.6433 22.836 98.1324 22.836 99.6215 22.8486C99.6341 26.9527 99.6247 31.0568 99.6263 35.1609C102.163 35.2034 104.699 35.142 107.235 35.1939C107.163 36.3811 107.247 37.573 107.195 38.7634C103.182 38.7618 99.1687 38.765 95.1542 38.7618C95.1479 33.4579 95.1447 28.1525 95.1557 22.8486Z" fill="#FF1616"/>
<path d="M109.911 22.8832C114.031 22.88 118.151 22.8769 122.271 22.8848C122.326 24.0201 122.224 25.1601 122.316 26.2923C119.634 26.3583 116.95 26.2671 114.269 26.3379C114.276 27.2247 114.278 28.1116 114.267 28.9985C116.64 29.0393 119.014 28.978 121.387 29.0299C121.37 30.1196 121.37 31.2109 121.387 32.3006C119.014 32.3525 116.64 32.2912 114.267 32.3336C114.278 33.318 114.278 34.3023 114.267 35.2867C117.06 35.3291 119.852 35.2678 122.645 35.3181C122.628 36.4613 122.628 37.6061 122.645 38.7492C118.401 38.7823 114.155 38.7539 109.91 38.7634C109.886 33.4705 109.883 28.1761 109.911 22.8832Z" fill="#FF1616"/>
<path d="M41.0252 1.04563C41.2296 1.0016 41.4356 0.978014 41.6463 0.973297C42.3398 0.979587 43.0348 0.981159 43.7298 0.97487C43.9893 0.982732 44.2503 0.998456 44.5066 1.05506C44.6418 1.15256 44.7928 1.18715 44.9579 1.15885C45.0397 1.16671 45.2032 1.18086 45.285 1.18872C45.4186 1.29251 45.5712 1.33182 45.7394 1.3098C45.818 1.31609 45.9769 1.32867 46.0555 1.33496C46.1325 1.36956 46.2851 1.44032 46.3621 1.47491C46.5901 1.48434 46.8103 1.56139 47.0147 1.65889C47.0901 1.69191 47.2427 1.75638 47.3182 1.7894C47.7176 1.92935 48.2113 2.052 48.444 2.43253C48.4031 2.50487 48.3198 2.64953 48.2789 2.72186C48.2475 2.89483 48.1893 3.0568 48.1028 3.2109C48.0651 3.2848 47.9896 3.43104 47.9519 3.50495C47.9204 3.67477 47.8622 3.83516 47.7805 3.98769C47.7459 4.06159 47.6767 4.21255 47.6421 4.28803C47.5981 4.46572 47.5273 4.63082 47.4329 4.7865C47.315 4.97362 47.1939 5.17175 47.1876 5.39975L47.1641 5.56329C46.598 5.47209 46.1105 5.14973 45.5759 4.96418C45.123 4.79279 44.645 4.7063 44.1827 4.56478C44.0506 4.46729 43.9028 4.43112 43.7424 4.45628C43.0458 4.44999 42.3476 4.44999 41.651 4.45785C41.5708 4.47987 41.4089 4.52547 41.3287 4.54748C40.7453 4.77077 40.0283 5.13872 40.099 5.88092C40.033 6.53664 40.7296 6.7615 41.1777 7.0351C41.2564 7.06183 41.4152 7.11687 41.4938 7.1436C42.0284 7.2238 42.5552 7.35431 43.0757 7.49898C43.1574 7.51942 43.3194 7.56188 43.4012 7.58232C43.516 7.59647 43.7471 7.6232 43.8619 7.63735C43.9405 7.66723 44.0978 7.72698 44.178 7.75843C44.2534 7.76315 44.4075 7.77573 44.4846 7.78202C44.5601 7.81818 44.711 7.88895 44.7881 7.92511C46.4659 8.26633 48.389 9.15792 48.9032 10.9364C48.8843 11.0983 48.9268 11.2414 49.0337 11.3656L49.095 11.4867C49.0982 12.0481 49.0966 12.6095 49.0997 13.1708L49.0337 13.2856C48.9283 13.4083 48.8843 13.5498 48.9063 13.7102L48.8843 13.8281C48.7349 14.1677 48.573 14.5027 48.4063 14.8329C47.7081 15.9415 46.5193 16.7198 45.2677 17.0548C45.1906 17.0878 45.0381 17.1554 44.9611 17.19C44.8856 17.1979 44.7362 17.2152 44.6623 17.223C44.5821 17.2498 44.4201 17.3048 44.3399 17.3315C44.211 17.341 43.9531 17.3583 43.8242 17.3677C43.5301 17.363 43.2392 17.4054 42.9515 17.4636C42.2612 17.5501 41.5535 17.5532 40.8648 17.4495C40.6793 17.3834 40.4843 17.3441 40.2877 17.3645C39.8018 17.3645 39.3175 17.2859 38.8489 17.1538C38.7703 17.1271 38.6131 17.0721 38.5344 17.0438C37.4101 16.8472 36.3393 16.3755 35.377 15.7669C35.487 15.5028 35.594 15.2354 35.7402 14.987C35.8581 14.8109 35.9572 14.619 36.0075 14.4099C36.094 14.1174 36.2088 13.8312 36.3692 13.5702C36.4871 13.3941 36.5893 13.2038 36.6396 12.9947C36.6947 12.8217 36.7513 12.6488 36.8126 12.4774C37.6617 12.9365 38.5392 13.3312 39.4575 13.6331C39.5377 13.6567 39.6981 13.7054 39.7798 13.7306C39.8537 13.7385 40.0031 13.7542 40.0786 13.7621C40.1572 13.7919 40.3145 13.8517 40.3946 13.8816C40.6164 13.8863 40.8381 13.9146 41.0566 13.9633C41.3491 14.0372 41.651 14.0671 41.9529 14.0467C42.0442 14.0467 42.2297 14.0467 42.3225 14.0467C42.6275 14.0671 42.9326 14.0294 43.2282 13.9476C43.3068 13.9319 43.4641 13.902 43.5443 13.8863C43.626 13.8643 43.7927 13.8202 43.8761 13.7998C44.1654 13.5859 44.472 13.3815 44.6812 13.0812C44.8557 12.8862 44.8541 12.5576 44.689 12.3594C44.4453 11.9223 43.9783 11.7289 43.571 11.4851C43.4924 11.4584 43.3336 11.4049 43.2549 11.3782C42.7659 11.3059 42.2832 11.1817 41.8161 11.0213C41.6778 10.9269 41.5284 10.8923 41.3648 10.9191C41.2847 10.9128 41.1243 10.9002 41.0425 10.8939C40.9639 10.864 40.8051 10.8058 40.7264 10.776C40.4009 10.7571 40.0833 10.669 39.7814 10.5543C39.7028 10.5244 39.5439 10.4662 39.4638 10.4379L39.3238 10.43C39.2483 10.3939 39.0958 10.32 39.0203 10.2822C37.7828 9.91112 36.5406 9.12961 36.0028 7.90781C35.9698 7.83234 35.9022 7.68138 35.8691 7.6059L35.8062 7.48954C35.6506 6.63098 35.6191 5.74726 35.7905 4.88713C36.2607 3.03007 37.9904 1.72336 39.7955 1.31452C39.8726 1.27993 40.0251 1.21388 40.1006 1.17929C40.2201 1.17143 40.4575 1.15256 40.5755 1.14312C40.739 1.173 40.8884 1.13998 41.0252 1.04563Z" fill="#252422"/>
<path d="M56.5892 1.04406C56.7921 1.0016 56.9981 0.978016 57.2056 0.971726C57.8519 0.981161 58.4998 0.981161 59.146 0.970154C59.4039 0.979589 59.6634 0.996885 59.9197 1.04563C60.0549 1.14155 60.2027 1.17457 60.3663 1.1447C61.1211 1.17457 61.846 1.42302 62.5567 1.66046C63.0033 1.84129 63.4939 1.98281 63.8556 2.31617C63.8556 2.38222 63.854 2.5143 63.854 2.58034L63.7942 2.71558C63.6779 2.91056 63.5835 3.11812 63.5348 3.33984C63.4892 3.51281 63.4263 3.68106 63.3508 3.84145C63.3178 3.9185 63.2549 4.07103 63.2219 4.14808C63.1841 4.31633 63.1244 4.47515 63.041 4.6261C63.0033 4.69844 62.9262 4.84625 62.8885 4.91858C62.8319 5.16703 62.7092 5.39189 62.6055 5.62304C61.8868 5.27081 61.1399 4.98777 60.3851 4.72517C60.3034 4.70473 60.1398 4.6607 60.0581 4.64026C59.981 4.62768 59.8269 4.60409 59.7499 4.59151C59.6178 4.48458 59.47 4.4437 59.3049 4.46729C58.6035 4.44999 57.9007 4.44685 57.1993 4.44999C57.0358 4.42169 56.8896 4.45942 56.7606 4.56163C56.2732 4.77077 55.803 5.05381 55.6064 5.57744C55.4602 5.74884 55.4476 6.01301 55.6206 6.1734C55.9367 6.79452 56.6348 6.95962 57.2292 7.19549C57.311 7.21279 57.4761 7.24896 57.5579 7.26783C57.6333 7.27883 57.7843 7.30085 57.8582 7.31343C57.9384 7.34173 58.0988 7.39834 58.1774 7.42664C58.2938 7.43922 58.5249 7.46438 58.6413 7.47696C58.7199 7.50684 58.8756 7.56816 58.9526 7.59804C59.492 7.64679 60.0203 7.78831 60.5314 7.9597C60.61 7.98801 60.7673 8.04304 60.8443 8.06978C62.1306 8.41729 63.5442 9.073 64.1433 10.3373C64.2251 10.5904 64.3242 10.8389 64.4374 11.081L64.483 11.2115C64.4594 11.3798 64.4956 11.5355 64.5915 11.677C64.6937 12.0795 64.6748 12.5057 64.6198 12.9129C64.5317 13.3013 64.4327 13.6866 64.3226 14.0703C63.7282 15.5468 62.3397 16.6365 60.8254 17.039C60.75 17.0752 60.5974 17.1475 60.522 17.1837C60.4449 17.19 60.2877 17.2041 60.2106 17.2104C60.0423 17.1853 59.893 17.2246 59.7609 17.3268C59.6319 17.341 59.3756 17.3661 59.2467 17.3787C58.9479 17.3755 58.6523 17.4101 58.3614 17.4668C57.8236 17.5438 57.2717 17.5485 56.7339 17.4636C56.4461 17.4054 56.1537 17.3677 55.8596 17.3771C55.63 17.3787 55.4036 17.3598 55.1803 17.3189C55.0482 17.212 54.9004 17.1711 54.7369 17.1979C54.6567 17.1931 54.4947 17.1853 54.4129 17.1821C54.3327 17.1523 54.1723 17.0941 54.0922 17.0658C54.0151 17.0563 53.8626 17.0406 53.7855 17.0312C53.71 16.9966 53.5575 16.9243 53.482 16.8897C53.2525 16.8755 53.0339 16.7985 52.8295 16.7041C52.754 16.6727 52.6015 16.6082 52.5244 16.5767C51.9284 16.3739 51.268 16.1396 50.8906 15.6034C50.9457 15.5452 51.0573 15.4257 51.1123 15.366C51.1579 15.0578 51.3042 14.7779 51.4646 14.5153C51.5872 14.3407 51.6831 14.1473 51.7319 13.9382C51.8184 13.6441 51.93 13.3564 52.0951 13.0969C52.2178 12.9176 52.342 12.729 52.3656 12.5088C53.6534 13.1944 55.0199 13.7416 56.4697 13.9618C56.8188 14.0451 57.1789 14.064 57.539 14.0498L57.7135 14.0514C58.0202 14.064 58.3347 14.0561 58.6334 13.9696C59.1728 13.8312 59.8081 13.7039 60.1273 13.196C60.2751 12.8044 60.2672 12.2824 59.926 11.993C59.352 11.4946 58.5784 11.3782 57.8755 11.1691C57.7937 11.1455 57.6318 11.0999 57.5516 11.0763C57.4745 11.07 57.322 11.0559 57.2449 11.0496C57.1647 11.0213 57.0059 10.9615 56.9273 10.9332C56.8094 10.9206 56.5751 10.8939 56.4571 10.8813C56.3801 10.8499 56.226 10.7838 56.1489 10.7524C55.8738 10.7429 55.6033 10.6675 55.3486 10.5684C55.2715 10.537 55.1174 10.4772 55.0403 10.4473C53.6692 10.0982 52.2461 9.34975 51.5809 8.04304C51.54 7.96914 51.4599 7.82133 51.419 7.74742L51.4048 7.6059C51.4284 7.43922 51.3875 7.29141 51.2806 7.16404L51.2114 7.04296C51.2035 6.42656 51.202 5.81016 51.2114 5.19219L51.2806 5.07583C51.3875 4.95318 51.4315 4.81008 51.4143 4.64812C51.9064 2.88383 53.633 1.69977 55.3454 1.2988C55.424 1.27049 55.5813 1.21074 55.6599 1.18086C55.7778 1.16986 56.0168 1.14784 56.1364 1.13683C56.2983 1.16828 56.4493 1.13841 56.5892 1.04406Z" fill="#252422"/>
<path d="M67.5304 1.24686C69.018 1.27359 70.5071 1.27831 71.9946 1.24371C72.0796 2.10542 72.0308 2.97184 72.0402 3.83511C72.0355 8.28672 72.0544 12.7368 72.0308 17.1884C70.5275 17.1994 69.0227 17.223 67.521 17.1758C67.5572 11.8656 67.5383 6.55545 67.5304 1.24686Z" fill="#252422"/>
<path d="M0.14151 1.30667C2.81625 1.27837 5.48942 1.29409 8.16416 1.29881C8.43305 1.30667 8.70508 1.30982 8.97083 1.35856C9.10291 1.45763 9.25072 1.49222 9.41426 1.46549C11.3531 1.7045 13.2762 2.93416 14.0058 4.79437C14.0436 4.87142 14.1159 5.02395 14.1521 5.09942L14.1756 5.24094C14.2024 5.32271 14.259 5.48625 14.2857 5.56644C14.2952 5.65135 14.3156 5.81961 14.325 5.90295C14.3203 6.15454 14.3518 6.40613 14.4225 6.64672C14.509 6.9675 14.509 7.30715 14.4257 7.62793C14.3549 7.87637 14.3219 8.13426 14.3156 8.39214L14.292 8.54938C14.1914 8.6909 14.1489 8.84658 14.1678 9.01955L14.1521 9.16578C14.1159 9.24283 14.042 9.39536 14.0042 9.47241C13.5419 10.7036 12.4821 11.5952 11.3468 12.1975C12.2714 13.5608 13.2353 14.9005 14.1332 16.2796C14.1804 16.3487 14.2716 16.4855 14.3172 16.5547C14.4964 16.745 14.6348 16.9699 14.781 17.1853C13.1708 17.201 11.5591 17.223 9.95047 17.1743C9.00542 15.7575 8.05566 14.3423 7.06973 12.9538C6.28194 12.9695 5.49414 12.9129 4.70948 12.9743L4.57425 12.9931C4.57268 14.3926 4.59784 15.7921 4.57111 17.1916C3.093 17.2042 1.61647 17.2057 0.139938 17.1916C0.122641 11.8956 0.119496 6.60112 0.14151 1.30667ZM4.58526 4.79751C4.59312 6.35739 4.59312 7.91883 4.58526 9.48027L4.72521 9.48971C5.71743 9.4504 6.72379 9.57305 7.70343 9.42681C7.90942 9.61236 8.05409 9.57619 8.139 9.31517C9.2067 9.2617 9.97091 8.16099 9.90487 7.13732C9.95833 6.11366 9.20984 5.00665 8.13586 4.9579C8.0478 4.69845 7.90313 4.66386 7.70029 4.85255C6.72222 4.69688 5.71428 4.82739 4.72521 4.78493L4.58526 4.79751Z" fill="#252422"/>
<path d="M17.7197 1.30035C19.1648 1.2862 20.6099 1.2862 22.055 1.30035C22.11 3.29736 22.0628 5.29595 22.0786 7.29454C22.0974 8.41727 22.0172 9.54471 22.1462 10.6643C22.1541 10.7744 22.1682 10.9961 22.1745 11.1077C22.1603 11.3106 22.2091 11.5103 22.3003 11.6927L22.3475 11.8263C22.3695 11.9097 22.4151 12.0764 22.4371 12.1581C22.794 12.8264 23.3302 13.3579 24.0363 13.6457C24.1165 13.6724 24.2753 13.7259 24.3555 13.7526C25.1527 13.7557 26.0129 13.8658 26.7283 13.4287C27.2692 13.1739 27.5696 12.644 27.8809 12.1644C27.8998 12.0811 27.9375 11.9144 27.9564 11.8311L28.0083 11.7005C28.1105 11.5669 28.1498 11.4175 28.1278 11.2508C28.1357 11.1439 28.1498 10.9269 28.1577 10.82C28.3023 9.70196 28.2111 8.57294 28.2332 7.45021C28.2489 5.4013 28.2017 3.35083 28.2567 1.30035C29.694 1.28777 31.1312 1.28462 32.5684 1.30349C32.6014 4.57734 32.5747 7.85118 32.5826 11.125C32.5637 11.1942 32.5291 11.3357 32.5102 11.4065C32.4285 11.5905 32.3939 11.7933 32.4127 11.9946C32.4017 12.0779 32.3781 12.2446 32.3671 12.328C32.2618 12.4632 32.2193 12.6173 32.2398 12.7871L32.2193 12.9349C32.1895 13.0151 32.1281 13.1739 32.0967 13.2526C32.0542 13.4334 31.9835 13.6016 31.8797 13.7573C31.757 13.9303 31.6564 14.119 31.5825 14.3187C30.8686 15.6348 29.5635 16.6459 28.1215 17.0453C28.046 17.0815 27.8951 17.1522 27.8196 17.1884C27.7457 17.1978 27.5979 17.2167 27.524 17.2261C27.4422 17.2482 27.2787 17.2938 27.1985 17.3158C26.1654 17.5281 25.0945 17.5784 24.0489 17.462C23.9105 17.3708 23.7611 17.3409 23.6007 17.374C21.2719 17.2026 18.9934 15.6553 18.2245 13.4082C18.1883 13.3328 18.1144 13.1802 18.0783 13.1032L18.0562 12.9632C18.0264 12.8815 17.9698 12.7195 17.9414 12.6393C17.9304 12.5575 17.9084 12.3971 17.8974 12.3154C17.9273 12.1503 17.8943 11.9993 17.7984 11.8609C17.7748 11.7556 17.7276 11.5433 17.704 11.4364C17.7072 8.05875 17.6694 4.67797 17.7197 1.30035Z" fill="#252422"/>
<path d="M81.1068 1.27209C82.6447 1.3287 84.1841 1.25637 85.7219 1.3177L85.7235 1.48438C85.6952 1.71395 85.8383 1.90894 85.9594 2.08977C86.1135 2.34293 86.2534 2.61497 86.3163 2.90902C86.3541 2.98292 86.4264 3.13073 86.4626 3.20464C86.6308 3.45308 86.7189 3.74399 86.7959 4.03175C86.8321 4.24874 86.928 4.44845 87.0632 4.62142C87.2378 4.86829 87.3557 5.1529 87.4249 5.44695C87.4611 5.66395 87.5586 5.86365 87.6922 6.03819C87.8668 6.28664 87.98 6.57283 88.0507 6.86688C88.0869 7.0823 88.186 7.28043 88.3196 7.4534C88.4957 7.70185 88.6042 7.98961 88.6781 8.28365C88.7143 8.50065 88.8134 8.69721 88.9454 8.87175C89.1043 9.11548 89.2474 9.37808 89.3103 9.66584C89.3449 9.73974 89.414 9.8907 89.4486 9.96618C89.6688 10.3168 89.8134 10.7099 89.9392 11.1031C89.988 11.3138 90.0855 11.5056 90.2081 11.6833C90.3685 11.9427 90.4833 12.2289 90.5698 12.5214C90.617 12.7305 90.7129 12.924 90.8371 13.1001C90.9881 13.3532 91.128 13.6237 91.1925 13.9146C91.2286 13.9885 91.301 14.1379 91.3371 14.2118C91.5038 14.4602 91.5919 14.7511 91.6689 15.0389C91.7067 15.2559 91.8026 15.4556 91.9378 15.6286C92.1124 15.877 92.2319 16.1601 92.301 16.4557C92.3419 16.6727 92.4143 16.8881 92.5652 17.0548L92.6438 17.1601C91.0635 17.2246 89.4769 17.2278 87.8982 17.1586C87.9013 17.0878 87.9076 16.9447 87.9124 16.874C87.873 16.8016 87.796 16.657 87.7567 16.583C87.6671 16.4305 87.6089 16.2654 87.5837 16.0909C87.5475 16.0154 87.4752 15.8676 87.4375 15.7921C87.351 15.6412 87.2912 15.4792 87.2598 15.3078C87.2268 15.2323 87.1592 15.0814 87.1261 15.0059C87.0302 14.8455 86.9705 14.6741 86.9437 14.4917C86.9422 14.4272 86.939 14.2999 86.9374 14.2354L86.8274 14.1992C86.4185 14.0215 85.9688 14.053 85.5364 14.0545C83.7186 14.0797 81.9025 14.0357 80.0847 14.0766C80.0203 14.1458 79.8913 14.2826 79.8268 14.3517C79.8001 14.4304 79.7467 14.5876 79.7199 14.6662C79.6853 14.8361 79.6272 14.9996 79.547 15.1537C79.5108 15.2276 79.4384 15.377 79.4023 15.4525C79.3693 15.6223 79.3111 15.7842 79.2293 15.9383C79.1947 16.0138 79.124 16.1632 79.0894 16.2387C79.0579 16.4132 78.995 16.5768 78.9007 16.7261C78.8724 16.8032 78.8158 16.9557 78.7859 17.0328L78.8205 17.1633C77.259 17.212 75.6897 17.2451 74.1299 17.146L74.2462 17.0501C74.2793 16.973 74.3437 16.8173 74.3768 16.7403C74.4365 16.4525 74.5796 16.1915 74.74 15.9462C74.8689 15.7717 74.968 15.5751 75.0057 15.3597C75.0749 15.0641 75.1881 14.7779 75.3642 14.5294C75.4963 14.3549 75.5938 14.1552 75.6331 13.9382C75.7086 13.652 75.7951 13.3595 75.9649 13.1111C76.0011 13.0372 76.0734 12.8894 76.1096 12.8155C76.1709 12.5214 76.3124 12.2525 76.465 11.9978C76.586 11.8217 76.682 11.6283 76.7339 11.4191C76.8581 11.0244 77.0027 10.6313 77.2245 10.2807C77.259 10.2052 77.3267 10.0542 77.3613 9.97876C77.4226 9.691 77.5641 9.42683 77.7245 9.1831C77.855 9.00855 77.9525 8.80885 77.9918 8.59185C78.0673 8.30567 78.1538 8.01319 78.3236 7.76632C78.3598 7.69084 78.4321 7.54303 78.4683 7.46912C78.5311 7.17665 78.6711 6.90619 78.8236 6.65145C78.9447 6.47691 79.0422 6.28507 79.0925 6.07593C79.2183 5.68125 79.363 5.28656 79.5831 4.93433C79.6177 4.85886 79.6869 4.7079 79.7215 4.63242C79.7812 4.34466 79.9243 4.08206 80.0847 3.83833C80.2152 3.66379 80.3127 3.46566 80.352 3.25024C80.4228 2.95619 80.5344 2.66843 80.7106 2.41998C80.8395 2.24387 80.9511 2.05203 80.981 1.83189C81.0219 1.64477 81.0644 1.45922 81.1068 1.27209ZM83.0504 6.52408L82.9104 6.55553L82.8459 6.7112L82.9246 6.83071C82.7878 6.95965 82.7233 7.12161 82.7327 7.31345L82.5928 7.34333L82.5283 7.50057L82.6069 7.62008C82.4796 7.75688 82.4167 7.91884 82.4182 8.10597L82.2783 8.1327L82.2107 8.28837L82.2862 8.40945C82.1651 8.54782 82.1037 8.70822 82.1037 8.89219L81.9638 8.91892L81.8962 9.0746L81.9717 9.19567C81.8506 9.33405 81.7893 9.49601 81.7861 9.67999L81.6462 9.70672L81.5801 9.86397L81.6587 9.98505C81.4936 10.2256 81.4009 10.5055 81.2908 10.7728C82.6698 10.7791 84.0583 10.8656 85.431 10.7241L85.31 10.6219C85.3162 10.5527 85.3273 10.4143 85.3335 10.3436L85.1999 10.3058C85.2046 10.1108 85.1401 9.94888 85.0065 9.81994L85.0851 9.70043L85.0191 9.54319L84.8807 9.51331C84.8885 9.32304 84.8272 9.16423 84.6951 9.03686L84.7722 8.91735L84.7061 8.76168L84.5662 8.73337C84.5631 8.55097 84.5033 8.39058 84.3854 8.25378L84.4608 8.1327L84.3932 7.97703L84.2533 7.95029C84.2454 7.76789 84.1841 7.6075 84.0709 7.46755L84.1464 7.34647L84.0787 7.1908L83.9388 7.16407C83.9294 6.98166 83.8696 6.8197 83.7564 6.67975L83.8303 6.55867L83.758 6.40457L83.6149 6.38099C83.5834 6.20016 83.5441 6.0209 83.4954 5.84321C83.1746 5.90768 83.0488 6.23003 83.0504 6.52408Z" fill="#252422"/>
</svg>
