<svg width="20" height="20" viewBox="0 0 20 20" fill="none" xmlns="http://www.w3.org/2000/svg">
<g clip-path="url(#clip0_718_3357)">
<path d="M10.0332 0.7901L10.1567 1.20986V13.3893L10.0332 13.5126L4.37971 10.1708L10.0332 0.7901Z" fill="#343434"/>
<path d="M10.0322 0.7901L15.6858 10.1708L10.0322 13.5126V7.60103V0.7901Z" fill="#8C8C8C"/>
<path d="M10.0331 14.5829L10.1028 14.6679V19.0064L10.0331 19.2097L4.37623 11.2429L10.0331 14.5829Z" fill="#3C3C3B"/>
<path d="M10.0322 19.2097V14.5829L15.6858 11.2429L10.0322 19.2097Z" fill="#8C8C8C"/>
<path d="M10.0331 13.5124L4.37964 10.1706L10.0331 7.60083V13.5124Z" fill="#141414"/>
<path d="M15.6858 10.1706L10.0322 13.5124V7.60083L15.6858 10.1706Z" fill="#393939"/>
</g>
<defs>
<clipPath id="clip0_718_3357">
<rect width="18.4198" height="18.4198" fill="white" transform="matrix(-1 0 0 1 19.2407 0.7901)"/>
</clipPath>
</defs>
</svg>
